<svg shape-rendering="geometricPrecision" text-rendering="geometricPrecision" width="325" height="178" viewBox="0 0 325 178" fill="none" xmlns="http://www.w3.org/2000/svg">
<g filter="url(#filter0_ddd_1_444)">
<rect x="2.4303" width="310" height="160" rx="16" fill="white"/>
<g clip-path="url(#clip0_1_444)">
<rect x="30.4303" y="12" width="266" height="37" rx="8" fill="#F7F7F7"/>
<g clip-path="url(#clip1_1_444)">
<path d="M43.4346 36V25.8182H50.0567V27.3643H45.279V30.1286H49.7137V31.6747H45.279V34.4538H50.0965V36H43.4346ZM53.3786 25.8182V36H51.5789V25.8182H53.3786ZM58.33 36.1491C57.5644 36.1491 56.9031 35.9901 56.3463 35.6719C55.7928 35.3504 55.3669 34.8963 55.0686 34.3097C54.7703 33.7197 54.6212 33.0253 54.6212 32.2266C54.6212 31.4411 54.7703 30.7517 55.0686 30.1584C55.3702 29.5618 55.7912 29.0978 56.3314 28.7663C56.8717 28.4316 57.5064 28.2642 58.2355 28.2642C58.7062 28.2642 59.1503 28.3404 59.5679 28.4929C59.9888 28.642 60.3601 28.8741 60.6816 29.1889C61.0064 29.5038 61.2616 29.9048 61.4472 30.392C61.6328 30.8759 61.7256 31.4527 61.7256 32.1222V32.674H55.4664V31.4609H60.0004C59.9971 31.1162 59.9226 30.8097 59.7767 30.5412C59.6309 30.2694 59.4271 30.0556 59.1652 29.8999C58.9067 29.7441 58.6051 29.6662 58.2604 29.6662C57.8925 29.6662 57.5693 29.7557 57.2909 29.9347C57.0125 30.1103 56.7954 30.3423 56.6397 30.6307C56.4872 30.9157 56.4093 31.2289 56.406 31.5703V32.6293C56.406 33.0734 56.4872 33.4545 56.6496 33.7727C56.812 34.0876 57.039 34.3295 57.3307 34.4986C57.6224 34.6643 57.9638 34.7472 58.3549 34.7472C58.6167 34.7472 58.8537 34.7107 59.0658 34.6378C59.2779 34.5616 59.4619 34.4505 59.6176 34.3047C59.7734 34.1589 59.8911 33.9782 59.9706 33.7628L61.651 33.9517C61.545 34.3958 61.3428 34.7836 61.0445 35.1151C60.7495 35.4432 60.3717 35.6984 59.911 35.8807C59.4503 36.0597 58.9233 36.1491 58.33 36.1491ZM66.2991 36.1491C65.5368 36.1491 64.8822 35.9818 64.3353 35.647C63.7918 35.3123 63.3725 34.8499 63.0775 34.2599C62.7858 33.6667 62.64 32.9839 62.64 32.2116C62.64 31.4361 62.7892 30.7517 63.0875 30.1584C63.3858 29.5618 63.8067 29.0978 64.3502 28.7663C64.8971 28.4316 65.5434 28.2642 66.2892 28.2642C66.909 28.2642 67.4575 28.3786 67.9348 28.6072C68.4153 28.8326 68.7982 29.1525 69.0832 29.5668C69.3682 29.9777 69.5306 30.4583 69.5704 31.0085H67.8502C67.7806 30.6406 67.6149 30.334 67.3531 30.0888C67.0946 29.8402 66.7482 29.7159 66.314 29.7159C65.9461 29.7159 65.623 29.8153 65.3446 30.0142C65.0662 30.2098 64.8491 30.4915 64.6933 30.8594C64.5408 31.2273 64.4646 31.6681 64.4646 32.1818C64.4646 32.7022 64.5408 33.1496 64.6933 33.5241C64.8457 33.8954 65.0595 34.1821 65.3346 34.3842C65.613 34.5831 65.9395 34.6825 66.314 34.6825C66.5792 34.6825 66.8162 34.6328 67.025 34.5334C67.2371 34.4306 67.4144 34.2831 67.5569 34.0909C67.6994 33.8987 67.7972 33.665 67.8502 33.3899H69.5704C69.5273 33.9302 69.3682 34.4091 69.0931 34.8267C68.818 35.241 68.4435 35.5658 67.9696 35.8011C67.4956 36.0331 66.9388 36.1491 66.2991 36.1491ZM74.5814 28.3636V29.7557H70.1915V28.3636H74.5814ZM71.2753 26.5341H73.075V33.7031C73.075 33.9451 73.1115 34.1307 73.1844 34.2599C73.2606 34.3859 73.3601 34.4721 73.4827 34.5185C73.6053 34.5649 73.7412 34.5881 73.8904 34.5881C74.0031 34.5881 74.1058 34.5798 74.1986 34.5632C74.2947 34.5466 74.3676 34.5317 74.4174 34.5185L74.7206 35.9254C74.6245 35.9586 74.487 35.995 74.308 36.0348C74.1323 36.0746 73.9169 36.0978 73.6617 36.1044C73.2109 36.1177 72.8049 36.0497 72.4436 35.9006C72.0824 35.7481 71.7957 35.5128 71.5836 35.1946C71.3748 34.8764 71.272 34.4787 71.2753 34.0014V26.5341ZM75.8066 36V28.3636H77.5516V29.6364H77.6311C77.7704 29.1955 78.009 28.8558 78.3471 28.6172C78.6884 28.3752 79.0779 28.2543 79.5154 28.2543C79.6148 28.2543 79.7258 28.2592 79.8485 28.2692C79.9744 28.2758 80.0788 28.2874 80.1617 28.304V29.9595C80.0855 29.933 79.9645 29.9098 79.7988 29.8899C79.6364 29.8667 79.4789 29.8551 79.3265 29.8551C78.9983 29.8551 78.7034 29.9264 78.4415 30.0689C78.183 30.2081 77.9792 30.402 77.83 30.6506C77.6809 30.8991 77.6063 31.1858 77.6063 31.5107V36H75.8066ZM81.0774 36V28.3636H82.8771V36H81.0774ZM81.9822 27.2798C81.6971 27.2798 81.4519 27.1854 81.2464 26.9964C81.0409 26.8042 80.9382 26.5739 80.9382 26.3054C80.9382 26.0336 81.0409 25.8033 81.2464 25.6143C81.4519 25.4221 81.6971 25.326 81.9822 25.326C82.2705 25.326 82.5158 25.4221 82.718 25.6143C82.9235 25.8033 83.0262 26.0336 83.0262 26.3054C83.0262 26.5739 82.9235 26.8042 82.718 26.9964C82.5158 27.1854 82.2705 27.2798 81.9822 27.2798ZM87.7787 36.1491C87.0164 36.1491 86.3618 35.9818 85.8149 35.647C85.2714 35.3123 84.8521 34.8499 84.5571 34.2599C84.2655 33.6667 84.1196 32.9839 84.1196 32.2116C84.1196 31.4361 84.2688 30.7517 84.5671 30.1584C84.8654 29.5618 85.2863 29.0978 85.8299 28.7663C86.3767 28.4316 87.023 28.2642 87.7688 28.2642C88.3886 28.2642 88.9371 28.3786 89.4144 28.6072C89.895 28.8326 90.2778 29.1525 90.5628 29.5668C90.8478 29.9777 91.0102 30.4583 91.05 31.0085H89.3299C89.2602 30.6406 89.0945 30.334 88.8327 30.0888C88.5742 29.8402 88.2278 29.7159 87.7936 29.7159C87.4257 29.7159 87.1026 29.8153 86.8242 30.0142C86.5458 30.2098 86.3287 30.4915 86.1729 30.8594C86.0204 31.2273 85.9442 31.6681 85.9442 32.1818C85.9442 32.7022 86.0204 33.1496 86.1729 33.5241C86.3254 33.8954 86.5391 34.1821 86.8142 34.3842C87.0926 34.5831 87.4191 34.6825 87.7936 34.6825C88.0588 34.6825 88.2958 34.6328 88.5046 34.5334C88.7167 34.4306 88.894 34.2831 89.0365 34.0909C89.179 33.8987 89.2768 33.665 89.3299 33.3899H91.05C91.0069 33.9302 90.8478 34.4091 90.5727 34.8267C90.2977 35.241 89.9231 35.5658 89.4492 35.8011C88.9752 36.0331 88.4184 36.1491 87.7787 36.1491ZM92.2478 36V28.3636H94.0475V36H92.2478ZM93.1527 27.2798C92.8676 27.2798 92.6224 27.1854 92.4169 26.9964C92.2114 26.8042 92.1086 26.5739 92.1086 26.3054C92.1086 26.0336 92.2114 25.8033 92.4169 25.6143C92.6224 25.4221 92.8676 25.326 93.1527 25.326C93.441 25.326 93.6863 25.4221 93.8884 25.6143C94.0939 25.8033 94.1967 26.0336 94.1967 26.3054C94.1967 26.5739 94.0939 26.8042 93.8884 26.9964C93.6863 27.1854 93.441 27.2798 93.1527 27.2798ZM99.4314 28.3636V29.7557H95.0415V28.3636H99.4314ZM96.1253 26.5341H97.925V33.7031C97.925 33.9451 97.9615 34.1307 98.0344 34.2599C98.1106 34.3859 98.2101 34.4721 98.3327 34.5185C98.4553 34.5649 98.5912 34.5881 98.7404 34.5881C98.8531 34.5881 98.9558 34.5798 99.0486 34.5632C99.1447 34.5466 99.2176 34.5317 99.2674 34.5185L99.5706 35.9254C99.4745 35.9586 99.337 35.995 99.158 36.0348C98.9823 36.0746 98.7669 36.0978 98.5117 36.1044C98.0609 36.1177 97.6549 36.0497 97.2936 35.9006C96.9324 35.7481 96.6457 35.5128 96.4336 35.1946C96.2248 34.8764 96.122 34.4787 96.1253 34.0014V26.5341ZM101.775 38.8636C101.53 38.8636 101.303 38.8438 101.094 38.804C100.889 38.7675 100.725 38.7244 100.602 38.6747L101.02 37.2727C101.281 37.349 101.515 37.3854 101.72 37.3821C101.926 37.3788 102.107 37.3142 102.262 37.1882C102.421 37.0656 102.556 36.8601 102.665 36.5717L102.819 36.1591L100.05 28.3636H101.959L103.719 34.1307H103.799L105.564 28.3636H107.478L104.42 36.9247C104.278 37.3291 104.089 37.6754 103.853 37.9638C103.618 38.2554 103.33 38.4775 102.988 38.63C102.65 38.7857 102.246 38.8636 101.775 38.8636Z" fill="#303030"/>
</g>
<path d="M256.435 36V25.8182H260.253C261.035 25.8182 261.691 25.964 262.221 26.2557C262.755 26.5473 263.158 26.9484 263.43 27.4588C263.705 27.9659 263.842 28.5426 263.842 29.1889C263.842 29.8419 263.705 30.4219 263.43 30.929C263.154 31.4361 262.748 31.8355 262.212 32.1271C261.675 32.4155 261.013 32.5597 260.228 32.5597H257.697V31.0433H259.979C260.437 31.0433 260.811 30.9638 261.103 30.8047C261.395 30.6456 261.61 30.4268 261.749 30.1484C261.892 29.87 261.963 29.5502 261.963 29.1889C261.963 28.8277 261.892 28.5095 261.749 28.2344C261.61 27.9593 261.393 27.7455 261.098 27.593C260.806 27.4373 260.43 27.3594 259.969 27.3594H258.279V36H256.435ZM267.146 36.1541C266.662 36.1541 266.226 36.0679 265.838 35.8956C265.454 35.7199 265.149 35.4614 264.923 35.12C264.701 34.7786 264.59 34.3577 264.59 33.8572C264.59 33.4264 264.67 33.0701 264.829 32.7884C264.988 32.5066 265.205 32.2812 265.48 32.1122C265.755 31.9432 266.065 31.8156 266.41 31.7294C266.758 31.6399 267.117 31.5753 267.489 31.5355C267.936 31.4891 268.299 31.4477 268.577 31.4112C268.856 31.3714 269.058 31.3118 269.184 31.2322C269.313 31.1494 269.378 31.0218 269.378 30.8494V30.8196C269.378 30.4451 269.267 30.1551 269.045 29.9496C268.823 29.7441 268.503 29.6413 268.085 29.6413C267.644 29.6413 267.295 29.7375 267.036 29.9297C266.781 30.1219 266.609 30.349 266.519 30.6108L264.839 30.3722C264.971 29.9081 265.19 29.5204 265.495 29.2088C265.8 28.8939 266.173 28.6586 266.614 28.5028C267.054 28.3438 267.542 28.2642 268.075 28.2642C268.443 28.2642 268.809 28.3073 269.174 28.3935C269.538 28.4796 269.872 28.6222 270.173 28.821C270.475 29.0166 270.717 29.2834 270.899 29.6214C271.085 29.9595 271.177 30.3821 271.177 30.8892V36H269.447V34.951H269.388C269.278 35.1631 269.124 35.362 268.925 35.5476C268.73 35.7299 268.483 35.8774 268.185 35.9901C267.89 36.0994 267.543 36.1541 267.146 36.1541ZM267.613 34.8317C267.974 34.8317 268.287 34.7604 268.552 34.6179C268.818 34.4721 269.021 34.2798 269.164 34.0412C269.31 33.8026 269.383 33.5424 269.383 33.2607V32.3608C269.326 32.4072 269.23 32.4503 269.094 32.4901C268.962 32.5298 268.813 32.5646 268.647 32.5945C268.481 32.6243 268.317 32.6508 268.155 32.674C267.992 32.6972 267.851 32.7171 267.732 32.7337C267.464 32.7701 267.223 32.8298 267.011 32.9126C266.799 32.9955 266.632 33.1115 266.509 33.2607C266.387 33.4065 266.325 33.5954 266.325 33.8274C266.325 34.1589 266.446 34.4091 266.688 34.5781C266.93 34.7472 267.238 34.8317 267.613 34.8317ZM272.707 36V28.3636H274.507V36H272.707ZM273.612 27.2798C273.327 27.2798 273.082 27.1854 272.876 26.9964C272.671 26.8042 272.568 26.5739 272.568 26.3054C272.568 26.0336 272.671 25.8033 272.876 25.6143C273.082 25.4221 273.327 25.326 273.612 25.326C273.9 25.326 274.146 25.4221 274.348 25.6143C274.553 25.8033 274.656 26.0336 274.656 26.3054C274.656 26.5739 274.553 26.8042 274.348 26.9964C274.146 27.1854 273.9 27.2798 273.612 27.2798ZM278.911 36.1342C278.311 36.1342 277.774 35.9801 277.301 35.6719C276.827 35.3636 276.452 34.9162 276.177 34.3295C275.902 33.7429 275.764 33.0303 275.764 32.1918C275.764 31.3433 275.904 30.6274 276.182 30.044C276.464 29.4574 276.843 29.0149 277.32 28.7166C277.798 28.415 278.33 28.2642 278.916 28.2642C279.364 28.2642 279.732 28.3404 280.02 28.4929C280.308 28.642 280.537 28.8227 280.706 29.0348C280.875 29.2436 281.006 29.4408 281.099 29.6264H281.173V25.8182H282.978V36H281.208V34.7969H281.099C281.006 34.9825 280.872 35.1797 280.696 35.3885C280.52 35.594 280.288 35.7696 280 35.9155C279.712 36.0613 279.349 36.1342 278.911 36.1342ZM279.413 34.6577C279.795 34.6577 280.119 34.5549 280.388 34.3494C280.656 34.1406 280.86 33.8506 280.999 33.4794C281.139 33.1082 281.208 32.6757 281.208 32.1818C281.208 31.688 281.139 31.2588 280.999 30.8942C280.863 30.5296 280.661 30.2462 280.393 30.044C280.128 29.8419 279.801 29.7408 279.413 29.7408C279.012 29.7408 278.678 29.8452 278.409 30.054C278.141 30.2628 277.939 30.5511 277.803 30.919C277.667 31.2869 277.599 31.7079 277.599 32.1818C277.599 32.6591 277.667 33.085 277.803 33.4595C277.942 33.8307 278.146 34.1241 278.414 34.3395C278.686 34.5516 279.019 34.6577 279.413 34.6577Z" fill="#1A0E12"/>
<rect x="31.4303" y="13" width="264" height="35" rx="7" stroke="#E8E8E8" stroke-width="2" stroke-dasharray="6 4"/>
</g>
<path d="M45.5425 71L42.7187 60.8182H44.3344L46.3181 68.7031H46.4125L48.4758 60.8182H50.0766L52.1398 68.7081H52.2343L54.213 60.8182H55.8337L53.0049 71H51.4587L49.316 63.3736H49.2364L47.0937 71H45.5425ZM58.3055 71.169C57.8216 71.169 57.3841 71.0795 56.993 70.9006C56.6019 70.7183 56.292 70.4548 56.0633 70.1101C55.8379 69.7654 55.7252 69.3428 55.7252 68.8423C55.7252 68.4115 55.8081 68.0568 55.9738 67.7784C56.1395 67.5 56.3632 67.2796 56.645 67.1172C56.9267 66.9548 57.2416 66.8321 57.5896 66.7493C57.9376 66.6664 58.2922 66.6035 58.6535 66.5604C59.1109 66.5073 59.4821 66.4643 59.7671 66.4311C60.0522 66.3946 60.2593 66.3366 60.3886 66.2571C60.5178 66.1776 60.5825 66.0483 60.5825 65.8693V65.8345C60.5825 65.4003 60.4598 65.0639 60.2146 64.8253C59.9726 64.5866 59.6114 64.4673 59.1308 64.4673C58.6303 64.4673 58.2359 64.5784 57.9475 64.8004C57.6625 65.0192 57.4653 65.2628 57.3559 65.5312L55.9589 65.2131C56.1246 64.7491 56.3666 64.3745 56.6847 64.0895C57.0062 63.8011 57.3758 63.5923 57.7934 63.4631C58.211 63.3305 58.6502 63.2642 59.1109 63.2642C59.4158 63.2642 59.739 63.3007 60.0803 63.3736C60.425 63.4432 60.7465 63.5724 61.0448 63.7614C61.3464 63.9503 61.5934 64.2204 61.7856 64.5717C61.9778 64.9197 62.0739 65.3722 62.0739 65.929V71H60.6222V69.956H60.5626C60.4665 70.1482 60.3223 70.3371 60.1301 70.5227C59.9378 70.7083 59.6909 70.8625 59.3893 70.9851C59.0877 71.1077 58.7264 71.169 58.3055 71.169ZM58.6286 69.9759C59.0396 69.9759 59.3909 69.8946 59.6826 69.7322C59.9776 69.5698 60.2013 69.3577 60.3538 69.0959C60.5096 68.8307 60.5874 68.5473 60.5874 68.2457V67.2614C60.5344 67.3144 60.4317 67.3641 60.2792 67.4105C60.1301 67.4536 59.9594 67.4917 59.7671 67.5249C59.5749 67.5547 59.3876 67.5829 59.2053 67.6094C59.023 67.6326 58.8706 67.6525 58.748 67.669C58.4596 67.7055 58.1961 67.7668 57.9575 67.853C57.7221 67.9392 57.5332 68.0634 57.3907 68.2259C57.2515 68.3849 57.1819 68.5971 57.1819 68.8622C57.1819 69.2301 57.3178 69.5085 57.5896 69.6974C57.8614 69.883 58.2077 69.9759 58.6286 69.9759ZM67.3385 63.3636V64.5568H63.1674V63.3636H67.3385ZM64.286 61.5341H65.7725V68.7578C65.7725 69.0462 65.8156 69.2633 65.9017 69.4091C65.9879 69.5516 66.0989 69.6494 66.2348 69.7024C66.374 69.7521 66.5248 69.777 66.6872 69.777C66.8066 69.777 66.911 69.7687 67.0004 69.7521C67.0899 69.7356 67.1595 69.7223 67.2093 69.7124L67.4777 70.9403C67.3915 70.9735 67.2689 71.0066 67.1098 71.0398C66.9507 71.0762 66.7519 71.0961 66.5132 71.0994C66.1221 71.1061 65.7575 71.0365 65.4195 70.8906C65.0814 70.7448 64.808 70.5194 64.5992 70.2145C64.3904 69.9096 64.286 69.5268 64.286 69.0661V61.5341ZM71.912 71.1541C71.1597 71.1541 70.5117 70.9934 69.9681 70.6719C69.4279 70.3471 69.0103 69.8913 68.7153 69.3047C68.4236 68.7147 68.2778 68.0237 68.2778 67.2315C68.2778 66.4493 68.4236 65.7599 68.7153 65.1634C69.0103 64.5668 69.4213 64.1011 69.9483 63.7663C70.4786 63.4316 71.0983 63.2642 71.8076 63.2642C72.2385 63.2642 72.6561 63.3355 73.0605 63.478C73.4648 63.6205 73.8278 63.8442 74.1492 64.1491C74.4707 64.4541 74.7243 64.8501 74.9099 65.3374C75.0955 65.8213 75.1883 66.4096 75.1883 67.1023V67.6293H69.118V66.5156H73.7316C73.7316 66.1245 73.6521 65.7782 73.493 65.4766C73.3339 65.1716 73.1102 64.9313 72.8218 64.7557C72.5368 64.58 72.202 64.4922 71.8176 64.4922C71.4 64.4922 71.0354 64.5949 70.7238 64.8004C70.4156 65.0026 70.1769 65.2678 70.0079 65.5959C69.8422 65.9207 69.7593 66.2737 69.7593 66.6548V67.5249C69.7593 68.0353 69.8488 68.4695 70.0278 68.8274C70.2101 69.1854 70.4636 69.4588 70.7885 69.6477C71.1133 69.8333 71.4928 69.9261 71.9269 69.9261C72.2087 69.9261 72.4655 69.8864 72.6975 69.8068C72.9295 69.724 73.1301 69.6013 73.2991 69.4389C73.4681 69.2765 73.5974 69.076 73.6869 68.8374L75.0938 69.0909C74.9812 69.5052 74.779 69.8681 74.4873 70.1797C74.199 70.4879 73.836 70.7282 73.3985 70.9006C72.9644 71.0696 72.4688 71.1541 71.912 71.1541ZM76.5576 71V63.3636H77.9944V64.5767H78.074C78.2132 64.1657 78.4584 63.8426 78.8098 63.6072C79.1644 63.3686 79.5654 63.2493 80.0129 63.2493C80.1057 63.2493 80.2151 63.2526 80.341 63.2592C80.4703 63.2659 80.5714 63.2741 80.6443 63.2841V64.706C80.5846 64.6894 80.4786 64.6712 80.3261 64.6513C80.1736 64.6281 80.0212 64.6165 79.8687 64.6165C79.5174 64.6165 79.2042 64.6911 78.9291 64.8402C78.6573 64.986 78.4419 65.1899 78.2828 65.4517C78.1237 65.7102 78.0441 66.0052 78.0441 66.3366V71H76.5576Z" fill="#585959"/>
<path d="M231.435 71V60.8182H235.253C236.035 60.8182 236.691 60.964 237.221 61.2557C237.755 61.5473 238.158 61.9484 238.43 62.4588C238.705 62.9659 238.842 63.5426 238.842 64.1889C238.842 64.8419 238.705 65.4219 238.43 65.929C238.154 66.4361 237.748 66.8355 237.212 67.1271C236.675 67.4155 236.013 67.5597 235.228 67.5597H232.697V66.0433H234.979C235.437 66.0433 235.811 65.9638 236.103 65.8047C236.395 65.6456 236.61 65.4268 236.749 65.1484C236.892 64.87 236.963 64.5502 236.963 64.1889C236.963 63.8277 236.892 63.5095 236.749 63.2344C236.61 62.9593 236.393 62.7455 236.098 62.593C235.806 62.4373 235.43 62.3594 234.969 62.3594H233.279V71H231.435ZM243.356 71.1491C242.59 71.1491 241.929 70.9901 241.372 70.6719C240.819 70.3504 240.393 69.8963 240.095 69.3097C239.796 68.7197 239.647 68.0253 239.647 67.2266C239.647 66.4411 239.796 65.7517 240.095 65.1584C240.396 64.5618 240.817 64.0978 241.358 63.7663C241.898 63.4316 242.532 63.2642 243.262 63.2642C243.732 63.2642 244.176 63.3404 244.594 63.4929C245.015 63.642 245.386 63.8741 245.708 64.1889C246.032 64.5038 246.288 64.9048 246.473 65.392C246.659 65.8759 246.752 66.4527 246.752 67.1222V67.674H240.492V66.4609H245.027C245.023 66.1162 244.949 65.8097 244.803 65.5412C244.657 65.2694 244.453 65.0556 244.191 64.8999C243.933 64.7441 243.631 64.6662 243.286 64.6662C242.919 64.6662 242.595 64.7557 242.317 64.9347C242.039 65.1103 241.822 65.3423 241.666 65.6307C241.513 65.9157 241.435 66.2289 241.432 66.5703V67.6293C241.432 68.0734 241.513 68.4545 241.676 68.7727C241.838 69.0876 242.065 69.3295 242.357 69.4986C242.648 69.6643 242.99 69.7472 243.381 69.7472C243.643 69.7472 243.88 69.7107 244.092 69.6378C244.304 69.5616 244.488 69.4505 244.644 69.3047C244.8 69.1589 244.917 68.9782 244.997 68.7628L246.677 68.9517C246.571 69.3958 246.369 69.7836 246.071 70.1151C245.776 70.4432 245.398 70.6984 244.937 70.8807C244.476 71.0597 243.949 71.1491 243.356 71.1491ZM249.794 66.5256V71H247.994V63.3636H249.714V64.6612H249.804C249.98 64.2337 250.26 63.8939 250.644 63.642C251.032 63.3902 251.511 63.2642 252.081 63.2642C252.608 63.2642 253.067 63.3769 253.458 63.6023C253.852 63.8277 254.157 64.1541 254.373 64.5817C254.592 65.0092 254.699 65.5279 254.696 66.1378V71H252.896V66.4162C252.896 65.9058 252.764 65.5064 252.498 65.218C252.237 64.9297 251.874 64.7855 251.41 64.7855C251.095 64.7855 250.815 64.8551 250.57 64.9943C250.328 65.1302 250.137 65.3274 249.998 65.5859C249.862 65.8445 249.794 66.1577 249.794 66.5256ZM259.079 71.1342C258.479 71.1342 257.942 70.9801 257.468 70.6719C256.995 70.3636 256.62 69.9162 256.345 69.3295C256.07 68.7429 255.932 68.0303 255.932 67.1918C255.932 66.3433 256.071 65.6274 256.35 65.044C256.632 64.4574 257.011 64.0149 257.488 63.7166C257.966 63.415 258.498 63.2642 259.084 63.2642C259.532 63.2642 259.9 63.3404 260.188 63.4929C260.476 63.642 260.705 63.8227 260.874 64.0348C261.043 64.2436 261.174 64.4408 261.267 64.6264H261.341V60.8182H263.146V71H261.376V69.7969H261.267C261.174 69.9825 261.04 70.1797 260.864 70.3885C260.688 70.594 260.456 70.7696 260.168 70.9155C259.88 71.0613 259.517 71.1342 259.079 71.1342ZM259.581 69.6577C259.963 69.6577 260.287 69.5549 260.556 69.3494C260.824 69.1406 261.028 68.8506 261.167 68.4794C261.307 68.1082 261.376 67.6757 261.376 67.1818C261.376 66.688 261.307 66.2588 261.167 65.8942C261.031 65.5296 260.829 65.2462 260.561 65.044C260.296 64.8419 259.969 64.7408 259.581 64.7408C259.18 64.7408 258.846 64.8452 258.577 65.054C258.309 65.2628 258.107 65.5511 257.971 65.919C257.835 66.2869 257.767 66.7079 257.767 67.1818C257.767 67.6591 257.835 68.085 257.971 68.4595C258.11 68.8307 258.314 69.1241 258.582 69.3395C258.854 69.5516 259.187 69.6577 259.581 69.6577ZM264.784 71V63.3636H266.584V71H264.784ZM265.689 62.2798C265.404 62.2798 265.158 62.1854 264.953 61.9964C264.747 61.8042 264.645 61.5739 264.645 61.3054C264.645 61.0336 264.747 60.8033 264.953 60.6143C265.158 60.4221 265.404 60.326 265.689 60.326C265.977 60.326 266.222 60.4221 266.424 60.6143C266.63 60.8033 266.733 61.0336 266.733 61.3054C266.733 61.5739 266.63 61.8042 266.424 61.9964C266.222 62.1854 265.977 62.2798 265.689 62.2798ZM269.954 66.5256V71H268.154V63.3636H269.874V64.6612H269.964C270.14 64.2337 270.42 63.8939 270.804 63.642C271.192 63.3902 271.671 63.2642 272.241 63.2642C272.768 63.2642 273.227 63.3769 273.618 63.6023C274.012 63.8277 274.317 64.1541 274.533 64.5817C274.752 65.0092 274.859 65.5279 274.856 66.1378V71H273.056V66.4162C273.056 65.9058 272.924 65.5064 272.658 65.218C272.397 64.9297 272.034 64.7855 271.57 64.7855C271.255 64.7855 270.975 64.8551 270.73 64.9943C270.488 65.1302 270.297 65.3274 270.158 65.5859C270.022 65.8445 269.954 66.1577 269.954 66.5256ZM279.727 74.0227C279.08 74.0227 278.525 73.9349 278.061 73.7592C277.597 73.5869 277.224 73.3549 276.942 73.0632C276.661 72.7715 276.465 72.4484 276.356 72.0938L277.977 71.701C278.049 71.8501 278.155 71.9976 278.295 72.1435C278.434 72.2926 278.621 72.4152 278.856 72.5114C279.095 72.6108 279.395 72.6605 279.756 72.6605C280.267 72.6605 280.689 72.5362 281.024 72.2876C281.359 72.0424 281.526 71.638 281.526 71.0746V69.6278H281.437C281.344 69.8134 281.208 70.004 281.029 70.1996C280.853 70.3951 280.62 70.5592 280.328 70.6918C280.04 70.8243 279.677 70.8906 279.239 70.8906C278.653 70.8906 278.121 70.7531 277.643 70.478C277.169 70.1996 276.792 69.7853 276.51 69.2351C276.231 68.6816 276.092 67.9889 276.092 67.157C276.092 66.3184 276.231 65.6108 276.51 65.0341C276.792 64.4541 277.171 64.0149 277.648 63.7166C278.126 63.415 278.658 63.2642 279.244 63.2642C279.692 63.2642 280.06 63.3404 280.348 63.4929C280.64 63.642 280.872 63.8227 281.044 64.0348C281.216 64.2436 281.347 64.4408 281.437 64.6264H281.536V63.3636H283.311V71.1243C283.311 71.7772 283.155 72.3175 282.844 72.745C282.532 73.1726 282.106 73.4924 281.566 73.7045C281.026 73.9167 280.413 74.0227 279.727 74.0227ZM279.741 69.4787C280.123 69.4787 280.447 69.3859 280.716 69.2003C280.984 69.0147 281.188 68.7479 281.327 68.3999C281.467 68.0518 281.536 67.6342 281.536 67.147C281.536 66.6664 281.467 66.2455 281.327 65.8842C281.191 65.523 280.989 65.2429 280.721 65.044C280.456 64.8419 280.129 64.7408 279.741 64.7408C279.34 64.7408 279.006 64.8452 278.737 65.054C278.469 65.2628 278.267 65.5495 278.131 65.9141C277.995 66.2753 277.927 66.6863 277.927 67.147C277.927 67.6143 277.995 68.0237 278.131 68.375C278.27 68.723 278.474 68.9948 278.742 69.1903C279.014 69.3826 279.347 69.4787 279.741 69.4787Z" fill="#585959"/>
<g opacity="0.997593">
<path d="M46.9151 104H43.6189V93.8182H47.0195C48.0171 93.8182 48.8739 94.022 49.5898 94.4297C50.3057 94.834 50.8542 95.4157 51.2354 96.1747C51.6199 96.9304 51.8121 97.8369 51.8121 98.8942C51.8121 99.9548 51.6182 100.866 51.2304 101.629C50.8459 102.391 50.2891 102.978 49.56 103.388C48.8308 103.796 47.9492 104 46.9151 104ZM45.1551 102.658H46.8306C47.6061 102.658 48.2508 102.512 48.7645 102.22C49.2782 101.925 49.6627 101.499 49.9179 100.942C50.1731 100.382 50.3007 99.6996 50.3007 98.8942C50.3007 98.0954 50.1731 97.4176 49.9179 96.8608C49.666 96.304 49.2898 95.8814 48.7894 95.593C48.2889 95.3047 47.6674 95.1605 46.925 95.1605H45.1551V102.658ZM58.9957 96.4929C58.9427 96.0223 58.7239 95.6577 58.3394 95.3991C57.955 95.1373 57.4711 95.0064 56.8877 95.0064C56.4701 95.0064 56.1089 95.0727 55.8039 95.2053C55.499 95.3345 55.262 95.5135 55.093 95.7422C54.9273 95.9676 54.8444 96.2244 54.8444 96.5128C54.8444 96.7547 54.9008 96.9635 55.0135 97.1392C55.1295 97.3149 55.2803 97.4624 55.4659 97.5817C55.6548 97.6977 55.857 97.7955 56.0724 97.875C56.2878 97.9512 56.495 98.0142 56.6938 98.0639L57.6882 98.3224C58.013 98.402 58.3461 98.5097 58.6875 98.6456C59.0288 98.7815 59.3454 98.9605 59.637 99.1825C59.9287 99.4046 60.164 99.6797 60.343 100.008C60.5253 100.336 60.6164 100.729 60.6164 101.186C60.6164 101.763 60.4673 102.275 60.169 102.722C59.874 103.17 59.4448 103.523 58.8813 103.781C58.3212 104.04 57.6434 104.169 56.848 104.169C56.0857 104.169 55.4261 104.048 54.8693 103.806C54.3125 103.564 53.8766 103.221 53.5617 102.777C53.2469 102.33 53.0729 101.799 53.0397 101.186H54.5809C54.6108 101.554 54.7301 101.861 54.9389 102.106C55.151 102.348 55.4211 102.528 55.7492 102.648C56.0807 102.764 56.4436 102.822 56.838 102.822C57.2722 102.822 57.6583 102.754 57.9964 102.618C58.3378 102.479 58.6063 102.286 58.8018 102.041C58.9974 101.793 59.0951 101.503 59.0951 101.171C59.0951 100.87 59.009 100.623 58.8366 100.43C58.6676 100.238 58.4372 100.079 58.1456 99.9531C57.8572 99.8272 57.5307 99.7161 57.1662 99.62L55.963 99.2919C55.1477 99.0698 54.5014 98.7434 54.0241 98.3125C53.5501 97.8816 53.3132 97.3116 53.3132 96.6023C53.3132 96.0156 53.4723 95.5036 53.7904 95.0661C54.1086 94.6286 54.5395 94.2888 55.0831 94.0469C55.6266 93.8016 56.2398 93.679 56.9225 93.679C57.6119 93.679 58.2201 93.8 58.7471 94.0419C59.2774 94.2839 59.695 94.617 60 95.0412C60.3049 95.4621 60.464 95.946 60.4772 96.4929H58.9957ZM61.6701 95.1406V93.8182H69.55V95.1406H66.3732V104H64.8419V95.1406H61.6701ZM71.9012 93.8182L74.7351 102.111H74.8494L77.6832 93.8182H79.3437L75.6797 104H73.9048L70.2407 93.8182H71.9012Z" fill="#585959"/>
<path d="M221.895 104H218.445V93.8182H221.964C222.975 93.8182 223.844 94.022 224.57 94.4297C225.299 94.834 225.859 95.4157 226.25 96.1747C226.641 96.9337 226.837 97.8419 226.837 98.8991C226.837 99.9598 226.639 100.871 226.245 101.634C225.854 102.396 225.289 102.981 224.55 103.388C223.814 103.796 222.929 104 221.895 104ZM220.289 102.404H221.805C222.515 102.404 223.106 102.275 223.58 102.016C224.054 101.754 224.41 101.365 224.649 100.848C224.888 100.328 225.007 99.678 225.007 98.8991C225.007 98.1203 224.888 97.474 224.649 96.9602C224.41 96.4432 224.057 96.0571 223.59 95.8018C223.126 95.5433 222.549 95.4141 221.86 95.4141H220.289V102.404ZM233.097 100.788V96.3636H234.896V104H233.151V102.643H233.072C232.9 103.07 232.616 103.42 232.222 103.692C231.831 103.964 231.348 104.099 230.775 104.099C230.275 104.099 229.832 103.988 229.448 103.766C229.066 103.541 228.768 103.214 228.553 102.787C228.337 102.356 228.23 101.836 228.23 101.226V96.3636H230.029V100.947C230.029 101.431 230.162 101.816 230.427 102.101C230.692 102.386 231.04 102.528 231.471 102.528C231.736 102.528 231.993 102.464 232.242 102.335C232.49 102.205 232.694 102.013 232.853 101.758C233.016 101.499 233.097 101.176 233.097 100.788ZM239.848 104.149C239.082 104.149 238.421 103.99 237.864 103.672C237.311 103.35 236.885 102.896 236.586 102.31C236.288 101.72 236.139 101.025 236.139 100.227C236.139 99.4411 236.288 98.7517 236.586 98.1584C236.888 97.5618 237.309 97.0978 237.849 96.7663C238.389 96.4316 239.024 96.2642 239.753 96.2642C240.224 96.2642 240.668 96.3404 241.086 96.4929C241.507 96.642 241.878 96.8741 242.199 97.1889C242.524 97.5038 242.779 97.9048 242.965 98.392C243.151 98.8759 243.243 99.4527 243.243 100.122V100.674H236.984V99.4609H241.518C241.515 99.1162 241.44 98.8097 241.295 98.5412C241.149 98.2694 240.945 98.0556 240.683 97.8999C240.425 97.7441 240.123 97.6662 239.778 97.6662C239.41 97.6662 239.087 97.7557 238.809 97.9347C238.53 98.1103 238.313 98.3423 238.157 98.6307C238.005 98.9157 237.927 99.2289 237.924 99.5703V100.629C237.924 101.073 238.005 101.455 238.167 101.773C238.33 102.088 238.557 102.33 238.849 102.499C239.14 102.664 239.482 102.747 239.873 102.747C240.134 102.747 240.371 102.711 240.584 102.638C240.796 102.562 240.98 102.451 241.135 102.305C241.291 102.159 241.409 101.978 241.488 101.763L243.169 101.952C243.063 102.396 242.861 102.784 242.562 103.115C242.267 103.443 241.889 103.698 241.429 103.881C240.968 104.06 240.441 104.149 239.848 104.149ZM251.492 96.3636V97.7557H247.102V96.3636H251.492ZM248.186 94.5341H249.985V101.703C249.985 101.945 250.022 102.131 250.095 102.26C250.171 102.386 250.27 102.472 250.393 102.518C250.516 102.565 250.652 102.588 250.801 102.588C250.913 102.588 251.016 102.58 251.109 102.563C251.205 102.547 251.278 102.532 251.328 102.518L251.631 103.925C251.535 103.959 251.397 103.995 251.218 104.035C251.043 104.075 250.827 104.098 250.572 104.104C250.121 104.118 249.715 104.05 249.354 103.901C248.993 103.748 248.706 103.513 248.494 103.195C248.285 102.876 248.182 102.479 248.186 102.001V94.5341ZM255.966 104.149C255.22 104.149 254.574 103.985 254.027 103.657C253.48 103.329 253.056 102.87 252.754 102.28C252.456 101.69 252.307 101 252.307 100.212C252.307 99.4228 252.456 98.7318 252.754 98.1385C253.056 97.5452 253.48 97.0845 254.027 96.7564C254.574 96.4283 255.22 96.2642 255.966 96.2642C256.712 96.2642 257.358 96.4283 257.905 96.7564C258.452 97.0845 258.874 97.5452 259.173 98.1385C259.474 98.7318 259.625 99.4228 259.625 100.212C259.625 101 259.474 101.69 259.173 102.28C258.874 102.87 258.452 103.329 257.905 103.657C257.358 103.985 256.712 104.149 255.966 104.149ZM255.976 102.707C256.38 102.707 256.718 102.596 256.99 102.374C257.262 102.149 257.464 101.847 257.597 101.469C257.732 101.092 257.8 100.671 257.8 100.207C257.8 99.7393 257.732 99.3168 257.597 98.9389C257.464 98.5578 257.262 98.2545 256.99 98.0291C256.718 97.8037 256.38 97.6911 255.976 97.6911C255.562 97.6911 255.217 97.8037 254.942 98.0291C254.67 98.2545 254.466 98.5578 254.33 98.9389C254.198 99.3168 254.131 99.7393 254.131 100.207C254.131 100.671 254.198 101.092 254.33 101.469C254.466 101.847 254.67 102.149 254.942 102.374C255.217 102.596 255.562 102.707 255.976 102.707ZM263.706 104.134C263.106 104.134 262.569 103.98 262.096 103.672C261.622 103.364 261.247 102.916 260.972 102.33C260.697 101.743 260.559 101.03 260.559 100.192C260.559 99.3433 260.699 98.6274 260.977 98.044C261.259 97.4574 261.638 97.0149 262.115 96.7166C262.593 96.415 263.125 96.2642 263.711 96.2642C264.159 96.2642 264.527 96.3404 264.815 96.4929C265.103 96.642 265.332 96.8227 265.501 97.0348C265.67 97.2436 265.801 97.4408 265.894 97.6264H265.968V93.8182H267.773V104H266.003V102.797H265.894C265.801 102.982 265.667 103.18 265.491 103.388C265.315 103.594 265.083 103.77 264.795 103.915C264.507 104.061 264.144 104.134 263.706 104.134ZM264.208 102.658C264.59 102.658 264.914 102.555 265.183 102.349C265.451 102.141 265.655 101.851 265.794 101.479C265.934 101.108 266.003 100.676 266.003 100.182C266.003 99.688 265.934 99.2588 265.794 98.8942C265.658 98.5296 265.456 98.2462 265.188 98.044C264.923 97.8419 264.596 97.7408 264.208 97.7408C263.807 97.7408 263.473 97.8452 263.204 98.054C262.936 98.2628 262.734 98.5511 262.598 98.919C262.462 99.2869 262.394 99.7079 262.394 100.182C262.394 100.659 262.462 101.085 262.598 101.46C262.737 101.831 262.941 102.124 263.209 102.339C263.481 102.552 263.814 102.658 264.208 102.658ZM271.608 104.154C271.124 104.154 270.689 104.068 270.301 103.896C269.916 103.72 269.611 103.461 269.386 103.12C269.164 102.779 269.053 102.358 269.053 101.857C269.053 101.426 269.132 101.07 269.292 100.788C269.451 100.507 269.668 100.281 269.943 100.112C270.218 99.9432 270.528 99.8156 270.873 99.7294C271.221 99.6399 271.58 99.5753 271.951 99.5355C272.399 99.4891 272.762 99.4477 273.04 99.4112C273.319 99.3714 273.521 99.3118 273.647 99.2322C273.776 99.1494 273.841 99.0218 273.841 98.8494V98.8196C273.841 98.4451 273.73 98.1551 273.507 97.9496C273.285 97.7441 272.966 97.6413 272.548 97.6413C272.107 97.6413 271.757 97.7375 271.499 97.9297C271.244 98.1219 271.071 98.349 270.982 98.6108L269.301 98.3722C269.434 97.9081 269.653 97.5204 269.958 97.2088C270.263 96.8939 270.636 96.6586 271.076 96.5028C271.517 96.3438 272.004 96.2642 272.538 96.2642C272.906 96.2642 273.272 96.3073 273.637 96.3935C274.001 96.4796 274.334 96.6222 274.636 96.821C274.938 97.0166 275.18 97.2834 275.362 97.6214C275.547 97.9595 275.64 98.3821 275.64 98.8892V104H273.91V102.951H273.85C273.741 103.163 273.587 103.362 273.388 103.548C273.193 103.73 272.946 103.877 272.647 103.99C272.352 104.099 272.006 104.154 271.608 104.154ZM272.076 102.832C272.437 102.832 272.75 102.76 273.015 102.618C273.28 102.472 273.484 102.28 273.627 102.041C273.773 101.803 273.846 101.542 273.846 101.261V100.361C273.789 100.407 273.693 100.45 273.557 100.49C273.425 100.53 273.275 100.565 273.11 100.594C272.944 100.624 272.78 100.651 272.618 100.674C272.455 100.697 272.314 100.717 272.195 100.734C271.926 100.77 271.686 100.83 271.474 100.913C271.262 100.996 271.095 101.112 270.972 101.261C270.849 101.406 270.788 101.595 270.788 101.827C270.788 102.159 270.909 102.409 271.151 102.578C271.393 102.747 271.701 102.832 272.076 102.832ZM278.015 106.864C277.77 106.864 277.543 106.844 277.334 106.804C277.128 106.768 276.964 106.724 276.842 106.675L277.259 105.273C277.521 105.349 277.755 105.385 277.96 105.382C278.166 105.379 278.347 105.314 278.502 105.188C278.661 105.066 278.796 104.86 278.905 104.572L279.059 104.159L276.29 96.3636H278.199L279.959 102.131H280.039L281.803 96.3636H283.718L280.66 104.925C280.517 105.329 280.329 105.675 280.093 105.964C279.858 106.255 279.57 106.478 279.228 106.63C278.89 106.786 278.486 106.864 278.015 106.864Z" fill="#585959"/>
</g>
<g opacity="0.987789">
<path d="M44.779 137H43.1483L46.8124 126.818H48.5872L52.2513 137H50.6206L47.7421 128.668H47.6625L44.779 137ZM45.0524 133.013H50.3422V134.305H45.0524V133.013ZM53.3907 137V129.364H54.8772V137H53.3907ZM54.1414 128.185C53.8829 128.185 53.6608 128.099 53.4752 127.927C53.2929 127.751 53.2018 127.542 53.2018 127.3C53.2018 127.055 53.2929 126.846 53.4752 126.674C53.6608 126.498 53.8829 126.411 54.1414 126.411C54.3999 126.411 54.6203 126.498 54.8026 126.674C54.9882 126.846 55.081 127.055 55.081 127.3C55.081 127.542 54.9882 127.751 54.8026 127.927C54.6203 128.099 54.3999 128.185 54.1414 128.185ZM56.597 137V129.364H58.0338V130.577H58.1133C58.2525 130.166 58.4978 129.843 58.8491 129.607C59.2038 129.369 59.6048 129.249 60.0523 129.249C60.1451 129.249 60.2544 129.253 60.3804 129.259C60.5096 129.266 60.6107 129.274 60.6837 129.284V130.706C60.624 130.689 60.5179 130.671 60.3655 130.651C60.213 130.628 60.0605 130.616 59.9081 130.616C59.5568 130.616 59.2435 130.691 58.9685 130.84C58.6967 130.986 58.4812 131.19 58.3221 131.452C58.1631 131.71 58.0835 132.005 58.0835 132.337V137H56.597ZM65.7059 129.364V130.557H61.5347V129.364H65.7059ZM62.6533 127.534H64.1398V134.758C64.1398 135.046 64.1829 135.263 64.2691 135.409C64.3552 135.552 64.4663 135.649 64.6022 135.702C64.7414 135.752 64.8922 135.777 65.0546 135.777C65.1739 135.777 65.2783 135.769 65.3678 135.752C65.4573 135.736 65.5269 135.722 65.5766 135.712L65.8451 136.94C65.7589 136.973 65.6363 137.007 65.4772 137.04C65.3181 137.076 65.1192 137.096 64.8806 137.099C64.4895 137.106 64.1249 137.036 63.7868 136.891C63.4488 136.745 63.1753 136.519 62.9665 136.214C62.7577 135.91 62.6533 135.527 62.6533 135.066V127.534ZM67.0702 137V129.364H68.5567V137H67.0702ZM67.8209 128.185C67.5624 128.185 67.3403 128.099 67.1547 127.927C66.9724 127.751 66.8813 127.542 66.8813 127.3C66.8813 127.055 66.9724 126.846 67.1547 126.674C67.3403 126.498 67.5624 126.411 67.8209 126.411C68.0794 126.411 68.2998 126.498 68.4821 126.674C68.6677 126.846 68.7605 127.055 68.7605 127.3C68.7605 127.542 68.6677 127.751 68.4821 127.927C68.2998 128.099 68.0794 128.185 67.8209 128.185ZM70.2765 137V129.364H71.7034V130.607H71.7978C71.9569 130.186 72.2171 129.857 72.5784 129.622C72.9397 129.384 73.3722 129.264 73.876 129.264C74.3864 129.264 74.8139 129.384 75.1586 129.622C75.5067 129.861 75.7635 130.189 75.9292 130.607H76.0088C76.1911 130.199 76.4811 129.874 76.8788 129.632C77.2765 129.387 77.7505 129.264 78.3007 129.264C78.9934 129.264 79.5585 129.481 79.996 129.915C80.4368 130.35 80.6572 131.004 80.6572 131.879V137H79.1707V132.018C79.1707 131.501 79.0299 131.127 78.7481 130.895C78.4664 130.663 78.13 130.547 77.7389 130.547C77.255 130.547 76.8788 130.696 76.6103 130.994C76.3419 131.289 76.2076 131.669 76.2076 132.133V137H74.7261V131.924C74.7261 131.51 74.5968 131.177 74.3383 130.925C74.0798 130.673 73.7434 130.547 73.3291 130.547C73.0474 130.547 72.7872 130.621 72.5486 130.771C72.3132 130.916 72.1227 131.12 71.9768 131.382C71.8343 131.644 71.763 131.947 71.763 132.292V137H70.2765ZM85.6608 137.154C84.9084 137.154 84.2604 136.993 83.7169 136.672C83.1766 136.347 82.759 135.891 82.464 135.305C82.1724 134.715 82.0265 134.024 82.0265 133.232C82.0265 132.449 82.1724 131.76 82.464 131.163C82.759 130.567 83.17 130.101 83.697 129.766C84.2273 129.432 84.8471 129.264 85.5564 129.264C85.9872 129.264 86.4049 129.335 86.8092 129.478C87.2136 129.621 87.5765 129.844 87.898 130.149C88.2195 130.454 88.473 130.85 88.6586 131.337C88.8443 131.821 88.9371 132.41 88.9371 133.102V133.629H82.8667V132.516H87.4804C87.4804 132.125 87.4008 131.778 87.2417 131.477C87.0827 131.172 86.8589 130.931 86.5706 130.756C86.2855 130.58 85.9508 130.492 85.5663 130.492C85.1487 130.492 84.7841 130.595 84.4726 130.8C84.1643 131.003 83.9257 131.268 83.7567 131.596C83.5909 131.921 83.5081 132.274 83.5081 132.655V133.525C83.5081 134.035 83.5976 134.469 83.7765 134.827C83.9588 135.185 84.2124 135.459 84.5372 135.648C84.862 135.833 85.2415 135.926 85.6757 135.926C85.9574 135.926 86.2143 135.886 86.4463 135.807C86.6783 135.724 86.8788 135.601 87.0478 135.439C87.2169 135.277 87.3461 135.076 87.4356 134.837L88.8426 135.091C88.7299 135.505 88.5277 135.868 88.2361 136.18C87.9477 136.488 87.5848 136.728 87.1473 136.901C86.7131 137.07 86.2176 137.154 85.6608 137.154Z" fill="#585959"/>
<path d="M256.435 137V126.818H260.253C261.035 126.818 261.691 126.964 262.221 127.256C262.755 127.547 263.158 127.948 263.43 128.459C263.705 128.966 263.842 129.543 263.842 130.189C263.842 130.842 263.705 131.422 263.43 131.929C263.154 132.436 262.748 132.835 262.212 133.127C261.675 133.415 261.013 133.56 260.228 133.56H257.697V132.043H259.979C260.437 132.043 260.811 131.964 261.103 131.805C261.395 131.646 261.61 131.427 261.749 131.148C261.892 130.87 261.963 130.55 261.963 130.189C261.963 129.828 261.892 129.509 261.749 129.234C261.61 128.959 261.393 128.746 261.098 128.593C260.806 128.437 260.43 128.359 259.969 128.359H258.279V137H256.435ZM267.146 137.154C266.662 137.154 266.226 137.068 265.838 136.896C265.454 136.72 265.149 136.461 264.923 136.12C264.701 135.779 264.59 135.358 264.59 134.857C264.59 134.426 264.67 134.07 264.829 133.788C264.988 133.507 265.205 133.281 265.48 133.112C265.755 132.943 266.065 132.816 266.41 132.729C266.758 132.64 267.117 132.575 267.489 132.536C267.936 132.489 268.299 132.448 268.577 132.411C268.856 132.371 269.058 132.312 269.184 132.232C269.313 132.149 269.378 132.022 269.378 131.849V131.82C269.378 131.445 269.267 131.155 269.045 130.95C268.823 130.744 268.503 130.641 268.085 130.641C267.644 130.641 267.295 130.737 267.036 130.93C266.781 131.122 266.609 131.349 266.519 131.611L264.839 131.372C264.971 130.908 265.19 130.52 265.495 130.209C265.8 129.894 266.173 129.659 266.614 129.503C267.054 129.344 267.542 129.264 268.075 129.264C268.443 129.264 268.809 129.307 269.174 129.393C269.538 129.48 269.872 129.622 270.173 129.821C270.475 130.017 270.717 130.283 270.899 130.621C271.085 130.96 271.177 131.382 271.177 131.889V137H269.447V135.951H269.388C269.278 136.163 269.124 136.362 268.925 136.548C268.73 136.73 268.483 136.877 268.185 136.99C267.89 137.099 267.543 137.154 267.146 137.154ZM267.613 135.832C267.974 135.832 268.287 135.76 268.552 135.618C268.818 135.472 269.021 135.28 269.164 135.041C269.31 134.803 269.383 134.542 269.383 134.261V133.361C269.326 133.407 269.23 133.45 269.094 133.49C268.962 133.53 268.813 133.565 268.647 133.594C268.481 133.624 268.317 133.651 268.155 133.674C267.992 133.697 267.851 133.717 267.732 133.734C267.464 133.77 267.223 133.83 267.011 133.913C266.799 133.996 266.632 134.112 266.509 134.261C266.387 134.406 266.325 134.595 266.325 134.827C266.325 135.159 266.446 135.409 266.688 135.578C266.93 135.747 267.238 135.832 267.613 135.832ZM272.707 137V129.364H274.507V137H272.707ZM273.612 128.28C273.327 128.28 273.082 128.185 272.876 127.996C272.671 127.804 272.568 127.574 272.568 127.305C272.568 127.034 272.671 126.803 272.876 126.614C273.082 126.422 273.327 126.326 273.612 126.326C273.9 126.326 274.146 126.422 274.348 126.614C274.553 126.803 274.656 127.034 274.656 127.305C274.656 127.574 274.553 127.804 274.348 127.996C274.146 128.185 273.9 128.28 273.612 128.28ZM278.911 137.134C278.311 137.134 277.774 136.98 277.301 136.672C276.827 136.364 276.452 135.916 276.177 135.33C275.902 134.743 275.764 134.03 275.764 133.192C275.764 132.343 275.904 131.627 276.182 131.044C276.464 130.457 276.843 130.015 277.32 129.717C277.798 129.415 278.33 129.264 278.916 129.264C279.364 129.264 279.732 129.34 280.02 129.493C280.308 129.642 280.537 129.823 280.706 130.035C280.875 130.244 281.006 130.441 281.099 130.626H281.173V126.818H282.978V137H281.208V135.797H281.099C281.006 135.982 280.872 136.18 280.696 136.388C280.52 136.594 280.288 136.77 280 136.915C279.712 137.061 279.349 137.134 278.911 137.134ZM279.413 135.658C279.795 135.658 280.119 135.555 280.388 135.349C280.656 135.141 280.86 134.851 280.999 134.479C281.139 134.108 281.208 133.676 281.208 133.182C281.208 132.688 281.139 132.259 280.999 131.894C280.863 131.53 280.661 131.246 280.393 131.044C280.128 130.842 279.801 130.741 279.413 130.741C279.012 130.741 278.678 130.845 278.409 131.054C278.141 131.263 277.939 131.551 277.803 131.919C277.667 132.287 277.599 132.708 277.599 133.182C277.599 133.659 277.667 134.085 277.803 134.46C277.942 134.831 278.146 135.124 278.414 135.339C278.686 135.552 279.019 135.658 279.413 135.658Z" fill="#585959"/>
</g>
<rect x="14.4303" y="25" width="8" height="8" rx="4" fill="#D13838"/>
<rect x="16.4303" y="36.3334" width="4" height="20" rx="2" fill="#D13838"/>
<g clip-path="url(#clip2_1_444)">
<rect x="15.4303" y="60.6666" width="6" height="6" rx="3" stroke="#DBDBDB" stroke-width="2"/>
</g>
<rect x="16.4303" y="71" width="4" height="20" rx="2" fill="#DBDBDB"/>
<g clip-path="url(#clip3_1_444)">
<rect x="15.4303" y="95.3334" width="6" height="6" rx="3" stroke="#DBDBDB" stroke-width="2"/>
</g>
<rect x="16.4303" y="105.667" width="4" height="20" rx="2" fill="#DBDBDB"/>
<g clip-path="url(#clip4_1_444)">
<rect x="15.4303" y="130" width="6" height="6" rx="3" stroke="#DBDBDB" stroke-width="2"/>
</g>
</g>
<defs>
<filter id="filter0_ddd_1_444" x="-1.90735e-06" y="0" width="324.861" height="177.43" filterUnits="userSpaceOnUse" color-interpolation-filters="sRGB">
<feFlood flood-opacity="0" result="BackgroundImageFix"/>
<feColorMatrix in="SourceAlpha" type="matrix" values="0 0 0 0 0 0 0 0 0 0 0 0 0 0 0 0 0 0 127 0" result="hardAlpha"/>
<feMorphology radius="3.75" operator="erode" in="SourceAlpha" result="effect1_dropShadow_1_444"/>
<feOffset dx="5" dy="10"/>
<feGaussianBlur stdDeviation="5.59015"/>
<feComposite in2="hardAlpha" operator="out"/>
<feColorMatrix type="matrix" values="0 0 0 0 0 0 0 0 0 0 0 0 0 0 0 0 0 0 0.06 0"/>
<feBlend mode="normal" in2="BackgroundImageFix" result="effect1_dropShadow_1_444"/>
<feColorMatrix in="SourceAlpha" type="matrix" values="0 0 0 0 0 0 0 0 0 0 0 0 0 0 0 0 0 0 127 0" result="hardAlpha"/>
<feMorphology radius="2.5" operator="erode" in="SourceAlpha" result="effect2_dropShadow_1_444"/>
<feOffset dx="1.14427" dy="2.28853"/>
<feGaussianBlur stdDeviation="1.27933"/>
<feComposite in2="hardAlpha" operator="out"/>
<feColorMatrix type="matrix" values="0 0 0 0 0 0 0 0 0 0 0 0 0 0 0 0 0 0 0.16 0"/>
<feBlend mode="normal" in2="effect1_dropShadow_1_444" result="effect2_dropShadow_1_444"/>
<feColorMatrix in="SourceAlpha" type="matrix" values="0 0 0 0 0 0 0 0 0 0 0 0 0 0 0 0 0 0 127 0" result="hardAlpha"/>
<feMorphology radius="1.25" operator="erode" in="SourceAlpha" result="effect3_dropShadow_1_444"/>
<feOffset dx="0.301094" dy="0.602187"/>
<feGaussianBlur stdDeviation="0.336633"/>
<feComposite in2="hardAlpha" operator="out"/>
<feColorMatrix type="matrix" values="0 0 0 0 0 0 0 0 0 0 0 0 0 0 0 0 0 0 0.18 0"/>
<feBlend mode="normal" in2="effect2_dropShadow_1_444" result="effect3_dropShadow_1_444"/>
<feBlend mode="normal" in="SourceGraphic" in2="effect3_dropShadow_1_444" result="shape"/>
</filter>
<clipPath id="clip0_1_444">
<rect x="30.4303" y="12" width="266" height="37" rx="8" fill="white"/>
</clipPath>
<clipPath id="clip1_1_444">
<rect width="205" height="21" fill="white" transform="translate(42.4303 20)"/>
</clipPath>
<clipPath id="clip2_1_444">
<rect x="14.4303" y="59.6666" width="8" height="8" rx="4" fill="white"/>
</clipPath>
<clipPath id="clip3_1_444">
<rect x="14.4303" y="94.3334" width="8" height="8" rx="4" fill="white"/>
</clipPath>
<clipPath id="clip4_1_444">
<rect x="14.4303" y="129" width="8" height="8" rx="4" fill="white"/>
</clipPath>
</defs>
</svg>
