<svg shape-rendering="geometricPrecision" text-rendering="geometricPrecision" width="357" height="181" viewBox="0 0 357 181" fill="none" xmlns="http://www.w3.org/2000/svg">
<mask id="mask0_1_550" style="mask-type:alpha" maskUnits="userSpaceOnUse" x="0" y="0" width="357" height="181">
<rect width="357" height="181" fill="url(#paint0_radial_1_550)"/>
</mask>
<g mask="url(#mask0_1_550)">
<g style="mix-blend-mode:darken" opacity="0.15">
<g clip-path="url(#clip0_1_550)">
<path d="M151.25 63.25H205.75V117.75H151.25V63.25Z" fill="white"/>
<path d="M164.875 74.6041C165.477 74.6041 166.055 74.8434 166.481 75.2692C166.907 75.6951 167.146 76.2727 167.146 76.875C167.146 77.4772 166.907 78.0548 166.481 78.4807C166.055 78.9065 165.477 79.1458 164.875 79.1458C164.273 79.1458 163.695 78.9065 163.269 78.4807C162.843 78.0548 162.604 77.4772 162.604 76.875C162.604 76.2727 162.843 75.6951 163.269 75.2692C163.695 74.8434 164.273 74.6041 164.875 74.6041ZM164.875 101.854C165.477 101.854 166.055 102.093 166.481 102.519C166.907 102.945 167.146 103.523 167.146 104.125C167.146 104.727 166.907 105.305 166.481 105.731C166.055 106.157 165.477 106.396 164.875 106.396C164.273 106.396 163.695 106.157 163.269 105.731C162.843 105.305 162.604 104.727 162.604 104.125C162.604 103.523 162.843 102.945 163.269 102.519C163.695 102.093 164.273 101.854 164.875 101.854ZM192.125 101.854C192.727 101.854 193.305 102.093 193.731 102.519C194.157 102.945 194.396 103.523 194.396 104.125C194.396 104.727 194.157 105.305 193.731 105.731C193.305 106.157 192.727 106.396 192.125 106.396C191.523 106.396 190.945 106.157 190.519 105.731C190.093 105.305 189.854 104.727 189.854 104.125C189.854 103.523 190.093 102.945 190.519 102.519C190.945 102.093 191.523 101.854 192.125 101.854ZM192.125 74.6041C192.727 74.6041 193.305 74.8434 193.731 75.2692C194.157 75.6951 194.396 76.2727 194.396 76.875C194.396 77.4772 194.157 78.0548 193.731 78.4807C193.305 78.9065 192.727 79.1458 192.125 79.1458C191.523 79.1458 190.945 78.9065 190.519 78.4807C190.093 78.0548 189.854 77.4772 189.854 76.875C189.854 76.2727 190.093 75.6951 190.519 75.2692C190.945 74.8434 191.523 74.6041 192.125 74.6041Z" fill="black"/>
<g filter="url(#filter0_ddd_1_550)">
<g clip-path="url(#clip1_1_550)">
<rect x="120.165" y="57.91" width="48.6" height="48.6" rx="24.3" fill="url(#paint1_linear_1_550)"/>
<rect x="121.165" y="58.91" width="46.59" height="46.59" rx="23.295" stroke="white" stroke-opacity="0.2" stroke-width="2"/>
</g>
</g>
</g>
</g>
</g>
<g filter="url(#filter1_ddd_1_550)">
<g clip-path="url(#clip2_1_550)">
<rect x="150.165" y="66.91" width="48.6" height="48.6" rx="24.3" fill="url(#paint2_linear_1_550)"/>
<mask id="mask1_1_550" style="mask-type:alpha" maskUnits="userSpaceOnUse" x="161" y="78" width="27" height="27">
<g clip-path="url(#clip3_1_550)">
<g clip-path="url(#clip4_1_550)">
<path d="M180.84 93.9601C180.84 94.2568 180.752 94.5468 180.587 94.7934C180.422 95.0401 180.188 95.2324 179.914 95.3459C179.64 95.4594 179.338 95.4891 179.047 95.4313C178.756 95.3734 178.489 95.2305 178.279 95.0207C178.07 94.811 177.927 94.5437 177.869 94.2527C177.811 93.9617 177.841 93.6601 177.954 93.3861C178.068 93.112 178.26 92.8777 178.507 92.7129C178.753 92.5481 179.043 92.4601 179.34 92.4601C179.738 92.4601 180.119 92.6181 180.401 92.8994C180.682 93.1807 180.84 93.5623 180.84 93.9601ZM184.59 90.5851V98.0851C184.59 98.8807 184.274 99.6438 183.711 100.206C183.149 100.769 182.386 101.085 181.59 101.085H168.09C167.294 101.085 166.531 100.769 165.969 100.206C165.406 99.6438 165.09 98.8807 165.09 98.0851V86.9213C165.079 86.5202 165.148 86.1208 165.293 85.7468C165.439 85.3728 165.658 85.0318 165.938 84.744C166.217 84.4563 166.552 84.2275 166.922 84.0714C167.291 83.9153 167.689 83.8349 168.09 83.8351H180.465C180.763 83.8351 181.05 83.9536 181.261 84.1646C181.472 84.3756 181.59 84.6617 181.59 84.9601C181.59 85.2585 181.472 85.5446 181.261 85.7556C181.05 85.9666 180.763 86.0851 180.465 86.0851H168.09C167.989 86.085 167.89 86.1052 167.797 86.1444C167.705 86.1836 167.621 86.2411 167.551 86.3133C167.481 86.3855 167.426 86.4711 167.39 86.565C167.354 86.6588 167.337 86.7589 167.34 86.8595V86.867C167.356 87.0655 167.447 87.2506 167.595 87.3841C167.743 87.5176 167.936 87.5895 168.135 87.5851H181.59C182.386 87.5851 183.149 87.9012 183.711 88.4638C184.274 89.0264 184.59 89.7894 184.59 90.5851ZM182.34 90.5851C182.34 90.3862 182.261 90.1954 182.12 90.0548C181.98 89.9141 181.789 89.8351 181.59 89.8351H168.135C167.867 89.8352 167.6 89.8012 167.34 89.7338V98.0851C167.34 98.284 167.419 98.4748 167.56 98.6154C167.7 98.7561 167.891 98.8351 168.09 98.8351H181.59C181.789 98.8351 181.98 98.7561 182.12 98.6154C182.261 98.4748 182.34 98.284 182.34 98.0851V90.5851Z" fill="black"/>
</g>
</g>
</mask>
<g mask="url(#mask1_1_550)">
<rect x="161.465" y="78.2101" width="26" height="26" fill="white"/>
</g>
<rect x="147.165" y="63.91" width="55" height="55" rx="27.5" stroke="white" stroke-opacity="0.2" stroke-width="2"/>
</g>
</g>
<g filter="url(#filter2_ddd_1_550)">
<g clip-path="url(#clip5_1_550)">
<rect x="49.165" y="66.91" width="48.6" height="48.6" rx="24.3" fill="url(#paint3_linear_1_550)"/>
<mask id="mask2_1_550" style="mask-type:alpha" maskUnits="userSpaceOnUse" x="60" y="78" width="27" height="27">
<g clip-path="url(#clip6_1_550)">
<path d="M73.8875 90.0184C71.4284 89.3793 70.6375 88.7184 70.6375 87.6892C70.6375 86.5084 71.7317 85.6851 73.5625 85.6851C75.4909 85.6851 76.2059 86.6059 76.2709 87.9601H78.665C78.5892 86.0967 77.4517 84.3851 75.1875 83.8326V81.4601H71.9375V83.8001C69.8359 84.2551 68.1459 85.6201 68.1459 87.7109C68.1459 90.2134 70.215 91.4592 73.2375 92.1851C75.9459 92.8351 76.4875 93.7884 76.4875 94.7959C76.4875 95.5434 75.9567 96.7351 73.5625 96.7351C71.3309 96.7351 70.4534 95.7384 70.3342 94.4601H67.9509C68.0809 96.8326 69.8575 98.1651 71.9375 98.6093V100.96H75.1875V98.6309C77.3 98.2301 78.9792 97.0059 78.9792 94.7851C78.9792 91.7084 76.3467 90.6576 73.8875 90.0184Z" fill="black"/>
</g>
</mask>
<g mask="url(#mask2_1_550)">
<rect x="60.465" y="78.2101" width="26" height="26" fill="white"/>
</g>
<rect x="50.165" y="67.91" width="46.59" height="46.59" rx="23.295" stroke="white" stroke-opacity="0.2" stroke-width="2"/>
</g>
</g>
<g filter="url(#filter3_ddd_1_550)">
<g clip-path="url(#clip7_1_550)">
<rect x="249.165" y="66.91" width="48" height="48" rx="24" fill="url(#paint4_linear_1_550)"/>
<mask id="mask3_1_550" style="mask-type:alpha" maskUnits="userSpaceOnUse" x="260" y="77" width="27" height="27">
<g clip-path="url(#clip8_1_550)">
<path d="M273.165 78.9934L263.415 83.3267V89.8267C263.415 95.8392 267.575 101.462 273.165 102.827C278.755 101.462 282.915 95.8392 282.915 89.8267V83.3267L273.165 78.9934ZM273.165 90.8992H280.748C280.174 95.3626 277.195 99.3384 273.165 100.584V90.9101H265.582V84.7351L273.165 81.3659V90.8992Z" fill="black"/>
</g>
</mask>
<g mask="url(#mask3_1_550)">
<rect x="260.165" y="77.91" width="26" height="26" fill="white"/>
</g>
<rect x="250.165" y="67.91" width="46.59" height="46.59" rx="23.295" stroke="white" stroke-opacity="0.2" stroke-width="2"/>
</g>
</g>
<defs>
<filter id="filter0_ddd_1_550" x="108.309" y="54.0535" width="76.313" height="76.313" filterUnits="userSpaceOnUse" color-interpolation-filters="sRGB">
<feFlood flood-opacity="0" result="BackgroundImageFix"/>
<feColorMatrix in="SourceAlpha" type="matrix" values="0 0 0 0 0 0 0 0 0 0 0 0 0 0 0 0 0 0 127 0" result="hardAlpha"/>
<feMorphology radius="4.5" operator="erode" in="SourceAlpha" result="effect1_dropShadow_1_550"/>
<feOffset dx="2" dy="10"/>
<feGaussianBlur stdDeviation="9.17825"/>
<feComposite in2="hardAlpha" operator="out"/>
<feColorMatrix type="matrix" values="0 0 0 0 0 0 0 0 0 0 0 0 0 0 0 0 0 0 0.02 0"/>
<feBlend mode="normal" in2="BackgroundImageFix" result="effect1_dropShadow_1_550"/>
<feColorMatrix in="SourceAlpha" type="matrix" values="0 0 0 0 0 0 0 0 0 0 0 0 0 0 0 0 0 0 127 0" result="hardAlpha"/>
<feMorphology radius="3" operator="erode" in="SourceAlpha" result="effect2_dropShadow_1_550"/>
<feOffset dx="0.457707" dy="2.28853"/>
<feGaussianBlur stdDeviation="2.10047"/>
<feComposite in2="hardAlpha" operator="out"/>
<feColorMatrix type="matrix" values="0 0 0 0 0 0 0 0 0 0 0 0 0 0 0 0 0 0 0.18 0"/>
<feBlend mode="normal" in2="effect1_dropShadow_1_550" result="effect2_dropShadow_1_550"/>
<feColorMatrix in="SourceAlpha" type="matrix" values="0 0 0 0 0 0 0 0 0 0 0 0 0 0 0 0 0 0 127 0" result="hardAlpha"/>
<feMorphology radius="1.5" operator="erode" in="SourceAlpha" result="effect3_dropShadow_1_550"/>
<feOffset dx="0.120437" dy="0.602187"/>
<feGaussianBlur stdDeviation="0.5527"/>
<feComposite in2="hardAlpha" operator="out"/>
<feColorMatrix type="matrix" values="0 0 0 0 0 0 0 0 0 0 0 0 0 0 0 0 0 0 0.21 0"/>
<feBlend mode="normal" in2="effect2_dropShadow_1_550" result="effect3_dropShadow_1_550"/>
<feBlend mode="normal" in="SourceGraphic" in2="effect3_dropShadow_1_550" result="shape"/>
</filter>
<filter id="filter1_ddd_1_550" x="138.309" y="63.0535" width="76.313" height="76.313" filterUnits="userSpaceOnUse" color-interpolation-filters="sRGB">
<feFlood flood-opacity="0" result="BackgroundImageFix"/>
<feColorMatrix in="SourceAlpha" type="matrix" values="0 0 0 0 0 0 0 0 0 0 0 0 0 0 0 0 0 0 127 0" result="hardAlpha"/>
<feMorphology radius="4.5" operator="erode" in="SourceAlpha" result="effect1_dropShadow_1_550"/>
<feOffset dx="2" dy="10"/>
<feGaussianBlur stdDeviation="9.17825"/>
<feComposite in2="hardAlpha" operator="out"/>
<feColorMatrix type="matrix" values="0 0 0 0 0 0 0 0 0 0 0 0 0 0 0 0 0 0 0.02 0"/>
<feBlend mode="normal" in2="BackgroundImageFix" result="effect1_dropShadow_1_550"/>
<feColorMatrix in="SourceAlpha" type="matrix" values="0 0 0 0 0 0 0 0 0 0 0 0 0 0 0 0 0 0 127 0" result="hardAlpha"/>
<feMorphology radius="3" operator="erode" in="SourceAlpha" result="effect2_dropShadow_1_550"/>
<feOffset dx="0.457707" dy="2.28853"/>
<feGaussianBlur stdDeviation="2.10047"/>
<feComposite in2="hardAlpha" operator="out"/>
<feColorMatrix type="matrix" values="0 0 0 0 0 0 0 0 0 0 0 0 0 0 0 0 0 0 0.18 0"/>
<feBlend mode="normal" in2="effect1_dropShadow_1_550" result="effect2_dropShadow_1_550"/>
<feColorMatrix in="SourceAlpha" type="matrix" values="0 0 0 0 0 0 0 0 0 0 0 0 0 0 0 0 0 0 127 0" result="hardAlpha"/>
<feMorphology radius="1.5" operator="erode" in="SourceAlpha" result="effect3_dropShadow_1_550"/>
<feOffset dx="0.120437" dy="0.602187"/>
<feGaussianBlur stdDeviation="0.5527"/>
<feComposite in2="hardAlpha" operator="out"/>
<feColorMatrix type="matrix" values="0 0 0 0 0 0 0 0 0 0 0 0 0 0 0 0 0 0 0.21 0"/>
<feBlend mode="normal" in2="effect2_dropShadow_1_550" result="effect3_dropShadow_1_550"/>
<feBlend mode="normal" in="SourceGraphic" in2="effect3_dropShadow_1_550" result="shape"/>
</filter>
<filter id="filter2_ddd_1_550" x="37.3085" y="63.0535" width="76.313" height="76.313" filterUnits="userSpaceOnUse" color-interpolation-filters="sRGB">
<feFlood flood-opacity="0" result="BackgroundImageFix"/>
<feColorMatrix in="SourceAlpha" type="matrix" values="0 0 0 0 0 0 0 0 0 0 0 0 0 0 0 0 0 0 127 0" result="hardAlpha"/>
<feMorphology radius="4.5" operator="erode" in="SourceAlpha" result="effect1_dropShadow_1_550"/>
<feOffset dx="2" dy="10"/>
<feGaussianBlur stdDeviation="9.17825"/>
<feComposite in2="hardAlpha" operator="out"/>
<feColorMatrix type="matrix" values="0 0 0 0 0 0 0 0 0 0 0 0 0 0 0 0 0 0 0.02 0"/>
<feBlend mode="normal" in2="BackgroundImageFix" result="effect1_dropShadow_1_550"/>
<feColorMatrix in="SourceAlpha" type="matrix" values="0 0 0 0 0 0 0 0 0 0 0 0 0 0 0 0 0 0 127 0" result="hardAlpha"/>
<feMorphology radius="3" operator="erode" in="SourceAlpha" result="effect2_dropShadow_1_550"/>
<feOffset dx="0.457707" dy="2.28853"/>
<feGaussianBlur stdDeviation="2.10047"/>
<feComposite in2="hardAlpha" operator="out"/>
<feColorMatrix type="matrix" values="0 0 0 0 0 0 0 0 0 0 0 0 0 0 0 0 0 0 0.18 0"/>
<feBlend mode="normal" in2="effect1_dropShadow_1_550" result="effect2_dropShadow_1_550"/>
<feColorMatrix in="SourceAlpha" type="matrix" values="0 0 0 0 0 0 0 0 0 0 0 0 0 0 0 0 0 0 127 0" result="hardAlpha"/>
<feMorphology radius="1.5" operator="erode" in="SourceAlpha" result="effect3_dropShadow_1_550"/>
<feOffset dx="0.120437" dy="0.602187"/>
<feGaussianBlur stdDeviation="0.5527"/>
<feComposite in2="hardAlpha" operator="out"/>
<feColorMatrix type="matrix" values="0 0 0 0 0 0 0 0 0 0 0 0 0 0 0 0 0 0 0.21 0"/>
<feBlend mode="normal" in2="effect2_dropShadow_1_550" result="effect3_dropShadow_1_550"/>
<feBlend mode="normal" in="SourceGraphic" in2="effect3_dropShadow_1_550" result="shape"/>
</filter>
<filter id="filter3_ddd_1_550" x="237.309" y="63.0535" width="75.713" height="75.713" filterUnits="userSpaceOnUse" color-interpolation-filters="sRGB">
<feFlood flood-opacity="0" result="BackgroundImageFix"/>
<feColorMatrix in="SourceAlpha" type="matrix" values="0 0 0 0 0 0 0 0 0 0 0 0 0 0 0 0 0 0 127 0" result="hardAlpha"/>
<feMorphology radius="4.5" operator="erode" in="SourceAlpha" result="effect1_dropShadow_1_550"/>
<feOffset dx="2" dy="10"/>
<feGaussianBlur stdDeviation="9.17825"/>
<feComposite in2="hardAlpha" operator="out"/>
<feColorMatrix type="matrix" values="0 0 0 0 0 0 0 0 0 0 0 0 0 0 0 0 0 0 0.02 0"/>
<feBlend mode="normal" in2="BackgroundImageFix" result="effect1_dropShadow_1_550"/>
<feColorMatrix in="SourceAlpha" type="matrix" values="0 0 0 0 0 0 0 0 0 0 0 0 0 0 0 0 0 0 127 0" result="hardAlpha"/>
<feMorphology radius="3" operator="erode" in="SourceAlpha" result="effect2_dropShadow_1_550"/>
<feOffset dx="0.457707" dy="2.28853"/>
<feGaussianBlur stdDeviation="2.10047"/>
<feComposite in2="hardAlpha" operator="out"/>
<feColorMatrix type="matrix" values="0 0 0 0 0 0 0 0 0 0 0 0 0 0 0 0 0 0 0.18 0"/>
<feBlend mode="normal" in2="effect1_dropShadow_1_550" result="effect2_dropShadow_1_550"/>
<feColorMatrix in="SourceAlpha" type="matrix" values="0 0 0 0 0 0 0 0 0 0 0 0 0 0 0 0 0 0 127 0" result="hardAlpha"/>
<feMorphology radius="1.5" operator="erode" in="SourceAlpha" result="effect3_dropShadow_1_550"/>
<feOffset dx="0.120437" dy="0.602187"/>
<feGaussianBlur stdDeviation="0.5527"/>
<feComposite in2="hardAlpha" operator="out"/>
<feColorMatrix type="matrix" values="0 0 0 0 0 0 0 0 0 0 0 0 0 0 0 0 0 0 0.21 0"/>
<feBlend mode="normal" in2="effect2_dropShadow_1_550" result="effect3_dropShadow_1_550"/>
<feBlend mode="normal" in="SourceGraphic" in2="effect3_dropShadow_1_550" result="shape"/>
</filter>
<radialGradient id="paint0_radial_1_550" cx="0" cy="0" r="1" gradientUnits="userSpaceOnUse" gradientTransform="translate(178.5 90.5) scale(178.5 90.5)">
<stop offset="0.22973" stop-opacity="0"/>
<stop offset="0.635135"/>
<stop offset="1" stop-opacity="0"/>
</radialGradient>
<linearGradient id="paint1_linear_1_550" x1="144.465" y1="57.91" x2="144.465" y2="106.51" gradientUnits="userSpaceOnUse">
<stop stop-color="#D13838"/>
<stop offset="1" stop-color="#D60000"/>
</linearGradient>
<linearGradient id="paint2_linear_1_550" x1="174.465" y1="66.91" x2="174.465" y2="115.51" gradientUnits="userSpaceOnUse">
<stop stop-color="#379E2D"/>
<stop offset="1" stop-color="#13D100"/>
</linearGradient>
<linearGradient id="paint3_linear_1_550" x1="73.465" y1="66.91" x2="73.465" y2="115.51" gradientUnits="userSpaceOnUse">
<stop stop-color="#D13838"/>
<stop offset="1" stop-color="#D60000"/>
</linearGradient>
<linearGradient id="paint4_linear_1_550" x1="273.165" y1="66.91" x2="273.165" y2="114.91" gradientUnits="userSpaceOnUse">
<stop stop-color="#F90105"/>
<stop offset="1" stop-color="#CF0000"/>
</linearGradient>
<clipPath id="clip0_1_550">
<rect width="54.5" height="54.5" fill="white" transform="translate(151.25 63.25)"/>
</clipPath>
<clipPath id="clip1_1_550">
<rect x="120.165" y="57.91" width="48.6" height="48.6" rx="24.3" fill="white"/>
</clipPath>
<clipPath id="clip2_1_550">
<rect x="150.165" y="66.91" width="48.6" height="48.6" rx="24.3" fill="white"/>
</clipPath>
<clipPath id="clip3_1_550">
<rect width="26" height="26" fill="white" transform="translate(161.465 78.2101)"/>
</clipPath>
<clipPath id="clip4_1_550">
<rect width="26" height="26" fill="white" transform="translate(161.465 78.2101)"/>
</clipPath>
<clipPath id="clip5_1_550">
<rect x="49.165" y="66.91" width="48.6" height="48.6" rx="24.3" fill="white"/>
</clipPath>
<clipPath id="clip6_1_550">
<rect width="26" height="26" fill="white" transform="translate(60.465 78.2101)"/>
</clipPath>
<clipPath id="clip7_1_550">
<rect x="249.165" y="66.91" width="48" height="48" rx="24" fill="white"/>
</clipPath>
<clipPath id="clip8_1_550">
<rect width="26" height="26" fill="white" transform="translate(260.165 77.91)"/>
</clipPath>
</defs>
</svg>
