<svg shape-rendering="geometricPrecision" text-rendering="geometricPrecision" width="316" height="160" viewBox="0 0 316 160" fill="none" xmlns="http://www.w3.org/2000/svg">
<g clip-path="url(#clip0_1_502)">
<g filter="url(#filter0_ddd_1_502)">
<g clip-path="url(#clip1_1_502)">
<rect y="17" width="283.8" height="37" rx="10" fill="white"/>
<g clip-path="url(#clip2_1_502)">
<g clip-path="url(#clip3_1_502)">
<rect x="8" y="25.5" width="20" height="20" rx="10" fill="white"/>
<rect x="8.5" y="26" width="19" height="19" rx="9.5" stroke="#D6D6D6"/>
</g>
<path d="M39.1122 41L36.2884 30.8182H37.9041L39.8878 38.7031H39.9822L42.0455 30.8182H43.6463L45.7095 38.7081H45.804L47.7827 30.8182H49.4034L46.5746 41H45.0284L42.8857 33.3736H42.8061L40.6634 41H39.1122ZM51.8752 41.169C51.3913 41.169 50.9538 41.0795 50.5627 40.9006C50.1716 40.7183 49.8617 40.4548 49.633 40.1101C49.4076 39.7654 49.2949 39.3428 49.2949 38.8423C49.2949 38.4115 49.3778 38.0568 49.5435 37.7784C49.7092 37.5 49.933 37.2796 50.2147 37.1172C50.4964 36.9548 50.8113 36.8321 51.1593 36.7493C51.5073 36.6664 51.8619 36.6035 52.2232 36.5604C52.6806 36.5073 53.0518 36.4643 53.3368 36.4311C53.6219 36.3946 53.829 36.3366 53.9583 36.2571C54.0875 36.1776 54.1522 36.0483 54.1522 35.8693V35.8345C54.1522 35.4003 54.0295 35.0639 53.7843 34.8253C53.5423 34.5866 53.1811 34.4673 52.7005 34.4673C52.2 34.4673 51.8056 34.5784 51.5172 34.8004C51.2322 35.0192 51.035 35.2628 50.9256 35.5312L49.5286 35.2131C49.6943 34.7491 49.9363 34.3745 50.2544 34.0895C50.5759 33.8011 50.9455 33.5923 51.3631 33.4631C51.7807 33.3305 52.2199 33.2642 52.6806 33.2642C52.9855 33.2642 53.3087 33.3007 53.65 33.3736C53.9947 33.4432 54.3162 33.5724 54.6145 33.7614C54.9161 33.9503 55.1631 34.2204 55.3553 34.5717C55.5475 34.9197 55.6437 35.3722 55.6437 35.929V41H54.1919V39.956H54.1323C54.0362 40.1482 53.892 40.3371 53.6998 40.5227C53.5075 40.7083 53.2606 40.8625 52.959 40.9851C52.6574 41.1077 52.2961 41.169 51.8752 41.169ZM52.1983 39.9759C52.6093 39.9759 52.9606 39.8946 53.2523 39.7322C53.5473 39.5698 53.771 39.3577 53.9235 39.0959C54.0793 38.8307 54.1571 38.5473 54.1571 38.2457V37.2614C54.1041 37.3144 54.0014 37.3641 53.8489 37.4105C53.6998 37.4536 53.5291 37.4917 53.3368 37.5249C53.1446 37.5547 52.9573 37.5829 52.775 37.6094C52.5928 37.6326 52.4403 37.6525 52.3177 37.669C52.0293 37.7055 51.7658 37.7668 51.5272 37.853C51.2919 37.9392 51.1029 38.0634 50.9604 38.2259C50.8212 38.3849 50.7516 38.5971 50.7516 38.8622C50.7516 39.2301 50.8875 39.5085 51.1593 39.6974C51.4311 39.883 51.7774 39.9759 52.1983 39.9759ZM60.9082 33.3636V34.5568H56.7371V33.3636H60.9082ZM57.8557 31.5341H59.3422V38.7578C59.3422 39.0462 59.3853 39.2633 59.4714 39.4091C59.5576 39.5516 59.6686 39.6494 59.8045 39.7024C59.9437 39.7521 60.0945 39.777 60.2569 39.777C60.3763 39.777 60.4807 39.7687 60.5701 39.7521C60.6596 39.7356 60.7292 39.7223 60.779 39.7124L61.0474 40.9403C60.9612 40.9735 60.8386 41.0066 60.6795 41.0398C60.5204 41.0762 60.3216 41.0961 60.0829 41.0994C59.6918 41.1061 59.3273 41.0365 58.9892 40.8906C58.6511 40.7448 58.3777 40.5194 58.1689 40.2145C57.9601 39.9096 57.8557 39.5268 57.8557 39.0661V31.5341ZM65.4817 41.1541C64.7294 41.1541 64.0814 40.9934 63.5378 40.6719C62.9976 40.3471 62.58 39.8913 62.285 39.3047C61.9933 38.7147 61.8475 38.0237 61.8475 37.2315C61.8475 36.4493 61.9933 35.7599 62.285 35.1634C62.58 34.5668 62.991 34.1011 63.518 33.7663C64.0483 33.4316 64.668 33.2642 65.3773 33.2642C65.8082 33.2642 66.2258 33.3355 66.6302 33.478C67.0345 33.6205 67.3975 33.8442 67.7189 34.1491C68.0404 34.4541 68.294 34.8501 68.4796 35.3374C68.6652 35.8213 68.758 36.4096 68.758 37.1023V37.6293H62.6877V36.5156H67.3013C67.3013 36.1245 67.2218 35.7782 67.0627 35.4766C66.9036 35.1716 66.6799 34.9313 66.3915 34.7557C66.1065 34.58 65.7717 34.4922 65.3873 34.4922C64.9697 34.4922 64.6051 34.5949 64.2935 34.8004C63.9853 35.0026 63.7466 35.2678 63.5776 35.5959C63.4119 35.9207 63.329 36.2737 63.329 36.6548V37.5249C63.329 38.0353 63.4185 38.4695 63.5975 38.8274C63.7798 39.1854 64.0333 39.4588 64.3582 39.6477C64.683 39.8333 65.0625 39.9261 65.4966 39.9261C65.7784 39.9261 66.0352 39.8864 66.2672 39.8068C66.4993 39.724 66.6998 39.6013 66.8688 39.4389C67.0378 39.2765 67.1671 39.076 67.2566 38.8374L68.6636 39.0909C68.5509 39.5052 68.3487 39.8681 68.057 40.1797C67.7687 40.4879 67.4057 40.7282 66.9682 40.9006C66.5341 41.0696 66.0386 41.1541 65.4817 41.1541ZM70.1273 41V33.3636H71.5641V34.5767H71.6437C71.7829 34.1657 72.0281 33.8426 72.3795 33.6072C72.7341 33.3686 73.1352 33.2493 73.5826 33.2493C73.6754 33.2493 73.7848 33.2526 73.9107 33.2592C74.04 33.2659 74.1411 33.2741 74.214 33.2841V34.706C74.1543 34.6894 74.0483 34.6712 73.8958 34.6513C73.7433 34.6281 73.5909 34.6165 73.4384 34.6165C73.0871 34.6165 72.7739 34.6911 72.4988 34.8402C72.227 34.986 72.0116 35.1899 71.8525 35.4517C71.6934 35.7102 71.6138 36.0052 71.6138 36.3366V41H70.1273Z" fill="#585959"/>
</g>
<path d="M189.846 30.8182V41H188.002V32.6129H187.942L185.561 34.1342V32.4439L188.091 30.8182H189.846ZM192.151 41V39.6676L195.686 36.2024C196.024 35.861 196.306 35.5578 196.531 35.2926C196.757 35.0275 196.926 34.7706 197.038 34.522C197.151 34.2734 197.207 34.0083 197.207 33.7266C197.207 33.4051 197.135 33.13 196.989 32.9013C196.843 32.6693 196.642 32.4903 196.387 32.3643C196.132 32.2384 195.842 32.1754 195.517 32.1754C195.182 32.1754 194.889 32.245 194.637 32.3842C194.385 32.5201 194.19 32.714 194.051 32.9659C193.915 33.2178 193.847 33.5178 193.847 33.8658H192.092C192.092 33.2195 192.239 32.6577 192.534 32.1804C192.829 31.7031 193.235 31.3336 193.752 31.0717C194.273 30.8099 194.869 30.679 195.542 30.679C196.225 30.679 196.825 30.8066 197.342 31.0618C197.859 31.317 198.26 31.6667 198.545 32.1108C198.833 32.5549 198.977 33.062 198.977 33.6321C198.977 34.0133 198.904 34.3878 198.759 34.7557C198.613 35.1236 198.356 35.5312 197.988 35.9787C197.623 36.4261 197.111 36.968 196.452 37.6044L194.697 39.3892V39.4588H199.131V41H192.151ZM202.7 39.608L202.635 40.1548C202.588 40.5724 202.506 40.9967 202.386 41.4276C202.27 41.8617 202.148 42.2611 202.018 42.6257C201.889 42.9903 201.785 43.277 201.705 43.4858H200.492C200.539 43.2836 200.601 43.0085 200.681 42.6605C200.764 42.3125 200.843 41.9214 200.92 41.4872C200.996 41.053 201.047 40.6122 201.074 40.1648L201.109 39.608H202.7ZM207.783 41.1939C206.964 41.1939 206.261 40.9867 205.675 40.5724C205.091 40.1548 204.642 39.5533 204.327 38.7678C204.016 37.9789 203.86 37.0294 203.86 35.919C203.863 34.8087 204.021 33.8641 204.332 33.0852C204.647 32.303 205.096 31.7064 205.68 31.2955C206.266 30.8845 206.967 30.679 207.783 30.679C208.598 30.679 209.299 30.8845 209.886 31.2955C210.472 31.7064 210.921 32.303 211.233 33.0852C211.548 33.8674 211.705 34.812 211.705 35.919C211.705 37.0327 211.548 37.9839 211.233 38.7727C210.921 39.5582 210.472 40.1581 209.886 40.5724C209.302 40.9867 208.601 41.1939 207.783 41.1939ZM207.783 39.6378C208.419 39.6378 208.921 39.3246 209.289 38.6982C209.66 38.0684 209.846 37.142 209.846 35.919C209.846 35.1103 209.761 34.4309 209.592 33.8807C209.423 33.3305 209.185 32.9162 208.876 32.6378C208.568 32.3561 208.204 32.2152 207.783 32.2152C207.15 32.2152 206.649 32.5301 206.281 33.1598C205.913 33.7862 205.728 34.706 205.724 35.919C205.721 36.7311 205.802 37.4138 205.968 37.9673C206.137 38.5208 206.376 38.9384 206.684 39.2202C206.992 39.4986 207.358 39.6378 207.783 39.6378ZM216.84 41.1939C216.022 41.1939 215.319 40.9867 214.733 40.5724C214.149 40.1548 213.7 39.5533 213.385 38.7678C213.074 37.9789 212.918 37.0294 212.918 35.919C212.921 34.8087 213.079 33.8641 213.39 33.0852C213.705 32.303 214.154 31.7064 214.738 31.2955C215.324 30.8845 216.025 30.679 216.84 30.679C217.656 30.679 218.357 30.8845 218.943 31.2955C219.53 31.7064 219.979 32.303 220.291 33.0852C220.606 33.8674 220.763 34.812 220.763 35.919C220.763 37.0327 220.606 37.9839 220.291 38.7727C219.979 39.5582 219.53 40.1581 218.943 40.5724C218.36 40.9867 217.659 41.1939 216.84 41.1939ZM216.84 39.6378C217.477 39.6378 217.979 39.3246 218.347 38.6982C218.718 38.0684 218.904 37.142 218.904 35.919C218.904 35.1103 218.819 34.4309 218.65 33.8807C218.481 33.3305 218.242 32.9162 217.934 32.6378C217.626 32.3561 217.261 32.2152 216.84 32.2152C216.207 32.2152 215.707 32.5301 215.339 33.1598C214.971 33.7862 214.786 34.706 214.782 35.919C214.779 36.7311 214.86 37.4138 215.026 37.9673C215.195 38.5208 215.434 38.9384 215.742 39.2202C216.05 39.4986 216.416 39.6378 216.84 39.6378ZM225.898 41.1939C225.08 41.1939 224.377 40.9867 223.79 40.5724C223.207 40.1548 222.758 39.5533 222.443 38.7678C222.132 37.9789 221.976 37.0294 221.976 35.919C221.979 34.8087 222.137 33.8641 222.448 33.0852C222.763 32.303 223.212 31.7064 223.795 31.2955C224.382 30.8845 225.083 30.679 225.898 30.679C226.714 30.679 227.415 30.8845 228.001 31.2955C228.588 31.7064 229.037 32.303 229.349 33.0852C229.664 33.8674 229.821 34.812 229.821 35.919C229.821 37.0327 229.664 37.9839 229.349 38.7727C229.037 39.5582 228.588 40.1581 228.001 40.5724C227.418 40.9867 226.717 41.1939 225.898 41.1939ZM225.898 39.6378C226.535 39.6378 227.037 39.3246 227.405 38.6982C227.776 38.0684 227.962 37.142 227.962 35.919C227.962 35.1103 227.877 34.4309 227.708 33.8807C227.539 33.3305 227.3 32.9162 226.992 32.6378C226.684 32.3561 226.319 32.2152 225.898 32.2152C225.265 32.2152 224.765 32.5301 224.397 33.1598C224.029 33.7862 223.843 34.706 223.84 35.919C223.837 36.7311 223.918 37.4138 224.084 37.9673C224.253 38.5208 224.491 38.9384 224.8 39.2202C225.108 39.4986 225.474 39.6378 225.898 39.6378ZM238.219 33.3636V34.7557H233.829V33.3636H238.219ZM234.912 31.5341H236.712V38.7031C236.712 38.9451 236.749 39.1307 236.822 39.2599C236.898 39.3859 236.997 39.4721 237.12 39.5185C237.242 39.5649 237.378 39.5881 237.527 39.5881C237.64 39.5881 237.743 39.5798 237.836 39.5632C237.932 39.5466 238.005 39.5317 238.054 39.5185L238.358 40.9254C238.262 40.9586 238.124 40.995 237.945 41.0348C237.769 41.0746 237.554 41.0978 237.299 41.1044C236.848 41.1177 236.442 41.0497 236.081 40.9006C235.719 40.7481 235.433 40.5128 235.221 40.1946C235.012 39.8764 234.909 39.4787 234.912 39.0014V31.5341ZM239.344 41V39.8565L243.282 34.9197V34.8551H239.474V33.3636H245.484V34.5916L241.736 39.4439V39.5085H245.613V41H239.344ZM253.061 35.3821L251.42 35.5611C251.374 35.3954 251.292 35.2396 251.176 35.0938C251.064 34.9479 250.911 34.8303 250.719 34.7408C250.527 34.6513 250.291 34.6065 250.013 34.6065C249.638 34.6065 249.324 34.6877 249.068 34.8501C248.816 35.0125 248.692 35.223 248.695 35.4815C248.692 35.7036 248.773 35.8842 248.939 36.0234C249.108 36.1626 249.387 36.277 249.774 36.3665L251.077 36.6449C251.799 36.8007 252.336 37.0476 252.688 37.3857C253.042 37.7237 253.221 38.1662 253.225 38.7131C253.221 39.1937 253.08 39.6179 252.802 39.9858C252.527 40.3504 252.144 40.6354 251.654 40.8409C251.163 41.0464 250.6 41.1491 249.963 41.1491C249.029 41.1491 248.276 40.9536 247.706 40.5625C247.136 40.1681 246.796 39.6196 246.687 38.9169L248.442 38.7479C248.521 39.0926 248.69 39.3527 248.949 39.5284C249.208 39.7041 249.544 39.7919 249.958 39.7919C250.386 39.7919 250.729 39.7041 250.987 39.5284C251.249 39.3527 251.38 39.1357 251.38 38.8771C251.38 38.6584 251.296 38.4777 251.127 38.3352C250.961 38.1927 250.702 38.0833 250.351 38.0071L249.048 37.7337C248.316 37.5812 247.774 37.3243 247.423 36.9631C247.071 36.5985 246.897 36.1378 246.901 35.581C246.897 35.1103 247.025 34.7027 247.284 34.358C247.545 34.0099 247.908 33.7415 248.372 33.5526C248.84 33.3603 249.378 33.2642 249.988 33.2642C250.883 33.2642 251.587 33.4548 252.101 33.8359C252.618 34.2171 252.938 34.7325 253.061 35.3821ZM258.585 30.3409L255.304 42.5312H253.728L257.009 30.3409H258.585ZM259.453 41V33.3636H261.173V34.6612H261.263C261.422 34.2237 261.686 33.8823 262.053 33.6371C262.421 33.3885 262.86 33.2642 263.371 33.2642C263.888 33.2642 264.324 33.3902 264.678 33.642C265.036 33.8906 265.288 34.2304 265.434 34.6612H265.514C265.683 34.237 265.968 33.8989 266.369 33.647C266.773 33.3918 267.252 33.2642 267.806 33.2642C268.508 33.2642 269.082 33.4863 269.526 33.9304C269.97 34.3745 270.192 35.0225 270.192 35.8743V41H268.387V36.1527C268.387 35.6787 268.261 35.3324 268.009 35.1136C267.758 34.8916 267.449 34.7805 267.085 34.7805C266.651 34.7805 266.311 34.9164 266.066 35.1882C265.824 35.4567 265.703 35.8063 265.703 36.2372V41H263.938V36.0781C263.938 35.6837 263.818 35.3688 263.58 35.1335C263.344 34.8982 263.036 34.7805 262.655 34.7805C262.396 34.7805 262.161 34.8468 261.949 34.9794C261.737 35.1087 261.568 35.2926 261.442 35.5312C261.316 35.7666 261.253 36.0417 261.253 36.3565V41H259.453Z" fill="#585959"/>
<rect x="0.5" y="17.5" width="282.8" height="36" rx="9.5" stroke="#E8E8E8"/>
</g>
</g>
<g filter="url(#filter1_ddd_1_502)">
<g clip-path="url(#clip4_1_502)">
<rect x="31.52" y="61.5" width="283.85" height="37.0029" rx="10" fill="#DEF2FF"/>
<g clip-path="url(#clip5_1_502)">
<rect x="39.52" y="70.0015" width="20" height="20" rx="10" fill="#D13838"/>
<mask id="mask0_1_502" style="mask-type:alpha" maskUnits="userSpaceOnUse" x="41" y="72" width="17" height="17">
<g clip-path="url(#clip6_1_502)">
<path d="M47.3833 82.5848L44.6033 79.8048L43.6567 80.7448L47.3833 84.4715L55.3833 76.4715L54.4433 75.5315L47.3833 82.5848Z" fill="black"/>
</g>
</mask>
<g mask="url(#mask0_1_502)">
<rect x="41.52" y="72.0015" width="16" height="16" fill="white"/>
</g>
<path d="M68.5343 85.5015V75.3196H75.1564V76.8658H70.3787V79.63H74.8134V81.1762H70.3787V83.9553H75.1962V85.5015H68.5343ZM78.4783 75.3196V85.5015H76.6786V75.3196H78.4783ZM83.4296 85.6506C82.664 85.6506 82.0027 85.4915 81.4459 85.1733C80.8924 84.8518 80.4665 84.3978 80.1682 83.8111C79.8699 83.2212 79.7208 82.5268 79.7208 81.728C79.7208 80.9425 79.8699 80.2531 80.1682 79.6598C80.4698 79.0633 80.8908 78.5992 81.431 78.2678C81.9713 77.933 82.606 77.7657 83.3351 77.7657C83.8058 77.7657 84.2499 77.8419 84.6675 77.9944C85.0884 78.1435 85.4597 78.3755 85.7812 78.6904C86.106 79.0053 86.3612 79.4063 86.5468 79.8935C86.7324 80.3774 86.8252 80.9541 86.8252 81.6236V82.1755H80.566V80.9624H85.1C85.0967 80.6177 85.0222 80.3111 84.8763 80.0427C84.7305 79.7709 84.5267 79.5571 84.2648 79.4013C84.0063 79.2455 83.7047 79.1677 83.36 79.1677C82.9921 79.1677 82.6689 79.2571 82.3905 79.4361C82.1121 79.6118 81.895 79.8438 81.7393 80.1321C81.5868 80.4172 81.5089 80.7304 81.5056 81.0718V82.1307C81.5056 82.5749 81.5868 82.956 81.7492 83.2742C81.9116 83.5891 82.1386 83.831 82.4303 84C82.722 84.1658 83.0634 84.2486 83.4545 84.2486C83.7163 84.2486 83.9533 84.2122 84.1654 84.1392C84.3775 84.063 84.5615 83.952 84.7172 83.8062C84.873 83.6603 84.9907 83.4797 85.0702 83.2642L86.7506 83.4532C86.6446 83.8973 86.4424 84.2851 86.1441 84.6165C85.8491 84.9446 85.4713 85.1999 85.0106 85.3821C84.5499 85.5611 84.0229 85.6506 83.4296 85.6506ZM91.3987 85.6506C90.6363 85.6506 89.9818 85.4832 89.4349 85.1485C88.8913 84.8137 88.472 84.3514 88.1771 83.7614C87.8854 83.1681 87.7396 82.4854 87.7396 81.7131C87.7396 80.9375 87.8887 80.2531 88.187 79.6598C88.4853 79.0633 88.9062 78.5992 89.4498 78.2678C89.9967 77.933 90.643 77.7657 91.3887 77.7657C92.0085 77.7657 92.557 77.88 93.0343 78.1087C93.5149 78.3341 93.8977 78.6539 94.1827 79.0682C94.4678 79.4792 94.6302 79.9598 94.67 80.51H92.9498C92.8802 80.1421 92.7145 79.8355 92.4526 79.5902C92.1941 79.3417 91.8478 79.2174 91.4136 79.2174C91.0457 79.2174 90.7225 79.3168 90.4441 79.5157C90.1657 79.7112 89.9486 79.9929 89.7928 80.3608C89.6404 80.7287 89.5641 81.1696 89.5641 81.6833C89.5641 82.2036 89.6404 82.6511 89.7928 83.0256C89.9453 83.3968 90.1591 83.6835 90.4342 83.8857C90.7126 84.0846 91.039 84.184 91.4136 84.184C91.6787 84.184 91.9157 84.1343 92.1245 84.0348C92.3366 83.9321 92.5139 83.7846 92.6565 83.5924C92.799 83.4001 92.8968 83.1665 92.9498 82.8914H94.67C94.6269 83.4316 94.4678 83.9106 94.1927 84.3282C93.9176 84.7425 93.5431 85.0673 93.0691 85.3026C92.5952 85.5346 92.0383 85.6506 91.3987 85.6506ZM99.6809 77.8651V79.2571H95.291V77.8651H99.6809ZM96.3748 76.0356H98.1745V83.2046C98.1745 83.4465 98.211 83.6321 98.2839 83.7614C98.3601 83.8874 98.4596 83.9735 98.5822 84.0199C98.7048 84.0663 98.8407 84.0895 98.9899 84.0895C99.1026 84.0895 99.2053 84.0812 99.2981 84.0647C99.3942 84.0481 99.4671 84.0332 99.5169 84.0199L99.8201 85.4269C99.724 85.46 99.5865 85.4965 99.4075 85.5363C99.2318 85.576 99.0164 85.5992 98.7612 85.6059C98.3104 85.6191 97.9044 85.5512 97.5431 85.402C97.1819 85.2496 96.8952 85.0142 96.6831 84.6961C96.4743 84.3779 96.3715 83.9802 96.3748 83.5029V76.0356ZM100.906 85.5015V77.8651H102.651V79.1378H102.731C102.87 78.697 103.108 78.3573 103.447 78.1187C103.788 77.8767 104.177 77.7557 104.615 77.7557C104.714 77.7557 104.825 77.7607 104.948 77.7706C105.074 77.7773 105.178 77.7889 105.261 77.8054V79.461C105.185 79.4345 105.064 79.4113 104.898 79.3914C104.736 79.3682 104.578 79.3566 104.426 79.3566C104.098 79.3566 103.803 79.4278 103.541 79.5704C103.282 79.7096 103.079 79.9035 102.929 80.152C102.78 80.4006 102.706 80.6873 102.706 81.0121V85.5015H100.906ZM106.177 85.5015V77.8651H107.976V85.5015H106.177ZM107.082 76.7813C106.797 76.7813 106.551 76.6868 106.346 76.4979C106.14 76.3057 106.038 76.0753 106.038 75.8069C106.038 75.5351 106.14 75.3047 106.346 75.1158C106.551 74.9236 106.797 74.8275 107.082 74.8275C107.37 74.8275 107.615 74.9236 107.817 75.1158C108.023 75.3047 108.126 75.5351 108.126 75.8069C108.126 76.0753 108.023 76.3057 107.817 76.4979C107.615 76.6868 107.37 76.7813 107.082 76.7813ZM112.878 85.6506C112.116 85.6506 111.461 85.4832 110.914 85.1485C110.371 84.8137 109.951 84.3514 109.656 83.7614C109.365 83.1681 109.219 82.4854 109.219 81.7131C109.219 80.9375 109.368 80.2531 109.666 79.6598C109.965 79.0633 110.386 78.5992 110.929 78.2678C111.476 77.933 112.122 77.7657 112.868 77.7657C113.488 77.7657 114.036 77.88 114.514 78.1087C114.994 78.3341 115.377 78.6539 115.662 79.0682C115.947 79.4792 116.11 79.9598 116.149 80.51H114.429C114.36 80.1421 114.194 79.8355 113.932 79.5902C113.674 79.3417 113.327 79.2174 112.893 79.2174C112.525 79.2174 112.202 79.3168 111.924 79.5157C111.645 79.7112 111.428 79.9929 111.272 80.3608C111.12 80.7287 111.044 81.1696 111.044 81.6833C111.044 82.2036 111.12 82.6511 111.272 83.0256C111.425 83.3968 111.638 83.6835 111.914 83.8857C112.192 84.0846 112.518 84.184 112.893 84.184C113.158 84.184 113.395 84.1343 113.604 84.0348C113.816 83.9321 113.993 83.7846 114.136 83.5924C114.278 83.4001 114.376 83.1665 114.429 82.8914H116.149C116.106 83.4316 115.947 83.9106 115.672 84.3282C115.397 84.7425 115.022 85.0673 114.549 85.3026C114.075 85.5346 113.518 85.6506 112.878 85.6506ZM117.347 85.5015V77.8651H119.147V85.5015H117.347ZM118.252 76.7813C117.967 76.7813 117.722 76.6868 117.516 76.4979C117.311 76.3057 117.208 76.0753 117.208 75.8069C117.208 75.5351 117.311 75.3047 117.516 75.1158C117.722 74.9236 117.967 74.8275 118.252 74.8275C118.54 74.8275 118.786 74.9236 118.988 75.1158C119.193 75.3047 119.296 75.5351 119.296 75.8069C119.296 76.0753 119.193 76.3057 118.988 76.4979C118.786 76.6868 118.54 76.7813 118.252 76.7813ZM124.531 77.8651V79.2571H120.141V77.8651H124.531ZM121.225 76.0356H123.024V83.2046C123.024 83.4465 123.061 83.6321 123.134 83.7614C123.21 83.8874 123.309 83.9735 123.432 84.0199C123.555 84.0663 123.69 84.0895 123.84 84.0895C123.952 84.0895 124.055 84.0812 124.148 84.0647C124.244 84.0481 124.317 84.0332 124.367 84.0199L124.67 85.4269C124.574 85.46 124.436 85.4965 124.257 85.5363C124.082 85.576 123.866 85.5992 123.611 85.6059C123.16 85.6191 122.754 85.5512 122.393 85.402C122.032 85.2496 121.745 85.0142 121.533 84.6961C121.324 84.3779 121.221 83.9802 121.225 83.5029V76.0356ZM126.874 88.3651C126.629 88.3651 126.402 88.3452 126.193 88.3054C125.988 88.269 125.824 88.2259 125.701 88.1762L126.119 86.7742C126.381 86.8504 126.614 86.8869 126.82 86.8836C127.025 86.8803 127.206 86.8156 127.362 86.6897C127.521 86.567 127.655 86.3616 127.764 86.0732L127.918 85.6606L125.149 77.8651H127.058L128.818 83.6321H128.898L130.663 77.8651H132.577L129.519 86.4262C129.377 86.8305 129.188 87.1769 128.953 87.4652C128.717 87.7569 128.429 87.979 128.087 88.1314C127.749 88.2872 127.345 88.3651 126.874 88.3651Z" fill="#1A0E12"/>
</g>
<path d="M215.275 85.5015V84.1691L218.81 80.7039C219.148 80.3625 219.429 80.0592 219.655 79.7941C219.88 79.5289 220.049 79.2721 220.162 79.0235C220.275 78.7749 220.331 78.5098 220.331 78.228C220.331 77.9065 220.258 77.6314 220.112 77.4027C219.966 77.1707 219.766 76.9918 219.511 76.8658C219.255 76.7399 218.965 76.6769 218.641 76.6769C218.306 76.6769 218.013 76.7465 217.761 76.8857C217.509 77.0216 217.313 77.2155 217.174 77.4674C217.038 77.7193 216.97 78.0192 216.97 78.3672H215.215C215.215 77.7209 215.363 77.1591 215.658 76.6819C215.953 76.2046 216.359 75.835 216.876 75.5732C217.396 75.3114 217.993 75.1804 218.665 75.1804C219.348 75.1804 219.948 75.308 220.465 75.5633C220.982 75.8185 221.383 76.1681 221.668 76.6123C221.957 77.0564 222.101 77.5635 222.101 78.1336C222.101 78.5147 222.028 78.8892 221.882 79.2571C221.736 79.625 221.479 80.0327 221.112 80.4802C220.747 80.9276 220.235 81.4695 219.575 82.1059L217.82 83.8907V83.9603H222.255V85.5015H215.275ZM227.454 85.6954C226.635 85.6954 225.932 85.4882 225.346 85.0739C224.762 84.6563 224.313 84.0547 223.998 83.2692C223.687 82.4804 223.531 81.5308 223.531 80.4205C223.534 79.3102 223.692 78.3656 224.003 77.5867C224.318 76.8045 224.767 76.2079 225.351 75.7969C225.937 75.3859 226.638 75.1804 227.454 75.1804C228.269 75.1804 228.97 75.3859 229.557 75.7969C230.143 76.2079 230.592 76.8045 230.904 77.5867C231.219 78.3689 231.376 79.3135 231.376 80.4205C231.376 81.5341 231.219 82.4854 230.904 83.2742C230.592 84.0597 230.143 84.6596 229.557 85.0739C228.973 85.4882 228.272 85.6954 227.454 85.6954ZM227.454 84.1392C228.09 84.1392 228.592 83.826 228.96 83.1996C229.331 82.5699 229.517 81.6435 229.517 80.4205C229.517 79.6118 229.432 78.9323 229.263 78.3821C229.094 77.832 228.856 77.4177 228.547 77.1392C228.239 76.8575 227.875 76.7167 227.454 76.7167C226.821 76.7167 226.32 77.0315 225.952 77.6613C225.584 78.2877 225.399 79.2074 225.395 80.4205C225.392 81.2325 225.473 81.9153 225.639 82.4688C225.808 83.0223 226.047 83.4399 226.355 83.7216C226.663 84 227.029 84.1392 227.454 84.1392ZM234.484 84.1094L234.42 84.6563C234.373 85.0739 234.29 85.4982 234.171 85.929C234.055 86.3632 233.932 86.7626 233.803 87.1272C233.674 87.4918 233.57 87.7785 233.49 87.9873H232.277C232.323 87.7851 232.386 87.51 232.466 87.162C232.549 86.814 232.628 86.4229 232.704 85.9887C232.781 85.5545 232.832 85.1137 232.859 84.6662L232.893 84.1094H234.484ZM239.567 85.6954C238.749 85.6954 238.046 85.4882 237.459 85.0739C236.876 84.6563 236.427 84.0547 236.112 83.2692C235.801 82.4804 235.645 81.5308 235.645 80.4205C235.648 79.3102 235.806 78.3656 236.117 77.5867C236.432 76.8045 236.881 76.2079 237.464 75.7969C238.051 75.3859 238.752 75.1804 239.567 75.1804C240.383 75.1804 241.084 75.3859 241.67 75.7969C242.257 76.2079 242.706 76.8045 243.018 77.5867C243.332 78.3689 243.49 79.3135 243.49 80.4205C243.49 81.5341 243.332 82.4854 243.018 83.2742C242.706 84.0597 242.257 84.6596 241.67 85.0739C241.087 85.4882 240.386 85.6954 239.567 85.6954ZM239.567 84.1392C240.204 84.1392 240.706 83.826 241.074 83.1996C241.445 82.5699 241.631 81.6435 241.631 80.4205C241.631 79.6118 241.546 78.9323 241.377 78.3821C241.208 77.832 240.969 77.4177 240.661 77.1392C240.353 76.8575 239.988 76.7167 239.567 76.7167C238.934 76.7167 238.434 77.0315 238.066 77.6613C237.698 78.2877 237.512 79.2074 237.509 80.4205C237.506 81.2325 237.587 81.9153 237.753 82.4688C237.922 83.0223 238.16 83.4399 238.469 83.7216C238.777 84 239.143 84.1392 239.567 84.1392ZM248.625 85.6954C247.807 85.6954 247.104 85.4882 246.517 85.0739C245.934 84.6563 245.485 84.0547 245.17 83.2692C244.858 82.4804 244.703 81.5308 244.703 80.4205C244.706 79.3102 244.863 78.3656 245.175 77.5867C245.49 76.8045 245.939 76.2079 246.522 75.7969C247.109 75.3859 247.81 75.1804 248.625 75.1804C249.441 75.1804 250.142 75.3859 250.728 75.7969C251.315 76.2079 251.764 76.8045 252.075 77.5867C252.39 78.3689 252.548 79.3135 252.548 80.4205C252.548 81.5341 252.39 82.4854 252.075 83.2742C251.764 84.0597 251.315 84.6596 250.728 85.0739C250.145 85.4882 249.444 85.6954 248.625 85.6954ZM248.625 84.1392C249.262 84.1392 249.764 83.826 250.132 83.1996C250.503 82.5699 250.688 81.6435 250.688 80.4205C250.688 79.6118 250.604 78.9323 250.435 78.3821C250.266 77.832 250.027 77.4177 249.719 77.1392C249.411 76.8575 249.046 76.7167 248.625 76.7167C247.992 76.7167 247.492 77.0315 247.124 77.6613C246.756 78.2877 246.57 79.2074 246.567 80.4205C246.564 81.2325 246.645 81.9153 246.811 82.4688C246.98 83.0223 247.218 83.4399 247.526 83.7216C247.835 84 248.201 84.1392 248.625 84.1392ZM257.683 85.6954C256.864 85.6954 256.162 85.4882 255.575 85.0739C254.992 84.6563 254.543 84.0547 254.228 83.2692C253.916 82.4804 253.76 81.5308 253.76 80.4205C253.764 79.3102 253.921 78.3656 254.233 77.5867C254.548 76.8045 254.997 76.2079 255.58 75.7969C256.167 75.3859 256.868 75.1804 257.683 75.1804C258.498 75.1804 259.199 75.3859 259.786 75.7969C260.373 76.2079 260.822 76.8045 261.133 77.5867C261.448 78.3689 261.606 79.3135 261.606 80.4205C261.606 81.5341 261.448 82.4854 261.133 83.2742C260.822 84.0597 260.373 84.6596 259.786 85.0739C259.203 85.4882 258.502 85.6954 257.683 85.6954ZM257.683 84.1392C258.319 84.1392 258.822 83.826 259.189 83.1996C259.561 82.5699 259.746 81.6435 259.746 80.4205C259.746 79.6118 259.662 78.9323 259.493 78.3821C259.324 77.832 259.085 77.4177 258.777 77.1392C258.469 76.8575 258.104 76.7167 257.683 76.7167C257.05 76.7167 256.549 77.0315 256.182 77.6613C255.814 78.2877 255.628 79.2074 255.625 80.4205C255.621 81.2325 255.703 81.9153 255.868 82.4688C256.037 83.0223 256.276 83.4399 256.584 83.7216C256.893 84 257.259 84.1392 257.683 84.1392ZM270.003 77.8651V79.2571H265.613V77.8651H270.003ZM266.697 76.0356H268.497V83.2046C268.497 83.4465 268.533 83.6321 268.606 83.7614C268.682 83.8874 268.782 83.9735 268.904 84.0199C269.027 84.0663 269.163 84.0895 269.312 84.0895C269.425 84.0895 269.527 84.0812 269.62 84.0647C269.716 84.0481 269.789 84.0332 269.839 84.0199L270.142 85.4269C270.046 85.46 269.909 85.4965 269.73 85.5363C269.554 85.576 269.339 85.5992 269.083 85.6059C268.633 85.6191 268.227 85.5512 267.865 85.402C267.504 85.2496 267.217 85.0142 267.005 84.6961C266.796 84.3779 266.694 83.9802 266.697 83.5029V76.0356ZM271.129 85.5015V84.358L275.066 79.4212V79.3566H271.258V77.8651H277.269V79.0931L273.52 83.9454V84.01H277.398V85.5015H271.129ZM284.845 79.8836L283.204 80.0625C283.158 79.8968 283.077 79.741 282.961 79.5952C282.848 79.4494 282.696 79.3317 282.503 79.2422C282.311 79.1527 282.076 79.108 281.797 79.108C281.423 79.108 281.108 79.1892 280.853 79.3516C280.601 79.514 280.477 79.7245 280.48 79.983C280.477 80.2051 280.558 80.3857 280.724 80.5249C280.893 80.6641 281.171 80.7785 281.559 80.8679L282.861 81.1464C283.584 81.3021 284.121 81.549 284.472 81.8871C284.827 82.2252 285.006 82.6677 285.009 83.2145C285.006 83.6951 284.865 84.1194 284.586 84.4873C284.311 84.8518 283.929 85.1369 283.438 85.3424C282.947 85.5479 282.384 85.6506 281.748 85.6506C280.813 85.6506 280.061 85.4551 279.491 85.064C278.92 84.6696 278.581 84.121 278.471 83.4184L280.226 83.2493C280.306 83.594 280.475 83.8542 280.733 84.0299C280.992 84.2055 281.328 84.2934 281.743 84.2934C282.17 84.2934 282.513 84.2055 282.772 84.0299C283.034 83.8542 283.165 83.6371 283.165 83.3786C283.165 83.1598 283.08 82.9792 282.911 82.8367C282.745 82.6942 282.487 82.5848 282.135 82.5086L280.833 82.2351C280.1 82.0827 279.558 81.8258 279.207 81.4645C278.856 81.0999 278.682 80.6392 278.685 80.0824C278.682 79.6118 278.809 79.2041 279.068 78.8594C279.33 78.5114 279.693 78.2429 280.157 78.054C280.624 77.8618 281.163 77.7657 281.773 77.7657C282.667 77.7657 283.372 77.9562 283.885 78.3374C284.402 78.7186 284.722 79.2339 284.845 79.8836ZM290.369 74.8424L287.088 87.0327H285.512L288.793 74.8424H290.369ZM291.238 85.5015V77.8651H292.958V79.1627H293.047C293.206 78.7252 293.47 78.3838 293.838 78.1385C294.206 77.89 294.645 77.7657 295.155 77.7657C295.672 77.7657 296.108 77.8916 296.463 78.1435C296.821 78.3921 297.073 78.7318 297.218 79.1627H297.298C297.467 78.7384 297.752 78.4004 298.153 78.1485C298.557 77.8933 299.036 77.7657 299.59 77.7657C300.293 77.7657 300.866 77.9877 301.31 78.4319C301.754 78.876 301.976 79.524 301.976 80.3758V85.5015H300.172V80.6542C300.172 80.1802 300.046 79.8339 299.794 79.6151C299.542 79.393 299.234 79.282 298.869 79.282C298.435 79.282 298.095 79.4179 297.85 79.6897C297.608 79.9581 297.487 80.3078 297.487 80.7387V85.5015H295.722V80.5796C295.722 80.1852 295.603 79.8703 295.364 79.635C295.129 79.3997 294.82 79.282 294.439 79.282C294.181 79.282 293.945 79.3483 293.733 79.4809C293.521 79.6101 293.352 79.7941 293.226 80.0327C293.1 80.268 293.037 80.5431 293.037 80.858V85.5015H291.238Z" fill="#1A0E12"/>
<rect x="32.02" y="62" width="282.85" height="36.01" rx="9.5" stroke="#009DFF"/>
</g>
</g>
<g filter="url(#filter2_ddd_1_502)">
<g clip-path="url(#clip7_1_502)">
<rect x="-1.03" y="104.87" width="285.86" height="38.1162" rx="10" fill="white"/>
<g clip-path="url(#clip8_1_502)">
<g clip-path="url(#clip9_1_502)">
<rect x="7.03" y="113.853" width="20.15" height="20.15" rx="10.075" fill="white"/>
<rect x="7.53" y="114.353" width="19.15" height="19.15" rx="9.575" stroke="#D6D6D6"/>
</g>
<path d="M37.9038 118.674V128.928H36.3566V118.674H37.9038ZM41.2519 124.362V128.928H39.7548V121.237H41.1918V122.489H41.287C41.4639 122.082 41.7409 121.755 42.1181 121.508C42.4987 121.261 42.9777 121.137 43.5552 121.137C44.0792 121.137 44.5382 121.247 44.9321 121.468C45.326 121.684 45.6315 122.008 45.8484 122.439C46.0654 122.87 46.1739 123.402 46.1739 124.036V128.928H44.6768V124.216C44.6768 123.659 44.5316 123.223 44.2411 122.91C43.9507 122.592 43.5518 122.434 43.0444 122.434C42.6973 122.434 42.3885 122.509 42.1181 122.659C41.8511 122.809 41.6391 123.03 41.4822 123.32C41.3287 123.607 41.2519 123.954 41.2519 124.362ZM51.4898 121.237V122.439H47.2888V121.237H51.4898ZM48.4154 119.395H49.9126V126.67C49.9126 126.96 49.956 127.179 50.0427 127.326C50.1295 127.469 50.2414 127.568 50.3782 127.621C50.5184 127.671 50.6703 127.696 50.8339 127.696C50.954 127.696 51.0592 127.688 51.1493 127.671C51.2394 127.655 51.3095 127.641 51.3596 127.631L51.63 128.868C51.5432 128.901 51.4197 128.935 51.2595 128.968C51.0992 129.005 50.899 129.025 50.6586 129.028C50.2647 129.035 49.8975 128.965 49.5571 128.818C49.2166 128.671 48.9412 128.444 48.7309 128.137C48.5206 127.83 48.4154 127.444 48.4154 126.98V119.395ZM56.0959 129.083C55.3382 129.083 54.6856 128.921 54.1382 128.598C53.5941 128.271 53.1735 127.812 52.8764 127.221C52.5826 126.627 52.4358 125.931 52.4358 125.133C52.4358 124.345 52.5826 123.651 52.8764 123.05C53.1735 122.449 53.5874 121.98 54.1181 121.643C54.6522 121.306 55.2765 121.137 55.9908 121.137C56.4247 121.137 56.8453 121.209 57.2526 121.352C57.6598 121.496 58.0253 121.721 58.3491 122.028C58.6729 122.335 58.9283 122.734 59.1152 123.225C59.3022 123.712 59.3956 124.305 59.3956 125.003V125.533H53.282V124.412H57.9285C57.9285 124.018 57.8484 123.669 57.6882 123.365C57.528 123.058 57.3027 122.816 57.0122 122.639C56.7252 122.462 56.388 122.374 56.0008 122.374C55.5802 122.374 55.213 122.477 54.8992 122.684C54.5888 122.888 54.3485 123.155 54.1782 123.485C54.0113 123.813 53.9279 124.168 53.9279 124.552V125.428C53.9279 125.942 54.018 126.379 54.1983 126.74C54.3818 127.101 54.6372 127.376 54.9643 127.566C55.2915 127.753 55.6737 127.847 56.111 127.847C56.3947 127.847 56.6534 127.807 56.8871 127.726C57.1207 127.643 57.3227 127.519 57.4929 127.356C57.6632 127.192 57.7934 126.99 57.8835 126.75L59.3005 127.005C59.187 127.423 58.9834 127.788 58.6896 128.102C58.3992 128.412 58.0337 128.654 57.5931 128.828C57.1558 128.998 56.6567 129.083 56.0959 129.083ZM60.7747 128.928V121.237H62.2218V122.459H62.3019C62.4421 122.045 62.6891 121.72 63.0429 121.483C63.4001 121.242 63.804 121.122 64.2546 121.122C64.3481 121.122 64.4583 121.125 64.5851 121.132C64.7153 121.139 64.8171 121.147 64.8905 121.157V122.589C64.8305 122.572 64.7236 122.554 64.5701 122.534C64.4165 122.511 64.263 122.499 64.1094 122.499C63.7556 122.499 63.4401 122.574 63.1631 122.724C62.8894 122.871 62.6724 123.076 62.5122 123.34C62.3519 123.601 62.2718 123.898 62.2718 124.231V128.928H60.7747ZM67.4012 124.362V128.928H65.9041V121.237H67.3411V122.489H67.4363C67.6132 122.082 67.8902 121.755 68.2674 121.508C68.648 121.261 69.127 121.137 69.7045 121.137C70.2286 121.137 70.6875 121.247 71.0814 121.468C71.4753 121.684 71.7808 122.008 71.9977 122.439C72.2147 122.87 72.3232 123.402 72.3232 124.036V128.928H70.8261V124.216C70.8261 123.659 70.6809 123.223 70.3905 122.91C70.1 122.592 69.7011 122.434 69.1938 122.434C68.8466 122.434 68.5378 122.509 68.2674 122.659C68.0004 122.809 67.7884 123.03 67.6315 123.32C67.478 123.607 67.4012 123.954 67.4012 124.362ZM77.3637 129.083C76.606 129.083 75.9534 128.921 75.4059 128.598C74.8618 128.271 74.4412 127.812 74.1441 127.221C73.8504 126.627 73.7035 125.931 73.7035 125.133C73.7035 124.345 73.8504 123.651 74.1441 123.05C74.4412 122.449 74.8552 121.98 75.3859 121.643C75.92 121.306 76.5442 121.137 77.2586 121.137C77.6925 121.137 78.1131 121.209 78.5204 121.352C78.9276 121.496 79.2931 121.721 79.6169 122.028C79.9407 122.335 80.1961 122.734 80.383 123.225C80.5699 123.712 80.6634 124.305 80.6634 125.003V125.533H74.5497V124.412H79.1963C79.1963 124.018 79.1162 123.669 78.956 123.365C78.7957 123.058 78.5704 122.816 78.28 122.639C77.9929 122.462 77.6558 122.374 77.2686 122.374C76.848 122.374 76.4808 122.477 76.167 122.684C75.8566 122.888 75.6162 123.155 75.446 123.485C75.2791 123.813 75.1956 124.168 75.1956 124.552V125.428C75.1956 125.942 75.2858 126.379 75.466 126.74C75.6496 127.101 75.905 127.376 76.2321 127.566C76.5592 127.753 76.9415 127.847 77.3787 127.847C77.6625 127.847 77.9212 127.807 78.1548 127.726C78.3885 127.643 78.5905 127.519 78.7607 127.356C78.9309 127.192 79.0611 126.99 79.1513 126.75L80.5683 127.005C80.4548 127.423 80.2511 127.788 79.9574 128.102C79.667 128.412 79.3015 128.654 78.8608 128.828C78.4236 128.998 77.9245 129.083 77.3637 129.083ZM85.6326 121.237V122.439H81.4316V121.237H85.6326ZM82.5582 119.395H84.0553V126.67C84.0553 126.96 84.0987 127.179 84.1855 127.326C84.2723 127.469 84.3841 127.568 84.521 127.621C84.6612 127.671 84.8131 127.696 84.9766 127.696C85.0968 127.696 85.202 127.688 85.2921 127.671C85.3822 127.655 85.4523 127.641 85.5024 127.631L85.7728 128.868C85.686 128.901 85.5625 128.935 85.4022 128.968C85.242 129.005 85.0417 129.025 84.8014 129.028C84.4075 129.035 84.0403 128.965 83.6998 128.818C83.3593 128.671 83.0839 128.444 82.8736 128.137C82.6633 127.83 82.5582 127.444 82.5582 126.98V119.395Z" fill="#585959"/>
</g>
<path d="M185.027 128.928L189.388 120.296V120.226H184.326V118.674H191.311V120.261L186.955 128.928H185.027ZM196.215 129.123C195.39 129.123 194.683 128.915 194.092 128.497C193.504 128.077 193.052 127.471 192.735 126.68C192.421 125.885 192.264 124.929 192.264 123.811C192.268 122.693 192.426 121.741 192.74 120.957C193.057 120.169 193.509 119.568 194.097 119.154C194.688 118.74 195.394 118.533 196.215 118.533C197.036 118.533 197.742 118.74 198.333 119.154C198.924 119.568 199.376 120.169 199.69 120.957C200.007 121.745 200.165 122.696 200.165 123.811C200.165 124.932 200.007 125.89 199.69 126.685C199.376 127.476 198.924 128.08 198.333 128.497C197.745 128.915 197.039 129.123 196.215 129.123ZM196.215 127.556C196.856 127.556 197.361 127.241 197.732 126.61C198.106 125.976 198.293 125.043 198.293 123.811C198.293 122.996 198.208 122.312 198.037 121.758C197.867 121.204 197.627 120.787 197.316 120.506C197.006 120.222 196.639 120.081 196.215 120.081C195.577 120.081 195.073 120.398 194.703 121.032C194.332 121.663 194.145 122.589 194.142 123.811C194.139 124.629 194.22 125.316 194.387 125.874C194.557 126.431 194.798 126.852 195.108 127.136C195.419 127.416 195.788 127.556 196.215 127.556ZM203.296 127.526L203.231 128.077C203.184 128.497 203.1 128.925 202.98 129.359C202.863 129.796 202.74 130.198 202.61 130.565C202.48 130.933 202.374 131.221 202.294 131.432H201.073C201.119 131.228 201.183 130.951 201.263 130.6C201.346 130.25 201.426 129.856 201.503 129.419C201.58 128.982 201.632 128.538 201.658 128.087L201.693 127.526H203.296ZM208.415 129.123C207.591 129.123 206.883 128.915 206.292 128.497C205.705 128.077 205.252 127.471 204.935 126.68C204.621 125.885 204.464 124.929 204.464 123.811C204.468 122.693 204.626 121.741 204.94 120.957C205.257 120.169 205.71 119.568 206.297 119.154C206.888 118.74 207.594 118.533 208.415 118.533C209.236 118.533 209.942 118.74 210.533 119.154C211.124 119.568 211.576 120.169 211.89 120.957C212.207 121.745 212.366 122.696 212.366 123.811C212.366 124.932 212.207 125.89 211.89 126.685C211.576 127.476 211.124 128.08 210.533 128.497C209.946 128.915 209.24 129.123 208.415 129.123ZM208.415 127.556C209.056 127.556 209.562 127.241 209.932 126.61C210.306 125.976 210.493 125.043 210.493 123.811C210.493 122.996 210.408 122.312 210.238 121.758C210.067 121.204 209.827 120.787 209.517 120.506C209.206 120.222 208.839 120.081 208.415 120.081C207.778 120.081 207.273 120.398 206.903 121.032C206.532 121.663 206.345 122.589 206.342 123.811C206.339 124.629 206.421 125.316 206.587 125.874C206.758 126.431 206.998 126.852 207.309 127.136C207.619 127.416 207.988 127.556 208.415 127.556ZM217.538 129.123C216.713 129.123 216.005 128.915 215.415 128.497C214.827 128.077 214.375 127.471 214.058 126.68C213.744 125.885 213.587 124.929 213.587 123.811C213.59 122.693 213.749 121.741 214.063 120.957C214.38 120.169 214.832 119.568 215.42 119.154C216.01 118.74 216.716 118.533 217.538 118.533C218.359 118.533 219.065 118.74 219.656 119.154C220.246 119.568 220.699 120.169 221.013 120.957C221.33 121.745 221.488 122.696 221.488 123.811C221.488 124.932 221.33 125.89 221.013 126.685C220.699 127.476 220.246 128.08 219.656 128.497C219.068 128.915 218.362 129.123 217.538 129.123ZM217.538 127.556C218.179 127.556 218.684 127.241 219.055 126.61C219.429 125.976 219.616 125.043 219.616 123.811C219.616 122.996 219.53 122.312 219.36 121.758C219.19 121.204 218.95 120.787 218.639 120.506C218.329 120.222 217.962 120.081 217.538 120.081C216.9 120.081 216.396 120.398 216.026 121.032C215.655 121.663 215.468 122.589 215.465 123.811C215.461 124.629 215.543 125.316 215.71 125.874C215.88 126.431 216.121 126.852 216.431 127.136C216.742 127.416 217.11 127.556 217.538 127.556ZM226.66 129.123C225.836 129.123 225.128 128.915 224.537 128.497C223.95 128.077 223.497 127.471 223.18 126.68C222.866 125.885 222.71 124.929 222.71 123.811C222.713 122.693 222.871 121.741 223.185 120.957C223.502 120.169 223.955 119.568 224.542 119.154C225.133 118.74 225.839 118.533 226.66 118.533C227.481 118.533 228.187 118.74 228.778 119.154C229.369 119.568 229.821 120.169 230.135 120.957C230.452 121.745 230.611 122.696 230.611 123.811C230.611 124.932 230.452 125.89 230.135 126.685C229.821 127.476 229.369 128.08 228.778 128.497C228.191 128.915 227.485 129.123 226.66 129.123ZM226.66 127.556C227.301 127.556 227.807 127.241 228.177 126.61C228.551 125.976 228.738 125.043 228.738 123.811C228.738 122.996 228.653 122.312 228.483 121.758C228.313 121.204 228.072 120.787 227.762 120.506C227.451 120.222 227.084 120.081 226.66 120.081C226.023 120.081 225.519 120.398 225.148 121.032C224.778 121.663 224.591 122.589 224.587 123.811C224.584 124.629 224.666 125.316 224.833 125.874C225.003 126.431 225.243 126.852 225.554 127.136C225.864 127.416 226.233 127.556 226.66 127.556ZM239.068 121.237V122.639H234.647V121.237H239.068ZM235.739 119.395H237.551V126.615C237.551 126.858 237.588 127.045 237.661 127.176C237.738 127.302 237.838 127.389 237.962 127.436C238.085 127.483 238.222 127.506 238.372 127.506C238.486 127.506 238.589 127.498 238.683 127.481C238.78 127.464 238.853 127.449 238.903 127.436L239.208 128.853C239.112 128.886 238.973 128.923 238.793 128.963C238.616 129.003 238.399 129.027 238.142 129.033C237.688 129.047 237.279 128.978 236.915 128.828C236.551 128.674 236.263 128.437 236.049 128.117C235.839 127.796 235.735 127.396 235.739 126.915V119.395ZM240.202 128.928V127.776L244.168 122.804V122.739H240.332V121.237H246.386V122.474L242.61 127.361V127.426H246.516V128.928H240.202ZM254.016 123.27L252.364 123.45C252.317 123.283 252.235 123.127 252.119 122.98C252.005 122.833 251.851 122.714 251.658 122.624C251.464 122.534 251.227 122.489 250.947 122.489C250.57 122.489 250.253 122.571 249.996 122.734C249.742 122.898 249.617 123.11 249.62 123.37C249.617 123.594 249.698 123.776 249.865 123.916C250.036 124.056 250.316 124.171 250.707 124.261L252.018 124.542C252.746 124.699 253.287 124.947 253.641 125.288C253.998 125.628 254.178 126.074 254.181 126.625C254.178 127.109 254.036 127.536 253.756 127.907C253.479 128.274 253.093 128.561 252.599 128.768C252.105 128.975 251.538 129.078 250.897 129.078C249.955 129.078 249.198 128.881 248.624 128.487C248.049 128.09 247.707 127.538 247.597 126.83L249.365 126.66C249.445 127.007 249.615 127.269 249.875 127.446C250.136 127.623 250.475 127.711 250.892 127.711C251.322 127.711 251.668 127.623 251.928 127.446C252.192 127.269 252.324 127.05 252.324 126.79C252.324 126.57 252.239 126.388 252.068 126.244C251.902 126.101 251.641 125.991 251.287 125.914L249.975 125.638C249.238 125.485 248.692 125.226 248.338 124.862C247.984 124.495 247.809 124.031 247.812 123.47C247.809 122.996 247.938 122.586 248.198 122.239C248.462 121.888 248.827 121.618 249.295 121.427C249.765 121.234 250.308 121.137 250.922 121.137C251.823 121.137 252.532 121.329 253.05 121.713C253.571 122.097 253.893 122.616 254.016 123.27ZM259.58 118.193L256.275 130.47H254.688L257.993 118.193H259.58ZM260.455 128.928V121.237H262.187V122.544H262.277C262.437 122.103 262.703 121.76 263.073 121.513C263.444 121.262 263.886 121.137 264.4 121.137C264.921 121.137 265.36 121.264 265.717 121.518C266.078 121.768 266.331 122.11 266.478 122.544H266.558C266.728 122.117 267.016 121.776 267.419 121.523C267.827 121.266 268.309 121.137 268.867 121.137C269.574 121.137 270.152 121.361 270.599 121.808C271.046 122.255 271.27 122.908 271.27 123.766V128.928H269.452V124.046C269.452 123.569 269.326 123.22 269.072 123C268.818 122.776 268.508 122.664 268.141 122.664C267.703 122.664 267.361 122.801 267.114 123.075C266.87 123.345 266.749 123.697 266.749 124.131V128.928H264.971V123.971C264.971 123.574 264.851 123.257 264.61 123.02C264.373 122.783 264.063 122.664 263.679 122.664C263.419 122.664 263.182 122.731 262.968 122.864C262.755 122.995 262.584 123.18 262.457 123.42C262.331 123.657 262.267 123.934 262.267 124.251V128.928H260.455Z" fill="#585959"/>
<rect x="-0.529999" y="105.37" width="284.86" height="36.27" rx="9.5" stroke="#E8E8E8"/>
</g>
</g>
</g>
<defs>
<filter id="filter0_ddd_1_502" x="-11.8565" y="13.1435" width="311.513" height="64.713" filterUnits="userSpaceOnUse" color-interpolation-filters="sRGB">
<feFlood flood-opacity="0" result="BackgroundImageFix"/>
<feColorMatrix in="SourceAlpha" type="matrix" values="0 0 0 0 0 0 0 0 0 0 0 0 0 0 0 0 0 0 127 0" result="hardAlpha"/>
<feMorphology radius="4.5" operator="erode" in="SourceAlpha" result="effect1_dropShadow_1_502"/>
<feOffset dx="2" dy="10"/>
<feGaussianBlur stdDeviation="9.17825"/>
<feComposite in2="hardAlpha" operator="out"/>
<feColorMatrix type="matrix" values="0 0 0 0 0 0 0 0 0 0 0 0 0 0 0 0 0 0 0.02 0"/>
<feBlend mode="normal" in2="BackgroundImageFix" result="effect1_dropShadow_1_502"/>
<feColorMatrix in="SourceAlpha" type="matrix" values="0 0 0 0 0 0 0 0 0 0 0 0 0 0 0 0 0 0 127 0" result="hardAlpha"/>
<feMorphology radius="3" operator="erode" in="SourceAlpha" result="effect2_dropShadow_1_502"/>
<feOffset dx="0.457707" dy="2.28853"/>
<feGaussianBlur stdDeviation="2.10047"/>
<feComposite in2="hardAlpha" operator="out"/>
<feColorMatrix type="matrix" values="0 0 0 0 0 0 0 0 0 0 0 0 0 0 0 0 0 0 0.18 0"/>
<feBlend mode="normal" in2="effect1_dropShadow_1_502" result="effect2_dropShadow_1_502"/>
<feColorMatrix in="SourceAlpha" type="matrix" values="0 0 0 0 0 0 0 0 0 0 0 0 0 0 0 0 0 0 127 0" result="hardAlpha"/>
<feMorphology radius="1.5" operator="erode" in="SourceAlpha" result="effect3_dropShadow_1_502"/>
<feOffset dx="0.120437" dy="0.602187"/>
<feGaussianBlur stdDeviation="0.5527"/>
<feComposite in2="hardAlpha" operator="out"/>
<feColorMatrix type="matrix" values="0 0 0 0 0 0 0 0 0 0 0 0 0 0 0 0 0 0 0.21 0"/>
<feBlend mode="normal" in2="effect2_dropShadow_1_502" result="effect3_dropShadow_1_502"/>
<feBlend mode="normal" in="SourceGraphic" in2="effect3_dropShadow_1_502" result="shape"/>
</filter>
<filter id="filter1_ddd_1_502" x="19.6635" y="57.6435" width="311.563" height="64.7159" filterUnits="userSpaceOnUse" color-interpolation-filters="sRGB">
<feFlood flood-opacity="0" result="BackgroundImageFix"/>
<feColorMatrix in="SourceAlpha" type="matrix" values="0 0 0 0 0 0 0 0 0 0 0 0 0 0 0 0 0 0 127 0" result="hardAlpha"/>
<feMorphology radius="4.5" operator="erode" in="SourceAlpha" result="effect1_dropShadow_1_502"/>
<feOffset dx="2" dy="10"/>
<feGaussianBlur stdDeviation="9.17825"/>
<feComposite in2="hardAlpha" operator="out"/>
<feColorMatrix type="matrix" values="0 0 0 0 0 0 0 0 0 0 0 0 0 0 0 0 0 0 0.02 0"/>
<feBlend mode="normal" in2="BackgroundImageFix" result="effect1_dropShadow_1_502"/>
<feColorMatrix in="SourceAlpha" type="matrix" values="0 0 0 0 0 0 0 0 0 0 0 0 0 0 0 0 0 0 127 0" result="hardAlpha"/>
<feMorphology radius="3" operator="erode" in="SourceAlpha" result="effect2_dropShadow_1_502"/>
<feOffset dx="0.457707" dy="2.28853"/>
<feGaussianBlur stdDeviation="2.10047"/>
<feComposite in2="hardAlpha" operator="out"/>
<feColorMatrix type="matrix" values="0 0 0 0 0 0 0 0 0 0 0 0 0 0 0 0 0 0 0.18 0"/>
<feBlend mode="normal" in2="effect1_dropShadow_1_502" result="effect2_dropShadow_1_502"/>
<feColorMatrix in="SourceAlpha" type="matrix" values="0 0 0 0 0 0 0 0 0 0 0 0 0 0 0 0 0 0 127 0" result="hardAlpha"/>
<feMorphology radius="1.5" operator="erode" in="SourceAlpha" result="effect3_dropShadow_1_502"/>
<feOffset dx="0.120437" dy="0.602187"/>
<feGaussianBlur stdDeviation="0.5527"/>
<feComposite in2="hardAlpha" operator="out"/>
<feColorMatrix type="matrix" values="0 0 0 0 0 0 0 0 0 0 0 0 0 0 0 0 0 0 0.21 0"/>
<feBlend mode="normal" in2="effect2_dropShadow_1_502" result="effect3_dropShadow_1_502"/>
<feBlend mode="normal" in="SourceGraphic" in2="effect3_dropShadow_1_502" result="shape"/>
</filter>
<filter id="filter2_ddd_1_502" x="-12.8865" y="101.013" width="313.573" height="65.8292" filterUnits="userSpaceOnUse" color-interpolation-filters="sRGB">
<feFlood flood-opacity="0" result="BackgroundImageFix"/>
<feColorMatrix in="SourceAlpha" type="matrix" values="0 0 0 0 0 0 0 0 0 0 0 0 0 0 0 0 0 0 127 0" result="hardAlpha"/>
<feMorphology radius="4.5" operator="erode" in="SourceAlpha" result="effect1_dropShadow_1_502"/>
<feOffset dx="2" dy="10"/>
<feGaussianBlur stdDeviation="9.17825"/>
<feComposite in2="hardAlpha" operator="out"/>
<feColorMatrix type="matrix" values="0 0 0 0 0 0 0 0 0 0 0 0 0 0 0 0 0 0 0.02 0"/>
<feBlend mode="normal" in2="BackgroundImageFix" result="effect1_dropShadow_1_502"/>
<feColorMatrix in="SourceAlpha" type="matrix" values="0 0 0 0 0 0 0 0 0 0 0 0 0 0 0 0 0 0 127 0" result="hardAlpha"/>
<feMorphology radius="3" operator="erode" in="SourceAlpha" result="effect2_dropShadow_1_502"/>
<feOffset dx="0.457707" dy="2.28853"/>
<feGaussianBlur stdDeviation="2.10047"/>
<feComposite in2="hardAlpha" operator="out"/>
<feColorMatrix type="matrix" values="0 0 0 0 0 0 0 0 0 0 0 0 0 0 0 0 0 0 0.18 0"/>
<feBlend mode="normal" in2="effect1_dropShadow_1_502" result="effect2_dropShadow_1_502"/>
<feColorMatrix in="SourceAlpha" type="matrix" values="0 0 0 0 0 0 0 0 0 0 0 0 0 0 0 0 0 0 127 0" result="hardAlpha"/>
<feMorphology radius="1.5" operator="erode" in="SourceAlpha" result="effect3_dropShadow_1_502"/>
<feOffset dx="0.120437" dy="0.602187"/>
<feGaussianBlur stdDeviation="0.5527"/>
<feComposite in2="hardAlpha" operator="out"/>
<feColorMatrix type="matrix" values="0 0 0 0 0 0 0 0 0 0 0 0 0 0 0 0 0 0 0.21 0"/>
<feBlend mode="normal" in2="effect2_dropShadow_1_502" result="effect3_dropShadow_1_502"/>
<feBlend mode="normal" in="SourceGraphic" in2="effect3_dropShadow_1_502" result="shape"/>
</filter>
<clipPath id="clip0_1_502">
<rect width="315.34" height="160" rx="16" fill="white"/>
</clipPath>
<clipPath id="clip1_1_502">
<rect y="17" width="283.8" height="37" rx="10" fill="white"/>
</clipPath>
<clipPath id="clip2_1_502">
<rect width="176.8" height="21" fill="white" transform="translate(8 25)"/>
</clipPath>
<clipPath id="clip3_1_502">
<rect x="8" y="25.5" width="20" height="20" rx="10" fill="white"/>
</clipPath>
<clipPath id="clip4_1_502">
<rect x="31.52" y="61.5" width="283.85" height="37.0029" rx="10" fill="white"/>
</clipPath>
<clipPath id="clip5_1_502">
<rect width="174.85" height="21" fill="white" transform="translate(39.52 69.5015)"/>
</clipPath>
<clipPath id="clip6_1_502">
<rect width="16" height="16" fill="white" transform="translate(41.52 72.0015)"/>
</clipPath>
<clipPath id="clip7_1_502">
<rect x="-1.03" y="104.87" width="285.86" height="38.1162" rx="10" fill="white"/>
</clipPath>
<clipPath id="clip8_1_502">
<rect width="176.71" height="22" fill="white" transform="translate(7.03 112.928)"/>
</clipPath>
<clipPath id="clip9_1_502">
<rect x="7.03" y="113.853" width="20.15" height="20.15" rx="10.075" fill="white"/>
</clipPath>
</defs>
</svg>
