<svg width="334" height="132" viewBox="0 0 334 132" fill="none" xmlns="http://www.w3.org/2000/svg">
<g filter="url(#filter0_dd_1_2963)">
<rect x="4" y="3" width="326" height="124" rx="20" fill="white" shape-rendering="crispEdges"/>
<rect x="24" y="19" width="38" height="38" rx="19" fill="#F7931A"/>
<g clip-path="url(#clip0_1_2963)">
<path d="M51.5978 37.0046C51.5579 36.8262 51.4752 36.6603 51.3567 36.5211C51.2383 36.382 51.0878 36.2737 50.9181 36.2058L46.12 34.2868L47.1128 27.6671C47.1492 27.4294 47.1086 27.1862 46.9967 26.9733C46.8849 26.7605 46.7077 26.589 46.4913 26.4842C46.2749 26.3793 46.0306 26.3466 45.7942 26.3907C45.5578 26.4349 45.3418 26.5536 45.1778 26.7296L34.6778 37.9796C34.553 38.1132 34.4626 38.2753 34.4146 38.4518C34.3665 38.6282 34.3622 38.8137 34.402 38.9922C34.4418 39.1707 34.5245 39.3368 34.643 39.4761C34.7615 39.6154 34.9121 39.7238 35.0819 39.7918L39.88 41.7108L38.8872 48.3333C38.8507 48.571 38.8914 48.8142 39.0033 49.027C39.1151 49.2399 39.2922 49.4114 39.5087 49.5162C39.7251 49.6211 39.9694 49.6538 40.2058 49.6097C40.4422 49.5655 40.6582 49.4467 40.8222 49.2708L51.3222 38.0208C51.4475 37.8868 51.5382 37.7241 51.5862 37.5469C51.6343 37.3698 51.6382 37.1836 51.5978 37.0046ZM41.65 45.083L42.2378 41.1671C42.2754 40.9164 42.2272 40.6605 42.1011 40.4406C41.975 40.2208 41.7784 40.05 41.5431 39.9558L37.4444 38.3161L44.35 30.9174L43.7622 34.8333C43.7246 35.084 43.7728 35.3399 43.8989 35.5598C44.025 35.7796 44.2216 35.9504 44.4569 36.0446L48.5556 37.6843L41.65 45.083Z" fill="white"/>
</g>
<path d="M76.2284 33V21.3636H83.5239V22.875H77.9841V26.4205H83.1432V27.9261H77.9841V31.4886H83.592V33H76.2284ZM87.1115 21.3636V33H85.4127V21.3636H87.1115ZM92.8384 33.1761C91.9786 33.1761 91.238 32.9924 90.6168 32.625C89.9994 32.2538 89.5221 31.733 89.185 31.0625C88.8517 30.3883 88.685 29.5985 88.685 28.6932C88.685 27.7992 88.8517 27.0114 89.185 26.3295C89.5221 25.6477 89.9918 25.1155 90.5941 24.733C91.2001 24.3504 91.9085 24.1591 92.7191 24.1591C93.2115 24.1591 93.6888 24.2405 94.1509 24.4034C94.613 24.5663 95.0278 24.822 95.3952 25.1705C95.7626 25.5189 96.0524 25.9716 96.2645 26.5284C96.4767 27.0814 96.5827 27.7538 96.5827 28.5455V29.1477H89.6452V27.875H94.918C94.918 27.428 94.827 27.0322 94.6452 26.6875C94.4634 26.339 94.2077 26.0644 93.8782 25.8636C93.5524 25.6629 93.1698 25.5625 92.7305 25.5625C92.2532 25.5625 91.8365 25.6799 91.4805 25.9148C91.1282 26.1458 90.8555 26.4489 90.6623 26.8239C90.4729 27.1951 90.3782 27.5985 90.3782 28.0341V29.0284C90.3782 29.6117 90.4805 30.108 90.685 30.517C90.8933 30.9261 91.1831 31.2386 91.5543 31.4545C91.9255 31.6667 92.3592 31.7727 92.8555 31.7727C93.1774 31.7727 93.471 31.7273 93.7361 31.6364C94.0013 31.5417 94.2305 31.4015 94.4236 31.2159C94.6168 31.0303 94.7645 30.8011 94.8668 30.5284L96.4748 30.8182C96.346 31.2917 96.1149 31.7064 95.7816 32.0625C95.452 32.4148 95.0373 32.6894 94.5373 32.8864C94.0411 33.0795 93.4748 33.1761 92.8384 33.1761ZM101.824 33.1761C100.979 33.1761 100.252 32.9848 99.642 32.6023C99.0359 32.2159 98.57 31.6837 98.2443 31.0057C97.9185 30.3277 97.7556 29.5511 97.7556 28.6761C97.7556 27.7898 97.9223 27.0076 98.2556 26.3295C98.589 25.6477 99.0587 25.1155 99.6647 24.733C100.271 24.3504 100.985 24.1591 101.807 24.1591C102.47 24.1591 103.061 24.2822 103.579 24.5284C104.098 24.7708 104.517 25.1117 104.835 25.5511C105.157 25.9905 105.348 26.5038 105.409 27.0909H103.756C103.665 26.6818 103.456 26.3295 103.131 26.0341C102.809 25.7386 102.377 25.5909 101.835 25.5909C101.362 25.5909 100.947 25.7159 100.591 25.9659C100.239 26.2121 99.964 26.5644 99.767 27.0227C99.57 27.4773 99.4715 28.0152 99.4715 28.6364C99.4715 29.2727 99.5681 29.822 99.7613 30.2841C99.9545 30.7462 100.227 31.1042 100.579 31.358C100.936 31.6117 101.354 31.7386 101.835 31.7386C102.157 31.7386 102.449 31.6799 102.71 31.5625C102.975 31.4413 103.197 31.2689 103.375 31.0455C103.557 30.822 103.684 30.553 103.756 30.2386H105.409C105.348 30.803 105.165 31.3068 104.858 31.75C104.551 32.1932 104.14 32.5417 103.625 32.7955C103.114 33.0492 102.513 33.1761 101.824 33.1761ZM110.98 24.2727V25.6364H106.213V24.2727H110.98ZM107.491 22.1818H109.19V30.4375C109.19 30.767 109.239 31.0152 109.338 31.1818C109.436 31.3447 109.563 31.4564 109.718 31.517C109.877 31.5739 110.05 31.6023 110.235 31.6023C110.372 31.6023 110.491 31.5928 110.593 31.5739C110.696 31.5549 110.775 31.5398 110.832 31.5284L111.139 32.9318C111.04 32.9697 110.9 33.0076 110.718 33.0455C110.536 33.0871 110.309 33.1098 110.036 33.1136C109.59 33.1212 109.173 33.0417 108.786 32.875C108.4 32.7083 108.088 32.4508 107.849 32.1023C107.61 31.7538 107.491 31.3163 107.491 30.7898V22.1818ZM112.539 33V24.2727H114.181V25.6591H114.272C114.431 25.1894 114.711 24.8201 115.113 24.5511C115.518 24.2784 115.976 24.142 116.488 24.142C116.594 24.142 116.719 24.1458 116.863 24.1534C117.011 24.161 117.126 24.1705 117.209 24.1818V25.8068C117.141 25.7879 117.02 25.767 116.846 25.7443C116.671 25.7178 116.497 25.7045 116.323 25.7045C115.921 25.7045 115.564 25.7898 115.249 25.9602C114.939 26.1269 114.692 26.3598 114.511 26.6591C114.329 26.9545 114.238 27.2917 114.238 27.6705V33H112.539ZM118.36 33V24.2727H120.058V33H118.36ZM119.217 22.9261C118.922 22.9261 118.668 22.8277 118.456 22.6307C118.248 22.4299 118.144 22.1913 118.144 21.9148C118.144 21.6345 118.248 21.3958 118.456 21.1989C118.668 20.9981 118.922 20.8977 119.217 20.8977C119.513 20.8977 119.765 20.9981 119.973 21.1989C120.185 21.3958 120.291 21.6345 120.291 21.9148C120.291 22.1913 120.185 22.4299 119.973 22.6307C119.765 22.8277 119.513 22.9261 119.217 22.9261ZM125.7 33.1761C124.855 33.1761 124.128 32.9848 123.518 32.6023C122.912 32.2159 122.446 31.6837 122.121 31.0057C121.795 30.3277 121.632 29.5511 121.632 28.6761C121.632 27.7898 121.799 27.0076 122.132 26.3295C122.465 25.6477 122.935 25.1155 123.541 24.733C124.147 24.3504 124.861 24.1591 125.683 24.1591C126.346 24.1591 126.937 24.2822 127.456 24.5284C127.975 24.7708 128.393 25.1117 128.711 25.5511C129.033 25.9905 129.225 26.5038 129.285 27.0909H127.632C127.541 26.6818 127.333 26.3295 127.007 26.0341C126.685 25.7386 126.253 25.5909 125.711 25.5909C125.238 25.5909 124.823 25.7159 124.467 25.9659C124.115 26.2121 123.84 26.5644 123.643 27.0227C123.446 27.4773 123.348 28.0152 123.348 28.6364C123.348 29.2727 123.444 29.822 123.638 30.2841C123.831 30.7462 124.103 31.1042 124.456 31.358C124.812 31.6117 125.23 31.7386 125.711 31.7386C126.033 31.7386 126.325 31.6799 126.586 31.5625C126.852 31.4413 127.073 31.2689 127.251 31.0455C127.433 30.822 127.56 30.553 127.632 30.2386H129.285C129.225 30.803 129.041 31.3068 128.734 31.75C128.427 32.1932 128.016 32.5417 127.501 32.7955C126.99 33.0492 126.389 33.1761 125.7 33.1761ZM130.782 33V24.2727H132.481V33H130.782ZM131.64 22.9261C131.345 22.9261 131.091 22.8277 130.879 22.6307C130.67 22.4299 130.566 22.1913 130.566 21.9148C130.566 21.6345 130.67 21.3958 130.879 21.1989C131.091 20.9981 131.345 20.8977 131.64 20.8977C131.935 20.8977 132.187 20.9981 132.396 21.1989C132.608 21.3958 132.714 21.6345 132.714 21.9148C132.714 22.1913 132.608 22.4299 132.396 22.6307C132.187 22.8277 131.935 22.9261 131.64 22.9261ZM138.52 24.2727V25.6364H133.753V24.2727H138.52ZM135.032 22.1818H136.731V30.4375C136.731 30.767 136.78 31.0152 136.878 31.1818C136.977 31.3447 137.104 31.4564 137.259 31.517C137.418 31.5739 137.59 31.6023 137.776 31.6023C137.912 31.6023 138.032 31.5928 138.134 31.5739C138.236 31.5549 138.316 31.5398 138.373 31.5284L138.679 32.9318C138.581 32.9697 138.441 33.0076 138.259 33.0455C138.077 33.0871 137.85 33.1098 137.577 33.1136C137.13 33.1212 136.713 33.0417 136.327 32.875C135.941 32.7083 135.628 32.4508 135.39 32.1023C135.151 31.7538 135.032 31.3163 135.032 30.7898V22.1818ZM141.153 36.2727C140.9 36.2727 140.669 36.2519 140.46 36.2102C140.252 36.1723 140.097 36.1307 139.994 36.0852L140.403 34.6932C140.714 34.7765 140.991 34.8125 141.233 34.8011C141.475 34.7898 141.689 34.6989 141.875 34.5284C142.064 34.358 142.231 34.0795 142.375 33.6932L142.585 33.1136L139.392 24.2727H141.21L143.42 31.0455H143.511L145.722 24.2727H147.545L143.949 34.1648C143.782 34.6193 143.57 35.0038 143.312 35.3182C143.055 35.6364 142.748 35.875 142.392 36.0341C142.036 36.1932 141.623 36.2727 141.153 36.2727Z" fill="black"/>
<path d="M74.6979 43.1121V42.0184H82.3343V43.1121H79.1326V52.2002H77.8996V43.1121H74.6979ZM85.0062 52.3792C84.5223 52.3792 84.0831 52.288 83.6887 52.1057C83.2943 51.9201 82.9811 51.6533 82.7491 51.3053C82.5171 50.954 82.4011 50.5297 82.4011 50.0326C82.4011 49.5951 82.4872 49.2404 82.6596 48.9687C82.8319 48.6936 83.0623 48.4781 83.3506 48.3224C83.639 48.1666 83.9572 48.0506 84.3052 47.9743C84.6565 47.8948 85.0095 47.8318 85.3641 47.7854C85.8281 47.7258 86.2043 47.681 86.4927 47.6512C86.7844 47.618 86.9965 47.5634 87.129 47.4871C87.2649 47.4109 87.3329 47.2783 87.3329 47.0894V47.0496C87.3329 46.5591 87.1987 46.1779 86.9302 45.9062C86.665 45.6344 86.2623 45.4985 85.7221 45.4985C85.162 45.4985 84.7228 45.6211 84.4046 45.8664C84.0864 46.1117 83.8627 46.3735 83.7335 46.6519L82.6198 46.2542C82.8187 45.7902 83.0838 45.4289 83.4153 45.1704C83.75 44.9085 84.1146 44.7262 84.509 44.6235C84.9067 44.5174 85.2978 44.4644 85.6823 44.4644C85.9276 44.4644 86.2093 44.4942 86.5275 44.5539C86.849 44.6102 87.1589 44.7279 87.4572 44.9069C87.7588 45.0858 88.009 45.356 88.2079 45.7172C88.4067 46.0785 88.5062 46.5624 88.5062 47.1689V52.2002H87.3329V51.1661H87.2732C87.1937 51.3318 87.0611 51.5091 86.8755 51.6981C86.6899 51.887 86.443 52.0477 86.1347 52.1803C85.8265 52.3129 85.4503 52.3792 85.0062 52.3792ZM85.1852 51.3252C85.6492 51.3252 86.0403 51.234 86.3585 51.0518C86.6799 50.8695 86.9219 50.6341 87.0843 50.3458C87.25 50.0574 87.3329 49.7542 87.3329 49.436V48.3621C87.2832 48.4218 87.1738 48.4765 87.0048 48.5262C86.839 48.5726 86.6468 48.614 86.4281 48.6505C86.2126 48.6836 86.0022 48.7135 85.7967 48.74C85.5945 48.7632 85.4304 48.7831 85.3045 48.7996C84.9996 48.8394 84.7145 48.904 84.4494 48.9935C84.1875 49.0797 83.9754 49.2106 83.813 49.3863C83.6539 49.5586 83.5744 49.7939 83.5744 50.0922C83.5744 50.4999 83.7252 50.8081 84.0268 51.017C84.3317 51.2224 84.7178 51.3252 85.1852 51.3252ZM91.541 47.6064V52.2002H90.3677V44.5638H91.5012V45.757H91.6006C91.7796 45.3692 92.0514 45.0577 92.416 44.8224C92.7806 44.5837 93.2512 44.4644 93.8279 44.4644C94.345 44.4644 94.7974 44.5705 95.1852 44.7826C95.5729 44.9914 95.8746 45.3096 96.09 45.7371C96.3054 46.1614 96.4131 46.6983 96.4131 47.3479V52.2002H95.2399V47.4275C95.2399 46.8276 95.0841 46.3602 94.7725 46.0255C94.461 45.6874 94.0334 45.5184 93.4899 45.5184C93.1153 45.5184 92.7806 45.5996 92.4856 45.762C92.1939 45.9244 91.9636 46.1614 91.7945 46.4729C91.6255 46.7845 91.541 47.1623 91.541 47.6064ZM101.479 52.3593C100.743 52.3593 100.108 52.1969 99.5747 51.8721C99.0444 51.5439 98.6351 51.0866 98.3467 50.4999C98.0617 49.9099 97.9192 49.2239 97.9192 48.4417C97.9192 47.6595 98.0617 46.9701 98.3467 46.3735C98.6351 45.7736 99.0361 45.3063 99.5499 44.9715C100.067 44.6334 100.67 44.4644 101.36 44.4644C101.757 44.4644 102.15 44.5307 102.538 44.6633C102.926 44.7958 103.279 45.0113 103.597 45.3096C103.915 45.6046 104.168 45.9956 104.357 46.4829C104.546 46.9701 104.641 47.57 104.641 48.2826V48.7797H98.7544V47.7655H103.448C103.448 47.3347 103.361 46.9502 103.189 46.6121C103.02 46.2741 102.778 46.0072 102.463 45.8117C102.152 45.6162 101.784 45.5184 101.36 45.5184C100.892 45.5184 100.488 45.6344 100.146 45.8664C99.8084 46.0951 99.5482 46.3934 99.3659 46.7613C99.1836 47.1292 99.0925 47.5236 99.0925 47.9445V48.6206C99.0925 49.1974 99.1919 49.6862 99.3908 50.0873C99.593 50.485 99.873 50.7883 100.231 50.9971C100.589 51.2026 101.005 51.3053 101.479 51.3053C101.787 51.3053 102.065 51.2622 102.314 51.176C102.566 51.0866 102.783 50.954 102.965 50.7783C103.148 50.5993 103.289 50.3773 103.388 50.1121L104.521 50.4303C104.402 50.8148 104.202 51.1528 103.92 51.4445C103.638 51.7329 103.29 51.9582 102.876 52.1206C102.462 52.2797 101.996 52.3593 101.479 52.3593ZM111.555 46.2741L110.501 46.5724C110.434 46.3967 110.337 46.226 110.207 46.0603C110.081 45.8912 109.909 45.752 109.69 45.6427C109.472 45.5333 109.192 45.4786 108.85 45.4786C108.383 45.4786 107.993 45.5863 107.682 45.8018C107.374 46.0139 107.219 46.284 107.219 46.6121C107.219 46.9038 107.326 47.1341 107.538 47.3032C107.75 47.4722 108.081 47.6131 108.532 47.7258L109.665 48.0042C110.348 48.1699 110.857 48.4234 111.192 48.7648C111.527 49.1029 111.694 49.5387 111.694 50.0724C111.694 50.5099 111.568 50.901 111.316 51.2456C111.067 51.5903 110.719 51.8621 110.272 52.061C109.825 52.2599 109.304 52.3593 108.711 52.3593C107.932 52.3593 107.287 52.1903 106.777 51.8522C106.267 51.5141 105.943 51.0203 105.808 50.3706L106.921 50.0922C107.027 50.5032 107.228 50.8115 107.523 51.017C107.821 51.2224 108.21 51.3252 108.691 51.3252C109.238 51.3252 109.672 51.2092 109.994 50.9772C110.318 50.7419 110.481 50.4601 110.481 50.132C110.481 49.8669 110.388 49.6448 110.202 49.4658C110.017 49.2835 109.732 49.1476 109.347 49.0581L108.075 48.7599C107.375 48.5941 106.861 48.3373 106.533 47.9893C106.209 47.6379 106.046 47.1988 106.046 46.6718C106.046 46.2409 106.167 45.8598 106.409 45.5283C106.654 45.1969 106.987 44.9367 107.408 44.7478C107.833 44.5589 108.313 44.4644 108.85 44.4644C109.606 44.4644 110.199 44.6301 110.63 44.9616C111.064 45.293 111.372 45.7305 111.555 46.2741ZM116.282 52.3593C115.566 52.3593 114.95 52.1903 114.433 51.8522C113.916 51.5141 113.518 51.0484 113.24 50.4552C112.961 49.8619 112.822 49.1841 112.822 48.4218C112.822 47.6462 112.965 46.9618 113.25 46.3685C113.538 45.7719 113.939 45.3063 114.453 44.9715C114.97 44.6334 115.573 44.4644 116.262 44.4644C116.799 44.4644 117.283 44.5638 117.714 44.7627C118.145 44.9616 118.498 45.24 118.773 45.5979C119.048 45.9559 119.219 46.3735 119.285 46.8508H118.112C118.022 46.5028 117.824 46.1945 117.515 45.926C117.21 45.6543 116.799 45.5184 116.282 45.5184C115.825 45.5184 115.424 45.6377 115.079 45.8763C114.738 46.1117 114.471 46.4447 114.279 46.8756C114.09 47.3032 113.995 47.8053 113.995 48.382C113.995 48.972 114.088 49.4857 114.274 49.9232C114.463 50.3607 114.728 50.7004 115.069 50.9424C115.414 51.1843 115.818 51.3053 116.282 51.3053C116.587 51.3053 116.864 51.2523 117.113 51.1462C117.361 51.0402 117.572 50.8877 117.744 50.6888C117.916 50.49 118.039 50.2513 118.112 49.9729H119.285C119.219 50.4237 119.055 50.8297 118.793 51.191C118.534 51.5489 118.191 51.834 117.764 52.0461C117.34 52.2549 116.846 52.3593 116.282 52.3593ZM123.823 52.3593C123.133 52.3593 122.528 52.1952 122.008 51.8671C121.491 51.539 121.087 51.0799 120.795 50.49C120.507 49.9 120.362 49.2106 120.362 48.4218C120.362 47.6263 120.507 46.932 120.795 46.3387C121.087 45.7454 121.491 45.2847 122.008 44.9566C122.528 44.6285 123.133 44.4644 123.823 44.4644C124.512 44.4644 125.115 44.6285 125.632 44.9566C126.153 45.2847 126.557 45.7454 126.845 46.3387C127.137 46.932 127.283 47.6263 127.283 48.4218C127.283 49.2106 127.137 49.9 126.845 50.49C126.557 51.0799 126.153 51.539 125.632 51.8671C125.115 52.1952 124.512 52.3593 123.823 52.3593ZM123.823 51.3053C124.346 51.3053 124.777 51.1711 125.115 50.9026C125.453 50.6341 125.704 50.2812 125.866 49.8437C126.028 49.4062 126.11 48.9322 126.11 48.4218C126.11 47.9114 126.028 47.4358 125.866 46.9949C125.704 46.5541 125.453 46.1978 125.115 45.926C124.777 45.6543 124.346 45.5184 123.823 45.5184C123.299 45.5184 122.868 45.6543 122.53 45.926C122.192 46.1978 121.942 46.5541 121.779 46.9949C121.617 47.4358 121.536 47.9114 121.536 48.4218C121.536 48.9322 121.617 49.4062 121.779 49.8437C121.942 50.2812 122.192 50.6341 122.53 50.9026C122.868 51.1711 123.299 51.3053 123.823 51.3053Z" fill="black" fill-opacity="0.5"/>
<path d="M231.515 33.8999V32.6272L235.452 28.5476C235.873 28.1044 236.219 27.7162 236.492 27.3829C236.769 27.0457 236.975 26.7257 237.112 26.4226C237.248 26.1196 237.316 25.7976 237.316 25.4567C237.316 25.0704 237.225 24.737 237.043 24.4567C236.862 24.1726 236.613 23.9548 236.299 23.8033C235.985 23.648 235.63 23.5704 235.237 23.5704C234.82 23.5704 234.456 23.6556 234.146 23.826C233.835 23.9965 233.596 24.237 233.43 24.5476C233.263 24.8582 233.18 25.2219 233.18 25.6385H231.504C231.504 24.9302 231.666 24.3109 231.992 23.7806C232.318 23.2503 232.765 22.8393 233.333 22.5476C233.901 22.2522 234.547 22.1044 235.271 22.1044C236.002 22.1044 236.646 22.2503 237.202 22.5419C237.763 22.8298 238.201 23.2238 238.515 23.7238C238.829 24.22 238.987 24.7806 238.987 25.4056C238.987 25.8374 238.905 26.2598 238.742 26.6726C238.583 27.0855 238.305 27.5457 237.907 28.0533C237.509 28.5571 236.956 29.1688 236.248 29.8885L233.935 32.309V32.3942H239.174V33.8999H231.515ZM245.059 34.0931C244.161 34.0893 243.394 33.8526 242.757 33.3829C242.121 32.9132 241.634 32.2294 241.297 31.3317C240.96 30.434 240.792 29.3526 240.792 28.0874C240.792 26.826 240.96 25.7484 241.297 24.8544C241.638 23.9605 242.127 23.2787 242.763 22.809C243.403 22.3393 244.168 22.1044 245.059 22.1044C245.949 22.1044 246.712 22.3412 247.348 22.8147C247.985 23.2844 248.471 23.9662 248.809 24.8601C249.149 25.7503 249.32 26.826 249.32 28.0874C249.32 29.3563 249.151 30.4397 248.814 31.3374C248.477 32.2313 247.99 32.9151 247.354 33.3885C246.718 33.8582 245.953 34.0931 245.059 34.0931ZM245.059 32.576C245.846 32.576 246.462 32.1916 246.905 31.4226C247.352 30.6537 247.576 29.5419 247.576 28.0874C247.576 27.1215 247.473 26.3052 247.269 25.6385C247.068 24.9681 246.778 24.4605 246.399 24.1158C246.024 23.7673 245.578 23.5931 245.059 23.5931C244.274 23.5931 243.659 23.9794 243.212 24.7522C242.765 25.5249 242.54 26.6366 242.536 28.0874C242.536 29.0571 242.636 29.8772 242.837 30.5476C243.042 31.2143 243.331 31.72 243.706 32.0647C244.081 32.4056 244.532 32.576 245.059 32.576ZM252.827 32.309L252.741 32.9283C252.685 33.3829 252.588 33.8563 252.452 34.3488C252.319 34.845 252.181 35.3052 252.037 35.7294C251.897 36.1537 251.781 36.4908 251.69 36.7408H250.486C250.535 36.506 250.603 36.1878 250.69 35.7863C250.777 35.3885 250.863 34.9435 250.946 34.451C251.029 33.9586 251.092 33.4567 251.133 32.9454L251.19 32.309H252.827ZM258.512 34.0931C257.615 34.0893 256.848 33.8526 256.211 33.3829C255.575 32.9132 255.088 32.2294 254.751 31.3317C254.414 30.434 254.245 29.3526 254.245 28.0874C254.245 26.826 254.414 25.7484 254.751 24.8544C255.092 23.9605 255.581 23.2787 256.217 22.809C256.857 22.3393 257.622 22.1044 258.512 22.1044C259.402 22.1044 260.166 22.3412 260.802 22.8147C261.438 23.2844 261.925 23.9662 262.262 24.8601C262.603 25.7503 262.774 26.826 262.774 28.0874C262.774 29.3563 262.605 30.4397 262.268 31.3374C261.931 32.2313 261.444 32.9151 260.808 33.3885C260.171 33.8582 259.406 34.0931 258.512 34.0931ZM258.512 32.576C259.3 32.576 259.916 32.1916 260.359 31.4226C260.806 30.6537 261.029 29.5419 261.029 28.0874C261.029 27.1215 260.927 26.3052 260.723 25.6385C260.522 24.9681 260.232 24.4605 259.853 24.1158C259.478 23.7673 259.031 23.5931 258.512 23.5931C257.728 23.5931 257.113 23.9794 256.666 24.7522C256.219 25.5249 255.993 26.6366 255.99 28.0874C255.99 29.0571 256.09 29.8772 256.291 30.5476C256.495 31.2143 256.785 31.72 257.16 32.0647C257.535 32.4056 257.986 32.576 258.512 32.576ZM268.52 34.0931C267.623 34.0893 266.856 33.8526 266.219 33.3829C265.583 32.9132 265.096 32.2294 264.759 31.3317C264.422 30.434 264.253 29.3526 264.253 28.0874C264.253 26.826 264.422 25.7484 264.759 24.8544C265.1 23.9605 265.589 23.2787 266.225 22.809C266.865 22.3393 267.63 22.1044 268.52 22.1044C269.411 22.1044 270.174 22.3412 270.81 22.8147C271.447 23.2844 271.933 23.9662 272.27 24.8601C272.611 25.7503 272.782 26.826 272.782 28.0874C272.782 29.3563 272.613 30.4397 272.276 31.3374C271.939 32.2313 271.452 32.9151 270.816 33.3885C270.18 33.8582 269.414 34.0931 268.52 34.0931ZM268.52 32.576C269.308 32.576 269.924 32.1916 270.367 31.4226C270.814 30.6537 271.037 29.5419 271.037 28.0874C271.037 27.1215 270.935 26.3052 270.731 25.6385C270.53 24.9681 270.24 24.4605 269.861 24.1158C269.486 23.7673 269.039 23.5931 268.52 23.5931C267.736 23.5931 267.121 23.9794 266.674 24.7522C266.227 25.5249 266.002 26.6366 265.998 28.0874C265.998 29.0571 266.098 29.8772 266.299 30.5476C266.503 31.2143 266.793 31.72 267.168 32.0647C267.543 32.4056 267.994 32.576 268.52 32.576ZM278.529 34.0931C277.631 34.0893 276.864 33.8526 276.227 33.3829C275.591 32.9132 275.104 32.2294 274.767 31.3317C274.43 30.434 274.262 29.3526 274.262 28.0874C274.262 26.826 274.43 25.7484 274.767 24.8544C275.108 23.9605 275.597 23.2787 276.233 22.809C276.873 22.3393 277.638 22.1044 278.529 22.1044C279.419 22.1044 280.182 22.3412 280.818 22.8147C281.455 23.2844 281.941 23.9662 282.279 24.8601C282.619 25.7503 282.79 26.826 282.79 28.0874C282.79 29.3563 282.621 30.4397 282.284 31.3374C281.947 32.2313 281.46 32.9151 280.824 33.3885C280.188 33.8582 279.423 34.0931 278.529 34.0931ZM278.529 32.576C279.316 32.576 279.932 32.1916 280.375 31.4226C280.822 30.6537 281.046 29.5419 281.046 28.0874C281.046 27.1215 280.943 26.3052 280.739 25.6385C280.538 24.9681 280.248 24.4605 279.869 24.1158C279.494 23.7673 279.048 23.5931 278.529 23.5931C277.744 23.5931 277.129 23.9794 276.682 24.7522C276.235 25.5249 276.01 26.6366 276.006 28.0874C276.006 29.0571 276.106 29.8772 276.307 30.5476C276.512 31.2143 276.801 31.72 277.176 32.0647C277.551 32.4056 278.002 32.576 278.529 32.576Z" fill="black"/>
<path d="M292.497 25.1726V26.5363H287.729V25.1726H292.497ZM289.008 23.0817H290.707V31.3374C290.707 31.6669 290.756 31.9151 290.854 32.0817C290.953 32.2446 291.08 32.3563 291.235 32.4169C291.394 32.4738 291.567 32.5022 291.752 32.5022C291.889 32.5022 292.008 32.4927 292.11 32.4738C292.212 32.4548 292.292 32.4397 292.349 32.4283L292.656 33.8317C292.557 33.8696 292.417 33.9075 292.235 33.9454C292.053 33.987 291.826 34.0098 291.553 34.0135C291.106 34.0211 290.69 33.9416 290.303 33.7749C289.917 33.6082 289.604 33.3507 289.366 33.0022C289.127 32.6537 289.008 32.2162 289.008 31.6897V23.0817ZM293.874 33.8999V32.7351L298.601 26.7294V26.6499H294.027V25.1726H300.721V26.4113L296.175 32.3431V32.4226H300.88V33.8999H293.874ZM309.104 27.3033L307.564 27.576C307.5 27.3791 307.397 27.1916 307.257 27.0135C307.121 26.8355 306.935 26.6897 306.7 26.576C306.465 26.4624 306.172 26.4056 305.82 26.4056C305.339 26.4056 304.937 26.5135 304.615 26.7294C304.293 26.9416 304.132 27.2162 304.132 27.5533C304.132 27.845 304.24 28.0798 304.456 28.2579C304.672 28.4359 305.02 28.5817 305.501 28.6954L306.888 29.0135C307.691 29.1991 308.289 29.4851 308.683 29.8715C309.077 30.2579 309.274 30.7598 309.274 31.3772C309.274 31.8999 309.123 32.3658 308.82 32.7749C308.52 33.1802 308.102 33.4984 307.564 33.7294C307.03 33.9605 306.411 34.076 305.706 34.076C304.729 34.076 303.931 33.8677 303.314 33.451C302.696 33.0306 302.318 32.434 302.178 31.6613L303.82 31.4113C303.922 31.8393 304.132 32.1632 304.45 32.3829C304.768 32.5988 305.183 32.7067 305.695 32.7067C306.251 32.7067 306.696 32.5912 307.03 32.3601C307.363 32.1253 307.53 31.8393 307.53 31.5022C307.53 31.2294 307.428 31.0003 307.223 30.8147C307.022 30.6291 306.714 30.4889 306.297 30.3942L304.82 30.0704C304.005 29.8848 303.403 29.5893 303.013 29.184C302.626 28.7787 302.433 28.2654 302.433 27.6442C302.433 27.1291 302.577 26.6783 302.865 26.2919C303.153 25.9056 303.551 25.6044 304.058 25.3885C304.566 25.1688 305.147 25.059 305.803 25.059C306.746 25.059 307.488 25.2635 308.03 25.6726C308.571 26.0779 308.929 26.6215 309.104 27.3033Z" fill="black" fill-opacity="0.83"/>
<path d="M284.79 52.8999V43.4454H288.16C288.896 43.4454 289.505 43.5792 289.989 43.847C290.472 44.1147 290.833 44.481 291.073 44.9457C291.313 45.4074 291.433 45.9275 291.433 46.5061C291.433 47.0878 291.312 47.611 291.069 48.0757C290.829 48.5373 290.466 48.9036 289.979 49.1744C289.496 49.4422 288.888 49.576 288.156 49.576H285.838V48.3665H288.027C288.491 48.3665 288.868 48.2865 289.158 48.1265C289.447 47.9633 289.659 47.7418 289.795 47.4617C289.93 47.1816 289.998 46.8631 289.998 46.5061C289.998 46.1491 289.93 45.8321 289.795 45.5551C289.659 45.2781 289.445 45.0611 289.153 44.9042C288.864 44.7472 288.482 44.6687 288.008 44.6687H286.217V52.8999H284.79ZM294.735 53.0569C294.286 53.0569 293.88 52.9738 293.516 52.8076C293.153 52.6383 292.865 52.3936 292.653 52.0736C292.444 51.7535 292.339 51.3611 292.339 50.8964C292.339 50.4963 292.416 50.1669 292.57 49.9084C292.724 49.6499 292.932 49.4452 293.193 49.2944C293.455 49.1436 293.747 49.0298 294.07 48.9528C294.393 48.8759 294.723 48.8174 295.058 48.7774C295.483 48.7281 295.828 48.6881 296.092 48.6574C296.357 48.6235 296.549 48.5696 296.669 48.4958C296.789 48.4219 296.849 48.3019 296.849 48.1357V48.1034C296.849 47.7002 296.736 47.3878 296.508 47.1662C296.283 46.9446 295.948 46.8339 295.501 46.8339C295.037 46.8339 294.67 46.937 294.403 47.1432C294.138 47.3463 293.955 47.5725 293.853 47.8218L292.556 47.5263C292.71 47.0955 292.935 46.7477 293.23 46.483C293.529 46.2152 293.872 46.0214 294.26 45.9013C294.647 45.7782 295.055 45.7167 295.483 45.7167C295.766 45.7167 296.066 45.7505 296.383 45.8182C296.703 45.8829 297.002 46.0029 297.279 46.1783C297.559 46.3537 297.788 46.6046 297.967 46.9308C298.145 47.254 298.234 47.6741 298.234 48.1911V52.8999H296.886V51.9304H296.831C296.742 52.1089 296.608 52.2844 296.429 52.4567C296.251 52.6291 296.022 52.7722 295.742 52.8861C295.461 52.9999 295.126 53.0569 294.735 53.0569ZM295.035 51.9489C295.417 51.9489 295.743 51.8735 296.014 51.7227C296.288 51.5719 296.496 51.3749 296.637 51.1318C296.782 50.8856 296.854 50.6224 296.854 50.3424V49.4283C296.805 49.4776 296.709 49.5237 296.568 49.5668C296.429 49.6068 296.271 49.6422 296.092 49.673C295.914 49.7007 295.74 49.7268 295.571 49.7515C295.401 49.773 295.26 49.7915 295.146 49.8069C294.878 49.8407 294.634 49.8977 294.412 49.9777C294.193 50.0577 294.018 50.1731 293.886 50.3239C293.756 50.4716 293.692 50.6686 293.692 50.9148C293.692 51.2564 293.818 51.515 294.07 51.6904C294.323 51.8627 294.644 51.9489 295.035 51.9489ZM299.813 52.8999V45.809H301.193V52.8999H299.813ZM300.51 44.7149C300.27 44.7149 300.064 44.6349 299.891 44.4748C299.722 44.3117 299.637 44.1178 299.637 43.8932C299.637 43.6654 299.722 43.4715 299.891 43.3115C300.064 43.1484 300.27 43.0668 300.51 43.0668C300.75 43.0668 300.955 43.1484 301.124 43.3115C301.296 43.4715 301.383 43.6654 301.383 43.8932C301.383 44.1178 301.296 44.3117 301.124 44.4748C300.955 44.6349 300.75 44.7149 300.51 44.7149ZM305.445 53.0384C304.872 53.0384 304.361 52.8922 303.912 52.5998C303.466 52.3044 303.115 51.8843 302.859 51.3395C302.607 50.7917 302.481 50.1346 302.481 49.3683C302.481 48.602 302.609 47.9464 302.864 47.4017C303.123 46.8569 303.477 46.4399 303.926 46.1506C304.375 45.8613 304.885 45.7167 305.454 45.7167C305.894 45.7167 306.248 45.7905 306.516 45.9383C306.787 46.0829 306.996 46.2522 307.144 46.4461C307.294 46.64 307.411 46.8108 307.494 46.9585H307.578V43.4454H308.958V52.8999H307.61V51.7966H307.494C307.411 51.9474 307.291 52.1197 307.134 52.3136C306.98 52.5075 306.768 52.6768 306.497 52.8214C306.226 52.9661 305.876 53.0384 305.445 53.0384ZM305.749 51.8612C306.146 51.8612 306.482 51.7566 306.756 51.5473C307.033 51.3349 307.242 51.041 307.384 50.6655C307.528 50.2901 307.601 49.853 307.601 49.3544C307.601 48.862 307.53 48.4312 307.388 48.0618C307.247 47.6925 307.039 47.4048 306.765 47.1986C306.491 46.9924 306.153 46.8892 305.749 46.8892C305.334 46.8892 304.988 46.997 304.711 47.2124C304.434 47.4278 304.224 47.7218 304.083 48.0941C303.944 48.4665 303.875 48.8866 303.875 49.3544C303.875 49.8284 303.946 50.2547 304.087 50.6332C304.229 51.0118 304.438 51.3118 304.715 51.5334C304.995 51.7519 305.34 51.8612 305.749 51.8612Z" fill="#379E2D"/>
<rect x="24" y="73" width="38" height="38" rx="19" fill="#0085EE"/>
<g clip-path="url(#clip1_1_2963)">
<path d="M43.645 80.5783C43.4559 80.446 43.2308 80.375 43 80.375C42.7692 80.375 42.5441 80.446 42.355 80.5783C40.9054 81.6466 39.5791 82.8729 38.4006 84.2345C35.7672 87.2589 34.375 90.4642 34.375 93.4998C34.375 95.7873 35.2837 97.9811 36.9012 99.5986C38.5187 101.216 40.7125 102.125 43 102.125C45.2875 102.125 47.4813 101.216 49.0988 99.5986C50.7163 97.9811 51.625 95.7873 51.625 93.4998C51.625 86.2473 43.9713 80.8061 43.645 80.5783ZM43 99.8748C41.3098 99.8731 39.6893 99.2009 38.4941 98.0057C37.2989 96.8105 36.6267 95.19 36.625 93.4998C36.625 90.377 38.5 87.5589 40.0656 85.7458C40.9595 84.719 41.9414 83.7723 43 82.9164C44.0586 83.7723 45.0405 84.719 45.9344 85.7458C47.5 87.5589 49.375 90.377 49.375 93.4998C49.3733 95.19 48.7011 96.8105 47.5059 98.0057C46.3107 99.2009 44.6902 99.8731 43 99.8748ZM47.6519 94.9623C47.4164 95.711 47.0036 96.3917 46.4487 96.9466C45.8937 97.5016 45.213 97.9143 44.4644 98.1498C44.3551 98.1838 44.2413 98.2012 44.1269 98.2014C43.8579 98.2016 43.5979 98.1054 43.3937 97.9304C43.1896 97.7553 43.0549 97.5129 43.0141 97.2471C42.9733 96.9813 43.029 96.7096 43.1713 96.4814C43.3135 96.2532 43.5328 96.0834 43.7894 96.0029C44.1928 95.8762 44.5597 95.6538 44.8587 95.3548C45.1578 95.0558 45.3801 94.6889 45.5069 94.2854C45.5512 94.1445 45.6228 94.0136 45.7177 93.9004C45.8126 93.7871 45.9289 93.6936 46.0599 93.6253C46.3245 93.4873 46.6331 93.46 46.9178 93.5495C47.0588 93.5938 47.1896 93.6655 47.3029 93.7604C47.4162 93.8553 47.5097 93.9715 47.578 94.1026C47.6463 94.2336 47.6882 94.3768 47.7012 94.524C47.7142 94.6712 47.6981 94.8195 47.6537 94.9604L47.6519 94.9623Z" fill="white"/>
</g>
<path d="M78.5556 87L75.3283 75.3636H77.1749L79.4419 84.375H79.5499L81.9078 75.3636H83.7374L86.0953 84.3807H86.2033L88.4647 75.3636H90.3169L87.084 87H85.3169L82.8681 78.2841H82.7772L80.3283 87H78.5556ZM93.1418 87.1932C92.5888 87.1932 92.0888 87.0909 91.6418 86.8864C91.1948 86.678 90.8407 86.3769 90.5793 85.983C90.3217 85.589 90.193 85.1061 90.193 84.5341C90.193 84.0417 90.2877 83.6364 90.477 83.3182C90.6664 83 90.9221 82.7481 91.2441 82.5625C91.5661 82.3769 91.9259 82.2367 92.3236 82.142C92.7214 82.0473 93.1267 81.9754 93.5395 81.9261C94.0623 81.8655 94.4865 81.8163 94.8123 81.7784C95.138 81.7367 95.3748 81.6705 95.5225 81.5795C95.6702 81.4886 95.7441 81.3409 95.7441 81.1364V81.0966C95.7441 80.6004 95.6039 80.2159 95.3236 79.9432C95.0471 79.6705 94.6342 79.5341 94.085 79.5341C93.513 79.5341 93.0623 79.661 92.7327 79.9148C92.407 80.1648 92.1816 80.4432 92.0566 80.75L90.46 80.3864C90.6494 79.8561 90.9259 79.428 91.2895 79.1023C91.657 78.7727 92.0793 78.5341 92.5566 78.3864C93.0339 78.2348 93.5358 78.1591 94.0623 78.1591C94.4108 78.1591 94.7801 78.2008 95.1702 78.2841C95.5642 78.3636 95.9316 78.5114 96.2725 78.7273C96.6172 78.9432 96.8994 79.2519 97.1191 79.6534C97.3388 80.0511 97.4486 80.5682 97.4486 81.2045V87H95.7895V85.8068H95.7214C95.6115 86.0265 95.4467 86.2424 95.227 86.4545C95.0073 86.6667 94.7252 86.8428 94.3805 86.983C94.0358 87.1231 93.6229 87.1932 93.1418 87.1932ZM93.5111 85.8295C93.9808 85.8295 94.3823 85.7367 94.7157 85.5511C95.0528 85.3655 95.3085 85.1231 95.4827 84.8239C95.6608 84.5208 95.7498 84.197 95.7498 83.8523V82.7273C95.6892 82.7879 95.5717 82.8447 95.3975 82.8977C95.227 82.947 95.032 82.9905 94.8123 83.0284C94.5926 83.0625 94.3786 83.0947 94.1702 83.125C93.9619 83.1515 93.7877 83.1742 93.6475 83.1932C93.318 83.2348 93.0168 83.3049 92.7441 83.4034C92.4752 83.5019 92.2592 83.6439 92.0964 83.8295C91.9373 84.0114 91.8577 84.2538 91.8577 84.5568C91.8577 84.9773 92.013 85.2955 92.3236 85.5114C92.6342 85.7235 93.0301 85.8295 93.5111 85.8295ZM103.465 78.2727V79.6364H98.6982V78.2727H103.465ZM99.9766 76.1818H101.676V84.4375C101.676 84.767 101.725 85.0152 101.823 85.1818C101.922 85.3447 102.049 85.4564 102.204 85.517C102.363 85.5739 102.535 85.6023 102.721 85.6023C102.857 85.6023 102.977 85.5928 103.079 85.5739C103.181 85.5549 103.261 85.5398 103.318 85.5284L103.624 86.9318C103.526 86.9697 103.386 87.0076 103.204 87.0455C103.022 87.0871 102.795 87.1098 102.522 87.1136C102.075 87.1212 101.658 87.0417 101.272 86.875C100.886 86.7083 100.573 86.4508 100.335 86.1023C100.096 85.7538 99.9766 85.3163 99.9766 84.7898V76.1818ZM108.692 87.1761C107.832 87.1761 107.092 86.9924 106.471 86.625C105.853 86.2538 105.376 85.733 105.039 85.0625C104.705 84.3883 104.539 83.5985 104.539 82.6932C104.539 81.7992 104.705 81.0114 105.039 80.3295C105.376 79.6477 105.846 79.1155 106.448 78.733C107.054 78.3504 107.762 78.1591 108.573 78.1591C109.065 78.1591 109.543 78.2405 110.005 78.4034C110.467 78.5663 110.882 78.822 111.249 79.1705C111.616 79.5189 111.906 79.9716 112.118 80.5284C112.33 81.0814 112.436 81.7538 112.436 82.5455V83.1477H105.499V81.875H110.772C110.772 81.428 110.681 81.0322 110.499 80.6875C110.317 80.339 110.061 80.0644 109.732 79.8636C109.406 79.6629 109.024 79.5625 108.584 79.5625C108.107 79.5625 107.69 79.6799 107.334 79.9148C106.982 80.1458 106.709 80.4489 106.516 80.8239C106.327 81.1951 106.232 81.5985 106.232 82.0341V83.0284C106.232 83.6117 106.334 84.108 106.539 84.517C106.747 84.9261 107.037 85.2386 107.408 85.4545C107.779 85.6667 108.213 85.7727 108.709 85.7727C109.031 85.7727 109.325 85.7273 109.59 85.6364C109.855 85.5417 110.084 85.4015 110.277 85.2159C110.471 85.0303 110.618 84.8011 110.721 84.5284L112.329 84.8182C112.2 85.2917 111.969 85.7064 111.635 86.0625C111.306 86.4148 110.891 86.6894 110.391 86.8864C109.895 87.0795 109.329 87.1761 108.692 87.1761ZM114.001 87V78.2727H115.643V79.6591H115.734C115.893 79.1894 116.174 78.8201 116.575 78.5511C116.981 78.2784 117.439 78.142 117.95 78.142C118.056 78.142 118.181 78.1458 118.325 78.1534C118.473 78.161 118.589 78.1705 118.672 78.1818V79.8068C118.604 79.7879 118.482 79.767 118.308 79.7443C118.134 79.7178 117.96 79.7045 117.786 79.7045C117.384 79.7045 117.026 79.7898 116.712 79.9602C116.401 80.1269 116.155 80.3598 115.973 80.6591C115.791 80.9545 115.7 81.2917 115.7 81.6705V87H114.001Z" fill="black"/>
<path d="M79.357 106.2H76.215V96.0184H79.4962C80.4839 96.0184 81.3291 96.2222 82.0317 96.6299C82.7344 97.0342 83.273 97.6159 83.6475 98.3749C84.022 99.1306 84.2093 100.035 84.2093 101.089C84.2093 102.15 84.0204 103.063 83.6425 103.829C83.2647 104.591 82.7145 105.178 81.992 105.589C81.2694 105.996 80.3911 106.2 79.357 106.2ZM77.4479 105.106H79.2775C80.1193 105.106 80.817 104.944 81.3705 104.619C81.924 104.294 82.3367 103.832 82.6085 103.232C82.8802 102.632 83.0161 101.918 83.0161 101.089C83.0161 100.267 82.8819 99.5598 82.6134 98.9665C82.345 98.3699 81.9439 97.9126 81.4103 97.5944C80.8767 97.2729 80.2121 97.1121 79.4167 97.1121H77.4479V105.106ZM88.0856 106.379C87.6017 106.379 87.1625 106.288 86.7681 106.106C86.3737 105.92 86.0605 105.653 85.8285 105.305C85.5964 104.954 85.4804 104.53 85.4804 104.033C85.4804 103.595 85.5666 103.24 85.739 102.969C85.9113 102.694 86.1417 102.478 86.43 102.322C86.7184 102.167 87.0366 102.051 87.3846 101.974C87.7359 101.895 88.0889 101.832 88.4435 101.785C88.9075 101.726 89.2837 101.681 89.5721 101.651C89.8637 101.618 90.0758 101.563 90.2084 101.487C90.3443 101.411 90.4123 101.278 90.4123 101.089V101.05C90.4123 100.559 90.278 100.178 90.0096 99.9062C89.7444 99.6344 89.3417 99.4985 88.8015 99.4985C88.2413 99.4985 87.8022 99.6211 87.484 99.8664C87.1658 100.112 86.9421 100.373 86.8128 100.652L85.6992 100.254C85.8981 99.7902 86.1632 99.4289 86.4946 99.1704C86.8294 98.9085 87.194 98.7262 87.5884 98.6235C87.9861 98.5174 88.3772 98.4644 88.7617 98.4644C89.007 98.4644 89.2887 98.4942 89.6069 98.5539C89.9284 98.6102 90.2383 98.7279 90.5366 98.9069C90.8382 99.0858 91.0884 99.356 91.2873 99.7172C91.4861 100.079 91.5856 100.562 91.5856 101.169V106.2H90.4123V105.166H90.3526C90.2731 105.332 90.1405 105.509 89.9549 105.698C89.7693 105.887 89.5223 106.048 89.2141 106.18C88.9059 106.313 88.5297 106.379 88.0856 106.379ZM88.2645 105.325C88.7285 105.325 89.1196 105.234 89.4378 105.052C89.7593 104.869 90.0013 104.634 90.1637 104.346C90.3294 104.057 90.4123 103.754 90.4123 103.436V102.362C90.3625 102.422 90.2532 102.476 90.0841 102.526C89.9184 102.573 89.7262 102.614 89.5074 102.65C89.292 102.684 89.0815 102.713 88.876 102.74C88.6739 102.763 88.5098 102.783 88.3839 102.8C88.0789 102.839 87.7939 102.904 87.5287 102.994C87.2669 103.08 87.0548 103.211 86.8924 103.386C86.7333 103.559 86.6537 103.794 86.6537 104.092C86.6537 104.5 86.8045 104.808 87.1062 105.017C87.4111 105.222 87.7972 105.325 88.2645 105.325ZM95.1772 106.2L92.8505 98.5638H94.0834L95.734 104.41H95.8135L97.4442 98.5638H98.6971L100.308 104.391H100.387L102.038 98.5638H103.271L100.944 106.2H99.7908L98.1204 100.334H98.001L96.3306 106.2H95.1772ZM106.789 106.379C106.305 106.379 105.866 106.288 105.472 106.106C105.077 105.92 104.764 105.653 104.532 105.305C104.3 104.954 104.184 104.53 104.184 104.033C104.184 103.595 104.27 103.24 104.443 102.969C104.615 102.694 104.845 102.478 105.134 102.322C105.422 102.167 105.74 102.051 106.088 101.974C106.44 101.895 106.793 101.832 107.147 101.785C107.611 101.726 107.987 101.681 108.276 101.651C108.567 101.618 108.78 101.563 108.912 101.487C109.048 101.411 109.116 101.278 109.116 101.089V101.05C109.116 100.559 108.982 100.178 108.713 99.9062C108.448 99.6344 108.045 99.4985 107.505 99.4985C106.945 99.4985 106.506 99.6211 106.188 99.8664C105.869 100.112 105.646 100.373 105.517 100.652L104.403 100.254C104.602 99.7902 104.867 99.4289 105.198 99.1704C105.533 98.9085 105.898 98.7262 106.292 98.6235C106.69 98.5174 107.081 98.4644 107.465 98.4644C107.711 98.4644 107.992 98.4942 108.311 98.5539C108.632 98.6102 108.942 98.7279 109.24 98.9069C109.542 99.0858 109.792 99.356 109.991 99.7172C110.19 100.079 110.289 100.562 110.289 101.169V106.2H109.116V105.166H109.056C108.977 105.332 108.844 105.509 108.659 105.698C108.473 105.887 108.226 106.048 107.918 106.18C107.61 106.313 107.233 106.379 106.789 106.379ZM106.968 105.325C107.432 105.325 107.823 105.234 108.142 105.052C108.463 104.869 108.705 104.634 108.867 104.346C109.033 104.057 109.116 103.754 109.116 103.436V102.362C109.066 102.422 108.957 102.476 108.788 102.526C108.622 102.573 108.43 102.614 108.211 102.65C107.996 102.684 107.785 102.713 107.58 102.74C107.378 102.763 107.213 102.783 107.088 102.8C106.783 102.839 106.498 102.904 106.232 102.994C105.971 103.08 105.758 103.211 105.596 103.386C105.437 103.559 105.357 103.794 105.357 104.092C105.357 104.5 105.508 104.808 105.81 105.017C106.115 105.222 106.501 105.325 106.968 105.325ZM117.56 100.274L116.506 100.572C116.44 100.397 116.342 100.226 116.213 100.06C116.087 99.8912 115.914 99.752 115.695 99.6427C115.477 99.5333 115.197 99.4786 114.855 99.4786C114.388 99.4786 113.999 99.5863 113.687 99.8018C113.379 100.014 113.225 100.284 113.225 100.612C113.225 100.904 113.331 101.134 113.543 101.303C113.755 101.472 114.086 101.613 114.537 101.726L115.671 102.004C116.353 102.17 116.862 102.423 117.197 102.765C117.532 103.103 117.699 103.539 117.699 104.072C117.699 104.51 117.573 104.901 117.321 105.246C117.073 105.59 116.725 105.862 116.277 106.061C115.83 106.26 115.309 106.359 114.716 106.359C113.937 106.359 113.293 106.19 112.782 105.852C112.272 105.514 111.949 105.02 111.813 104.371L112.926 104.092C113.032 104.503 113.233 104.811 113.528 105.017C113.826 105.222 114.216 105.325 114.696 105.325C115.243 105.325 115.677 105.209 115.999 104.977C116.324 104.742 116.486 104.46 116.486 104.132C116.486 103.867 116.393 103.645 116.208 103.466C116.022 103.284 115.737 103.148 115.352 103.058L114.08 102.76C113.38 102.594 112.867 102.337 112.539 101.989C112.214 101.638 112.051 101.199 112.051 100.672C112.051 100.241 112.172 99.8598 112.414 99.5283C112.66 99.1969 112.993 98.9367 113.414 98.7478C113.838 98.5589 114.318 98.4644 114.855 98.4644C115.611 98.4644 116.204 98.6301 116.635 98.9616C117.069 99.293 117.378 99.7305 117.56 100.274ZM121.432 106.379C120.948 106.379 120.509 106.288 120.115 106.106C119.72 105.92 119.407 105.653 119.175 105.305C118.943 104.954 118.827 104.53 118.827 104.033C118.827 103.595 118.913 103.24 119.086 102.969C119.258 102.694 119.488 102.478 119.777 102.322C120.065 102.167 120.383 102.051 120.731 101.974C121.083 101.895 121.436 101.832 121.79 101.785C122.254 101.726 122.631 101.681 122.919 101.651C123.211 101.618 123.423 101.563 123.555 101.487C123.691 101.411 123.759 101.278 123.759 101.089V101.05C123.759 100.559 123.625 100.178 123.356 99.9062C123.091 99.6344 122.689 99.4985 122.148 99.4985C121.588 99.4985 121.149 99.6211 120.831 99.8664C120.513 100.112 120.289 100.373 120.16 100.652L119.046 100.254C119.245 99.7902 119.51 99.4289 119.841 99.1704C120.176 98.9085 120.541 98.7262 120.935 98.6235C121.333 98.5174 121.724 98.4644 122.108 98.4644C122.354 98.4644 122.635 98.4942 122.954 98.5539C123.275 98.6102 123.585 98.7279 123.883 98.9069C124.185 99.0858 124.435 99.356 124.634 99.7172C124.833 100.079 124.932 100.562 124.932 101.169V106.2H123.759V105.166H123.699C123.62 105.332 123.487 105.509 123.302 105.698C123.116 105.887 122.869 106.048 122.561 106.18C122.253 106.313 121.876 106.379 121.432 106.379ZM121.611 105.325C122.075 105.325 122.466 105.234 122.785 105.052C123.106 104.869 123.348 104.634 123.51 104.346C123.676 104.057 123.759 103.754 123.759 103.436V102.362C123.709 102.422 123.6 102.476 123.431 102.526C123.265 102.573 123.073 102.614 122.854 102.65C122.639 102.684 122.428 102.713 122.223 102.74C122.021 102.763 121.857 102.783 121.731 102.8C121.426 102.839 121.141 102.904 120.876 102.994C120.614 103.08 120.402 103.211 120.239 103.386C120.08 103.559 120.001 103.794 120.001 104.092C120.001 104.5 120.151 104.808 120.453 105.017C120.758 105.222 121.144 105.325 121.611 105.325Z" fill="black" fill-opacity="0.5"/>
<path d="M238.273 76.2635V87.8999H236.512V78.0249H236.444L233.66 79.8431V78.1613L236.563 76.2635H238.273ZM241.101 87.8999V86.6272L245.039 82.5476C245.459 82.1044 245.806 81.7162 246.078 81.3829C246.355 81.0457 246.561 80.7257 246.698 80.4226C246.834 80.1196 246.902 79.7976 246.902 79.4567C246.902 79.0704 246.811 78.737 246.63 78.4567C246.448 78.1726 246.2 77.9548 245.885 77.8033C245.571 77.648 245.217 77.5704 244.823 77.5704C244.406 77.5704 244.042 77.6556 243.732 77.826C243.421 77.9965 243.183 78.237 243.016 78.5476C242.849 78.8582 242.766 79.2219 242.766 79.6385H241.09C241.09 78.9302 241.253 78.3109 241.578 77.7806C241.904 77.2503 242.351 76.8393 242.919 76.5476C243.488 76.2522 244.133 76.1044 244.857 76.1044C245.588 76.1044 246.232 76.2503 246.789 76.5419C247.349 76.8298 247.787 77.2238 248.101 77.7238C248.416 78.22 248.573 78.7806 248.573 79.4056C248.573 79.8374 248.491 80.2598 248.328 80.6726C248.169 81.0855 247.891 81.5457 247.493 82.0533C247.096 82.5571 246.542 83.1688 245.834 83.8885L243.522 86.309V86.3942H248.76V87.8999H241.101ZM252.827 86.309L252.741 86.9283C252.685 87.3829 252.588 87.8563 252.452 88.3488C252.319 88.845 252.181 89.3052 252.037 89.7294C251.897 90.1537 251.781 90.4908 251.69 90.7408H250.486C250.535 90.506 250.603 90.1878 250.69 89.7863C250.777 89.3885 250.863 88.9435 250.946 88.451C251.029 87.9586 251.092 87.4567 251.133 86.9454L251.19 86.309H252.827ZM258.512 88.0931C257.615 88.0893 256.848 87.8526 256.211 87.3829C255.575 86.9132 255.088 86.2294 254.751 85.3317C254.414 84.434 254.245 83.3526 254.245 82.0874C254.245 80.826 254.414 79.7484 254.751 78.8544C255.092 77.9605 255.581 77.2787 256.217 76.809C256.857 76.3393 257.622 76.1044 258.512 76.1044C259.402 76.1044 260.166 76.3412 260.802 76.8147C261.438 77.2844 261.925 77.9662 262.262 78.8601C262.603 79.7503 262.774 80.826 262.774 82.0874C262.774 83.3563 262.605 84.4397 262.268 85.3374C261.931 86.2313 261.444 86.9151 260.808 87.3885C260.171 87.8582 259.406 88.0931 258.512 88.0931ZM258.512 86.576C259.3 86.576 259.916 86.1916 260.359 85.4226C260.806 84.6537 261.029 83.5419 261.029 82.0874C261.029 81.1215 260.927 80.3052 260.723 79.6385C260.522 78.9681 260.232 78.4605 259.853 78.1158C259.478 77.7673 259.031 77.5931 258.512 77.5931C257.728 77.5931 257.113 77.9794 256.666 78.7522C256.219 79.5249 255.993 80.6366 255.99 82.0874C255.99 83.0571 256.09 83.8772 256.291 84.5476C256.495 85.2143 256.785 85.72 257.16 86.0647C257.535 86.4056 257.986 86.576 258.512 86.576ZM268.52 88.0931C267.623 88.0893 266.856 87.8526 266.219 87.3829C265.583 86.9132 265.096 86.2294 264.759 85.3317C264.422 84.434 264.253 83.3526 264.253 82.0874C264.253 80.826 264.422 79.7484 264.759 78.8544C265.1 77.9605 265.589 77.2787 266.225 76.809C266.865 76.3393 267.63 76.1044 268.52 76.1044C269.411 76.1044 270.174 76.3412 270.81 76.8147C271.447 77.2844 271.933 77.9662 272.27 78.8601C272.611 79.7503 272.782 80.826 272.782 82.0874C272.782 83.3563 272.613 84.4397 272.276 85.3374C271.939 86.2313 271.452 86.9151 270.816 87.3885C270.18 87.8582 269.414 88.0931 268.52 88.0931ZM268.52 86.576C269.308 86.576 269.924 86.1916 270.367 85.4226C270.814 84.6537 271.037 83.5419 271.037 82.0874C271.037 81.1215 270.935 80.3052 270.731 79.6385C270.53 78.9681 270.24 78.4605 269.861 78.1158C269.486 77.7673 269.039 77.5931 268.52 77.5931C267.736 77.5931 267.121 77.9794 266.674 78.7522C266.227 79.5249 266.002 80.6366 265.998 82.0874C265.998 83.0571 266.098 83.8772 266.299 84.5476C266.503 85.2143 266.793 85.72 267.168 86.0647C267.543 86.4056 267.994 86.576 268.52 86.576ZM278.529 88.0931C277.631 88.0893 276.864 87.8526 276.227 87.3829C275.591 86.9132 275.104 86.2294 274.767 85.3317C274.43 84.434 274.262 83.3526 274.262 82.0874C274.262 80.826 274.43 79.7484 274.767 78.8544C275.108 77.9605 275.597 77.2787 276.233 76.809C276.873 76.3393 277.638 76.1044 278.529 76.1044C279.419 76.1044 280.182 76.3412 280.818 76.8147C281.455 77.2844 281.941 77.9662 282.279 78.8601C282.619 79.7503 282.79 80.826 282.79 82.0874C282.79 83.3563 282.621 84.4397 282.284 85.3374C281.947 86.2313 281.46 86.9151 280.824 87.3885C280.188 87.8582 279.423 88.0931 278.529 88.0931ZM278.529 86.576C279.316 86.576 279.932 86.1916 280.375 85.4226C280.822 84.6537 281.046 83.5419 281.046 82.0874C281.046 81.1215 280.943 80.3052 280.739 79.6385C280.538 78.9681 280.248 78.4605 279.869 78.1158C279.494 77.7673 279.048 77.5931 278.529 77.5931C277.744 77.5931 277.129 77.9794 276.682 78.7522C276.235 79.5249 276.01 80.6366 276.006 82.0874C276.006 83.0571 276.106 83.8772 276.307 84.5476C276.512 85.2143 276.801 85.72 277.176 86.0647C277.551 86.4056 278.002 86.576 278.529 86.576Z" fill="black"/>
<path d="M292.497 79.1726V80.5363H287.729V79.1726H292.497ZM289.008 77.0817H290.707V85.3374C290.707 85.6669 290.756 85.9151 290.854 86.0817C290.953 86.2446 291.08 86.3563 291.235 86.4169C291.394 86.4738 291.567 86.5022 291.752 86.5022C291.889 86.5022 292.008 86.4927 292.11 86.4738C292.212 86.4548 292.292 86.4397 292.349 86.4283L292.656 87.8317C292.557 87.8696 292.417 87.9075 292.235 87.9454C292.053 87.987 291.826 88.0098 291.553 88.0135C291.106 88.0211 290.69 87.9416 290.303 87.7749C289.917 87.6082 289.604 87.3507 289.366 87.0022C289.127 86.6537 289.008 86.2162 289.008 85.6897V77.0817ZM293.874 87.8999V86.7351L298.601 80.7294V80.6499H294.027V79.1726H300.721V80.4113L296.175 86.3431V86.4226H300.88V87.8999H293.874ZM309.104 81.3033L307.564 81.576C307.5 81.3791 307.397 81.1916 307.257 81.0135C307.121 80.8355 306.935 80.6897 306.7 80.576C306.465 80.4624 306.172 80.4056 305.82 80.4056C305.339 80.4056 304.937 80.5135 304.615 80.7294C304.293 80.9416 304.132 81.2162 304.132 81.5533C304.132 81.845 304.24 82.0798 304.456 82.2579C304.672 82.4359 305.02 82.5817 305.501 82.6954L306.888 83.0135C307.691 83.1991 308.289 83.4851 308.683 83.8715C309.077 84.2579 309.274 84.7598 309.274 85.3772C309.274 85.8999 309.123 86.3658 308.82 86.7749C308.52 87.1802 308.102 87.4984 307.564 87.7294C307.03 87.9605 306.411 88.076 305.706 88.076C304.729 88.076 303.931 87.8677 303.314 87.451C302.696 87.0306 302.318 86.434 302.178 85.6613L303.82 85.4113C303.922 85.8393 304.132 86.1632 304.45 86.3829C304.768 86.5988 305.183 86.7067 305.695 86.7067C306.251 86.7067 306.696 86.5912 307.03 86.3601C307.363 86.1253 307.53 85.8393 307.53 85.5022C307.53 85.2294 307.428 85.0003 307.223 84.8147C307.022 84.6291 306.714 84.4889 306.297 84.3942L304.82 84.0704C304.005 83.8848 303.403 83.5893 303.013 83.184C302.626 82.7787 302.433 82.2654 302.433 81.6442C302.433 81.1291 302.577 80.6783 302.865 80.2919C303.153 79.9056 303.551 79.6044 304.058 79.3885C304.566 79.1688 305.147 79.059 305.803 79.059C306.746 79.059 307.488 79.2635 308.03 79.6726C308.571 80.0779 308.929 80.6215 309.104 81.3033Z" fill="black" fill-opacity="0.83"/>
<path d="M284.79 106.9V97.4454H288.16C288.896 97.4454 289.505 97.5792 289.989 97.847C290.472 98.1147 290.833 98.481 291.073 98.9457C291.313 99.4074 291.433 99.9275 291.433 100.506C291.433 101.088 291.312 101.611 291.069 102.076C290.829 102.537 290.466 102.904 289.979 103.174C289.496 103.442 288.888 103.576 288.156 103.576H285.838V102.367H288.027C288.491 102.367 288.868 102.287 289.158 102.126C289.447 101.963 289.659 101.742 289.795 101.462C289.93 101.182 289.998 100.863 289.998 100.506C289.998 100.149 289.93 99.8321 289.795 99.5551C289.659 99.2781 289.445 99.0611 289.153 98.9042C288.864 98.7472 288.482 98.6687 288.008 98.6687H286.217V106.9H284.79ZM294.735 107.057C294.286 107.057 293.88 106.974 293.516 106.808C293.153 106.638 292.865 106.394 292.653 106.074C292.444 105.753 292.339 105.361 292.339 104.896C292.339 104.496 292.416 104.167 292.57 103.908C292.724 103.65 292.932 103.445 293.193 103.294C293.455 103.144 293.747 103.03 294.07 102.953C294.393 102.876 294.723 102.817 295.058 102.777C295.483 102.728 295.828 102.688 296.092 102.657C296.357 102.624 296.549 102.57 296.669 102.496C296.789 102.422 296.849 102.302 296.849 102.136V102.103C296.849 101.7 296.736 101.388 296.508 101.166C296.283 100.945 295.948 100.834 295.501 100.834C295.037 100.834 294.67 100.937 294.403 101.143C294.138 101.346 293.955 101.572 293.853 101.822L292.556 101.526C292.71 101.095 292.935 100.748 293.23 100.483C293.529 100.215 293.872 100.021 294.26 99.9013C294.647 99.7782 295.055 99.7167 295.483 99.7167C295.766 99.7167 296.066 99.7505 296.383 99.8182C296.703 99.8829 297.002 100.003 297.279 100.178C297.559 100.354 297.788 100.605 297.967 100.931C298.145 101.254 298.234 101.674 298.234 102.191V106.9H296.886V105.93H296.831C296.742 106.109 296.608 106.284 296.429 106.457C296.251 106.629 296.022 106.772 295.742 106.886C295.461 107 295.126 107.057 294.735 107.057ZM295.035 105.949C295.417 105.949 295.743 105.874 296.014 105.723C296.288 105.572 296.496 105.375 296.637 105.132C296.782 104.886 296.854 104.622 296.854 104.342V103.428C296.805 103.478 296.709 103.524 296.568 103.567C296.429 103.607 296.271 103.642 296.092 103.673C295.914 103.701 295.74 103.727 295.571 103.751C295.401 103.773 295.26 103.791 295.146 103.807C294.878 103.841 294.634 103.898 294.412 103.978C294.193 104.058 294.018 104.173 293.886 104.324C293.756 104.472 293.692 104.669 293.692 104.915C293.692 105.256 293.818 105.515 294.07 105.69C294.323 105.863 294.644 105.949 295.035 105.949ZM299.813 106.9V99.809H301.193V106.9H299.813ZM300.51 98.7149C300.27 98.7149 300.064 98.6349 299.891 98.4748C299.722 98.3117 299.637 98.1178 299.637 97.8932C299.637 97.6654 299.722 97.4715 299.891 97.3115C300.064 97.1484 300.27 97.0668 300.51 97.0668C300.75 97.0668 300.955 97.1484 301.124 97.3115C301.296 97.4715 301.383 97.6654 301.383 97.8932C301.383 98.1178 301.296 98.3117 301.124 98.4748C300.955 98.6349 300.75 98.7149 300.51 98.7149ZM305.445 107.038C304.872 107.038 304.361 106.892 303.912 106.6C303.466 106.304 303.115 105.884 302.859 105.34C302.607 104.792 302.481 104.135 302.481 103.368C302.481 102.602 302.609 101.946 302.864 101.402C303.123 100.857 303.477 100.44 303.926 100.151C304.375 99.8613 304.885 99.7167 305.454 99.7167C305.894 99.7167 306.248 99.7905 306.516 99.9383C306.787 100.083 306.996 100.252 307.144 100.446C307.294 100.64 307.411 100.811 307.494 100.958H307.578V97.4454H308.958V106.9H307.61V105.797H307.494C307.411 105.947 307.291 106.12 307.134 106.314C306.98 106.508 306.768 106.677 306.497 106.821C306.226 106.966 305.876 107.038 305.445 107.038ZM305.749 105.861C306.146 105.861 306.482 105.757 306.756 105.547C307.033 105.335 307.242 105.041 307.384 104.666C307.528 104.29 307.601 103.853 307.601 103.354C307.601 102.862 307.53 102.431 307.388 102.062C307.247 101.693 307.039 101.405 306.765 101.199C306.491 100.992 306.153 100.889 305.749 100.889C305.334 100.889 304.988 100.997 304.711 101.212C304.434 101.428 304.224 101.722 304.083 102.094C303.944 102.467 303.875 102.887 303.875 103.354C303.875 103.828 303.946 104.255 304.087 104.633C304.229 105.012 304.438 105.312 304.715 105.533C304.995 105.752 305.34 105.861 305.749 105.861Z" fill="#379E2D"/>
</g>
<defs>
<filter id="filter0_dd_1_2963" x="0" y="0" width="334" height="132" filterUnits="userSpaceOnUse" color-interpolation-filters="sRGB">
<feFlood flood-opacity="0" result="BackgroundImageFix"/>
<feColorMatrix in="SourceAlpha" type="matrix" values="0 0 0 0 0 0 0 0 0 0 0 0 0 0 0 0 0 0 127 0" result="hardAlpha"/>
<feOffset dy="1"/>
<feGaussianBlur stdDeviation="2"/>
<feComposite in2="hardAlpha" operator="out"/>
<feColorMatrix type="matrix" values="0 0 0 0 0.0470588 0 0 0 0 0.0470588 0 0 0 0 0.0509804 0 0 0 0.1 0"/>
<feBlend mode="normal" in2="BackgroundImageFix" result="effect1_dropShadow_1_2963"/>
<feColorMatrix in="SourceAlpha" type="matrix" values="0 0 0 0 0 0 0 0 0 0 0 0 0 0 0 0 0 0 127 0" result="hardAlpha"/>
<feOffset dy="1"/>
<feGaussianBlur stdDeviation="2"/>
<feComposite in2="hardAlpha" operator="out"/>
<feColorMatrix type="matrix" values="0 0 0 0 0.0470588 0 0 0 0 0.0470588 0 0 0 0 0.0509804 0 0 0 0.05 0"/>
<feBlend mode="normal" in2="effect1_dropShadow_1_2963" result="effect2_dropShadow_1_2963"/>
<feBlend mode="normal" in="SourceGraphic" in2="effect2_dropShadow_1_2963" result="shape"/>
</filter>
<clipPath id="clip0_1_2963">
<rect width="24" height="24" fill="white" transform="translate(31 26)"/>
</clipPath>
<clipPath id="clip1_1_2963">
<rect width="24" height="24" fill="white" transform="translate(31 80)"/>
</clipPath>
</defs>
</svg>
