<svg width="297" height="73" viewBox="19 17 297 73" fill="none" xmlns="http://www.w3.org/2000/svg">
<g clip-path="url(#clip0_1_2878)">
<rect x="19.5" y="17.3999" width="296" height="31" rx="8" fill="white"/>
<path d="M32.72 37.8999V29.3459H29.668V27.9599H37.284V29.3459H34.232V37.8999H32.72ZM40.4519 38.0679C39.7426 38.0679 39.1219 37.9092 38.5899 37.5919C38.0579 37.2746 37.6473 36.8219 37.3579 36.2339C37.0686 35.6459 36.9239 34.9599 36.9239 34.1759C36.9239 33.3826 37.0686 32.6966 37.3579 32.1179C37.6473 31.5392 38.0579 31.0912 38.5899 30.7739C39.1219 30.4472 39.7426 30.2839 40.4519 30.2839C41.1613 30.2839 41.7819 30.4472 42.3139 30.7739C42.8459 31.0912 43.2566 31.5392 43.5459 32.1179C43.8353 32.6966 43.9799 33.3826 43.9799 34.1759C43.9799 34.9599 43.8353 35.6459 43.5459 36.2339C43.2566 36.8219 42.8459 37.2746 42.3139 37.5919C41.7819 37.9092 41.1613 38.0679 40.4519 38.0679ZM40.4519 36.7799C41.0866 36.7799 41.5766 36.5512 41.9219 36.0939C42.2673 35.6272 42.4399 34.9879 42.4399 34.1759C42.4399 33.3639 42.2673 32.7292 41.9219 32.2719C41.5766 31.8052 41.0866 31.5719 40.4519 31.5719C39.8266 31.5719 39.3366 31.8052 38.9819 32.2719C38.6366 32.7292 38.4639 33.3639 38.4639 34.1759C38.4639 34.9879 38.6366 35.6272 38.9819 36.0939C39.3366 36.5512 39.8266 36.7799 40.4519 36.7799Z" fill="black" fill-opacity="0.46"/>
<path d="M53.1227 38.1239C52.2267 38.1239 51.438 37.9186 50.7567 37.5079C50.0754 37.0879 49.5434 36.4906 49.1607 35.7159C48.778 34.9412 48.5867 34.0172 48.5867 32.9439C48.5867 31.8799 48.7734 30.9606 49.1467 30.1859C49.5294 29.4019 50.0614 28.7999 50.7427 28.3799C51.424 27.9506 52.222 27.7359 53.1367 27.7359C54.3687 27.7359 55.3254 28.0439 56.0067 28.6599C56.688 29.2759 57.1314 30.1299 57.3367 31.2219L55.7547 31.3059C55.624 30.6246 55.344 30.0926 54.9147 29.7099C54.4854 29.3179 53.8927 29.1219 53.1367 29.1219C52.53 29.1219 52.0027 29.2759 51.5547 29.5839C51.116 29.8919 50.7707 30.3306 50.5187 30.8999C50.276 31.4692 50.1547 32.1506 50.1547 32.9439C50.1547 33.7372 50.276 34.4186 50.5187 34.9879C50.7707 35.5572 51.1207 35.9912 51.5687 36.2899C52.0167 36.5886 52.5347 36.7379 53.1227 36.7379C53.9254 36.7379 54.546 36.5279 54.9847 36.1079C55.4327 35.6786 55.7127 35.0906 55.8247 34.3439L57.4067 34.4279C57.2854 35.1839 57.0427 35.8372 56.6787 36.3879C56.3147 36.9386 55.834 37.3679 55.2367 37.6759C54.6394 37.9746 53.9347 38.1239 53.1227 38.1239ZM61.9578 38.0679C61.2485 38.0679 60.6278 37.9092 60.0958 37.5919C59.5638 37.2746 59.1531 36.8219 58.8638 36.2339C58.5745 35.6459 58.4298 34.9599 58.4298 34.1759C58.4298 33.3826 58.5745 32.6966 58.8638 32.1179C59.1531 31.5392 59.5638 31.0912 60.0958 30.7739C60.6278 30.4472 61.2485 30.2839 61.9578 30.2839C62.6671 30.2839 63.2878 30.4472 63.8198 30.7739C64.3518 31.0912 64.7625 31.5392 65.0518 32.1179C65.3411 32.6966 65.4858 33.3826 65.4858 34.1759C65.4858 34.9599 65.3411 35.6459 65.0518 36.2339C64.7625 36.8219 64.3518 37.2746 63.8198 37.5919C63.2878 37.9092 62.6671 38.0679 61.9578 38.0679ZM61.9578 36.7799C62.5925 36.7799 63.0825 36.5512 63.4278 36.0939C63.7731 35.6272 63.9458 34.9879 63.9458 34.1759C63.9458 33.3639 63.7731 32.7292 63.4278 32.2719C63.0825 31.8052 62.5925 31.5719 61.9578 31.5719C61.3325 31.5719 60.8425 31.8052 60.4878 32.2719C60.1425 32.7292 59.9698 33.3639 59.9698 34.1759C59.9698 34.9879 60.1425 35.6272 60.4878 36.0939C60.8425 36.5512 61.3325 36.7799 61.9578 36.7799ZM70.0515 38.0679C69.3422 38.0679 68.7215 37.9092 68.1895 37.5919C67.6575 37.2746 67.2469 36.8219 66.9575 36.2339C66.6682 35.6459 66.5235 34.9599 66.5235 34.1759C66.5235 33.3826 66.6682 32.6966 66.9575 32.1179C67.2469 31.5392 67.6575 31.0912 68.1895 30.7739C68.7215 30.4472 69.3422 30.2839 70.0515 30.2839C70.7609 30.2839 71.3815 30.4472 71.9135 30.7739C72.4455 31.0912 72.8562 31.5392 73.1455 32.1179C73.4349 32.6966 73.5795 33.3826 73.5795 34.1759C73.5795 34.9599 73.4349 35.6459 73.1455 36.2339C72.8562 36.8219 72.4455 37.2746 71.9135 37.5919C71.3815 37.9092 70.7609 38.0679 70.0515 38.0679ZM70.0515 36.7799C70.6862 36.7799 71.1762 36.5512 71.5215 36.0939C71.8669 35.6272 72.0395 34.9879 72.0395 34.1759C72.0395 33.3639 71.8669 32.7292 71.5215 32.2719C71.1762 31.8052 70.6862 31.5719 70.0515 31.5719C69.4262 31.5719 68.9362 31.8052 68.5815 32.2719C68.2362 32.7292 68.0635 33.3639 68.0635 34.1759C68.0635 34.9879 68.2362 35.6272 68.5815 36.0939C68.9362 36.5512 69.4262 36.7799 70.0515 36.7799ZM76.7717 37.8999C76.2863 37.8999 75.8943 37.7739 75.5957 37.5219C75.297 37.2699 75.1477 36.8686 75.1477 36.3179V27.9599H76.6317V36.1779C76.6317 36.3459 76.6737 36.4719 76.7577 36.5559C76.851 36.6399 76.9817 36.6819 77.1497 36.6819H77.7377V37.8999H76.7717ZM78.9895 37.8999V30.4519H80.4735V37.8999H78.9895ZM78.9615 29.3739V27.8899H80.5015V29.3739H78.9615ZM85.5008 38.0679C84.7728 38.0679 84.1428 37.9092 83.6108 37.5919C83.0881 37.2746 82.6821 36.8219 82.3928 36.2339C82.1128 35.6459 81.9728 34.9599 81.9728 34.1759C81.9728 33.3919 82.1128 32.7106 82.3928 32.1319C82.6821 31.5439 83.0881 31.0912 83.6108 30.7739C84.1334 30.4472 84.7494 30.2839 85.4588 30.2839C86.1308 30.2839 86.7234 30.4426 87.2368 30.7599C87.7501 31.0679 88.1468 31.5159 88.4268 32.1039C88.7161 32.6919 88.8608 33.4012 88.8608 34.2319V34.6099H83.5128C83.5501 35.3379 83.7414 35.8839 84.0868 36.2479C84.4414 36.6119 84.9174 36.7939 85.5148 36.7939C85.9534 36.7939 86.3174 36.6912 86.6068 36.4859C86.8961 36.2806 87.0968 36.0052 87.2088 35.6599L88.7488 35.7579C88.5528 36.4486 88.1654 37.0086 87.5868 37.4379C87.0174 37.8579 86.3221 38.0679 85.5008 38.0679ZM83.5128 33.4899H87.2928C87.2461 32.8272 87.0548 32.3372 86.7188 32.0199C86.3921 31.7026 85.9721 31.5439 85.4588 31.5439C84.9268 31.5439 84.4881 31.7119 84.1428 32.0479C83.8068 32.3746 83.5968 32.8552 83.5128 33.4899Z" fill="black"/>
<rect x="262.5" y="24.3999" width="41" height="17" rx="4" fill="#A0FAB8"/>
<g clip-path="url(#clip1_1_2878)">
<g clip-path="url(#clip2_1_2878)">
<path d="M270 36.8999V30.8125L267.2 33.6121L266.5 32.8994L270.5 28.8999L274.5 32.8994L273.8 33.6121L271 30.8125V36.8999H270Z" fill="#1A2B1F"/>
</g>
</g>
<path d="M283.472 32.8871L282.3 33.015C282.267 32.8966 282.209 32.7853 282.126 32.6812C282.045 32.577 281.936 32.4929 281.799 32.429C281.662 32.3651 281.494 32.3331 281.295 32.3331C281.027 32.3331 280.802 32.3911 280.62 32.5071C280.44 32.6232 280.351 32.7735 280.354 32.9581C280.351 33.1168 280.409 33.2458 280.528 33.3452C280.648 33.4446 280.847 33.5263 281.124 33.5902L282.055 33.7891C282.571 33.9004 282.954 34.0767 283.205 34.3182C283.459 34.5597 283.586 34.8758 283.589 35.2664C283.586 35.6097 283.486 35.9127 283.287 36.1755C283.09 36.4359 282.817 36.6395 282.467 36.7863C282.116 36.933 281.714 37.0064 281.259 37.0064C280.592 37.0064 280.054 36.8668 279.647 36.5874C279.24 36.3057 278.997 35.9139 278.919 35.412L280.173 35.2912C280.229 35.5374 280.35 35.7233 280.535 35.8488C280.719 35.9742 280.96 36.037 281.256 36.037C281.561 36.037 281.806 35.9742 281.991 35.8488C282.178 35.7233 282.271 35.5682 282.271 35.3836C282.271 35.2273 282.211 35.0983 282.09 34.9965C281.972 34.8947 281.787 34.8166 281.536 34.7621L280.606 34.5668C280.083 34.4579 279.696 34.2744 279.445 34.0164C279.194 33.756 279.069 33.4269 279.072 33.0292C279.069 32.693 279.161 32.4018 279.345 32.1556C279.532 31.907 279.791 31.7152 280.123 31.5803C280.457 31.443 280.841 31.3743 281.277 31.3743C281.916 31.3743 282.419 31.5105 282.786 31.7827C283.156 32.055 283.384 32.4231 283.472 32.8871ZM286.764 37.0064C286.217 37.0064 285.744 36.8928 285.347 36.6655C284.951 36.4359 284.647 36.1116 284.434 35.6925C284.221 35.2711 284.114 34.7751 284.114 34.2046C284.114 33.6435 284.221 33.1511 284.434 32.7273C284.649 32.3012 284.95 31.9697 285.336 31.733C285.722 31.4939 286.175 31.3743 286.696 31.3743C287.032 31.3743 287.35 31.4288 287.648 31.5377C287.948 31.6442 288.214 31.8099 288.443 32.0348C288.675 32.2598 288.858 32.5462 288.99 32.8942C289.123 33.2399 289.189 33.6518 289.189 34.13V34.5242H284.718V33.6577H287.957C287.954 33.4115 287.901 33.1925 287.797 33.0008C287.693 32.8066 287.547 32.6539 287.36 32.5427C287.175 32.4314 286.96 32.3758 286.714 32.3758C286.451 32.3758 286.22 32.4397 286.021 32.5675C285.823 32.693 285.667 32.8587 285.556 33.0647C285.447 33.2683 285.392 33.492 285.389 33.7358V34.4922C285.389 34.8095 285.447 35.0817 285.563 35.309C285.679 35.5339 285.841 35.7067 286.05 35.8275C286.258 35.9458 286.502 36.005 286.781 36.005C286.968 36.005 287.138 35.979 287.289 35.9269C287.441 35.8724 287.572 35.7931 287.683 35.689C287.795 35.5848 287.879 35.4558 287.935 35.3019L289.136 35.4368C289.06 35.7541 288.916 36.0311 288.702 36.2678C288.492 36.5022 288.222 36.6845 287.893 36.8147C287.564 36.9425 287.187 37.0064 286.764 37.0064ZM291.262 33.7039V36.8999H289.977V31.4454H291.205V32.3722H291.269C291.395 32.0668 291.595 31.8241 291.869 31.6442C292.146 31.4643 292.488 31.3743 292.896 31.3743C293.272 31.3743 293.6 31.4548 293.879 31.6158C294.161 31.7768 294.379 32.01 294.533 32.3154C294.689 32.6208 294.766 32.9913 294.763 33.4269V36.8999H293.478V33.6258C293.478 33.2612 293.383 32.9759 293.194 32.7699C293.007 32.564 292.748 32.461 292.416 32.461C292.191 32.461 291.991 32.5107 291.816 32.6101C291.643 32.7072 291.507 32.8481 291.408 33.0327C291.311 33.2174 291.262 33.4411 291.262 33.7039ZM298.494 31.4454V32.4397H295.358V31.4454H298.494ZM296.132 30.1385H297.418V35.2593C297.418 35.4321 297.444 35.5647 297.496 35.657C297.551 35.747 297.622 35.8085 297.709 35.8417C297.797 35.8748 297.894 35.8914 298 35.8914C298.081 35.8914 298.154 35.8855 298.221 35.8736C298.289 35.8618 298.341 35.8511 298.377 35.8417L298.593 36.8466C298.525 36.8703 298.427 36.8964 298.299 36.9248C298.173 36.9532 298.019 36.9697 297.837 36.9745C297.515 36.9839 297.225 36.9354 296.967 36.8289C296.709 36.72 296.504 36.5519 296.353 36.3246C296.204 36.0973 296.13 35.8133 296.132 35.4723V30.1385Z" fill="#1A2B1F"/>
<rect x="20" y="17.8999" width="80" height="30" rx="7.5" stroke="#EBEBEB"/>
<rect x="19.5" y="58.3999" width="296" height="31" rx="8" fill="white"/>
<path d="M30.704 78.8999V68.9599H37.158V70.3459H31.418L32.216 69.5199V74.0839L31.418 73.3699H36.906V74.7139H31.418L32.216 73.9999V78.8999H30.704ZM38.4797 78.8999V71.4519H39.8377L39.8937 73.4259L39.7677 73.3839C39.8704 72.7119 40.0757 72.2219 40.3837 71.9139C40.701 71.6059 41.1257 71.4519 41.6577 71.4519H42.3717V72.7819H41.6577C41.2844 72.7819 40.9717 72.8426 40.7197 72.9639C40.4677 73.0852 40.2764 73.2719 40.1457 73.5239C40.0244 73.7759 39.9637 74.1026 39.9637 74.5039V78.8999H38.4797ZM46.4949 79.0679C45.7856 79.0679 45.1649 78.9092 44.6329 78.5919C44.1009 78.2746 43.6902 77.8219 43.4009 77.2339C43.1116 76.6459 42.9669 75.9599 42.9669 75.1759C42.9669 74.3826 43.1116 73.6966 43.4009 73.1179C43.6902 72.5392 44.1009 72.0912 44.6329 71.7739C45.1649 71.4472 45.7856 71.2839 46.4949 71.2839C47.2042 71.2839 47.8249 71.4472 48.3569 71.7739C48.8889 72.0912 49.2996 72.5392 49.5889 73.1179C49.8782 73.6966 50.0229 74.3826 50.0229 75.1759C50.0229 75.9599 49.8782 76.6459 49.5889 77.2339C49.2996 77.8219 48.8889 78.2746 48.3569 78.5919C47.8249 78.9092 47.2042 79.0679 46.4949 79.0679ZM46.4949 77.7799C47.1296 77.7799 47.6196 77.5512 47.9649 77.0939C48.3102 76.6272 48.4829 75.9879 48.4829 75.1759C48.4829 74.3639 48.3102 73.7292 47.9649 73.2719C47.6196 72.8052 47.1296 72.5719 46.4949 72.5719C45.8696 72.5719 45.3796 72.8052 45.0249 73.2719C44.6796 73.7292 44.5069 74.3639 44.5069 75.1759C44.5069 75.9879 44.6796 76.6272 45.0249 77.0939C45.3796 77.5512 45.8696 77.7799 46.4949 77.7799ZM51.5227 78.8999V71.4519H52.8807L52.9227 73.2999L52.7547 73.2439C52.8387 72.8332 52.9833 72.4832 53.1887 72.1939C53.4033 71.9046 53.6647 71.6806 53.9727 71.5219C54.2807 71.3632 54.6167 71.2839 54.9807 71.2839C55.6153 71.2839 56.1333 71.4659 56.5347 71.8299C56.936 72.1846 57.188 72.6746 57.2907 73.2999H57.0527C57.1367 72.8612 57.2767 72.4972 57.4727 72.2079C57.678 71.9092 57.9393 71.6806 58.2567 71.5219C58.574 71.3632 58.9333 71.2839 59.3347 71.2839C59.8573 71.2839 60.3007 71.3959 60.6647 71.6199C61.038 71.8346 61.318 72.1519 61.5047 72.5719C61.7007 72.9919 61.7987 73.5052 61.7987 74.1119V78.8999H60.3147V74.4759C60.3147 73.8319 60.198 73.3466 59.9647 73.0199C59.7313 72.6932 59.3767 72.5299 58.9007 72.5299C58.5927 72.5299 58.322 72.6092 58.0887 72.7679C57.8553 72.9266 57.6733 73.1552 57.5427 73.4539C57.4213 73.7526 57.3607 74.1119 57.3607 74.5319V78.8999H55.9467V74.5319C55.9467 73.8972 55.8393 73.4072 55.6247 73.0619C55.4193 72.7072 55.0647 72.5299 54.5607 72.5299C54.2433 72.5299 53.968 72.6092 53.7347 72.7679C53.5107 72.9266 53.3333 73.1599 53.2027 73.4679C53.072 73.7666 53.0067 74.1212 53.0067 74.5319V78.8999H51.5227Z" fill="black" fill-opacity="0.49"/>
<path d="M70.4357 79.1239C69.773 79.1239 69.1897 78.9746 68.6857 78.6759C68.191 78.3679 67.8083 77.9479 67.5377 77.4159C67.267 76.8746 67.127 76.2539 67.1177 75.5539L68.6577 75.4699C68.667 76.2166 68.8257 76.7812 69.1337 77.1639C69.4417 77.5466 69.8757 77.7379 70.4357 77.7379C71.0237 77.7379 71.4717 77.5372 71.7797 77.1359C72.097 76.7346 72.2557 76.1559 72.2557 75.3999V68.9599H73.7677V75.3999C73.7677 76.1559 73.6277 76.8139 73.3477 77.3739C73.077 77.9339 72.6943 78.3679 72.1997 78.6759C71.705 78.9746 71.117 79.1239 70.4357 79.1239ZM77.9036 79.0679C77.1289 79.0679 76.5082 78.8906 76.0416 78.5359C75.5842 78.1812 75.3556 77.6819 75.3556 77.0379C75.3556 76.3939 75.5469 75.8946 75.9296 75.5399C76.3216 75.1759 76.9236 74.9146 77.7356 74.7559L80.2976 74.2659C80.2976 73.6872 80.1622 73.2579 79.8916 72.9779C79.6209 72.6886 79.2196 72.5439 78.6876 72.5439C78.2116 72.5439 77.8382 72.6512 77.5676 72.8659C77.2969 73.0712 77.1102 73.3792 77.0076 73.7899L75.4816 73.6919C75.6216 72.9452 75.9669 72.3572 76.5176 71.9279C77.0776 71.4986 77.8009 71.2839 78.6876 71.2839C79.6956 71.2839 80.4609 71.5546 80.9836 72.0959C81.5156 72.6279 81.7816 73.3792 81.7816 74.3499V77.2479C81.7816 77.4252 81.8096 77.5512 81.8656 77.6259C81.9309 77.6912 82.0336 77.7239 82.1736 77.7239H82.4396V78.8999C82.3929 78.9092 82.3182 78.9186 82.2156 78.9279C82.1129 78.9372 82.0056 78.9419 81.8936 78.9419C81.5762 78.9419 81.3009 78.8906 81.0676 78.7879C80.8436 78.6852 80.6756 78.5172 80.5636 78.2839C80.4516 78.0412 80.3956 77.7192 80.3956 77.3179L80.5496 77.3879C80.4749 77.7146 80.3116 78.0039 80.0596 78.2559C79.8169 78.5079 79.5042 78.7086 79.1216 78.8579C78.7482 78.9979 78.3422 79.0679 77.9036 79.0679ZM78.1416 77.8919C78.5896 77.8919 78.9722 77.8079 79.2896 77.6399C79.6069 77.4626 79.8542 77.2199 80.0316 76.9119C80.2089 76.6039 80.2976 76.2539 80.2976 75.8619V75.3859L78.1136 75.8059C77.6656 75.8899 77.3482 76.0252 77.1616 76.2119C76.9842 76.3892 76.8956 76.6179 76.8956 76.8979C76.8956 77.2152 77.0029 77.4626 77.2176 77.6399C77.4416 77.8079 77.7496 77.8919 78.1416 77.8919ZM83.6926 78.8999V71.4519H85.0506L85.1066 73.4399L84.9246 73.3419C85.0086 72.8566 85.1672 72.4646 85.4006 72.1659C85.6339 71.8672 85.9186 71.6479 86.2546 71.5079C86.5906 71.3586 86.9546 71.2839 87.3466 71.2839C87.9066 71.2839 88.3686 71.4099 88.7326 71.6619C89.1059 71.9046 89.3859 72.2406 89.5726 72.6699C89.7686 73.0899 89.8666 73.5706 89.8666 74.1119V78.8999H88.3826V74.5599C88.3826 74.1212 88.3359 73.7526 88.2426 73.4539C88.1492 73.1552 87.9952 72.9266 87.7806 72.7679C87.5659 72.6092 87.2859 72.5299 86.9406 72.5299C86.4179 72.5299 85.9932 72.7026 85.6666 73.0479C85.3399 73.3932 85.1766 73.8972 85.1766 74.5599V78.8999H83.6926ZM94.866 79.0679C94.138 79.0679 93.508 78.9092 92.976 78.5919C92.4533 78.2746 92.0473 77.8219 91.758 77.2339C91.478 76.6459 91.338 75.9599 91.338 75.1759C91.338 74.3919 91.478 73.7106 91.758 73.1319C92.0473 72.5439 92.4533 72.0912 92.976 71.7739C93.4987 71.4472 94.1147 71.2839 94.824 71.2839C95.496 71.2839 96.0887 71.4426 96.602 71.7599C97.1153 72.0679 97.512 72.5159 97.792 73.1039C98.0813 73.6919 98.226 74.4012 98.226 75.2319V75.6099H92.878C92.9153 76.3379 93.1067 76.8839 93.452 77.2479C93.8067 77.6119 94.2827 77.7939 94.88 77.7939C95.3187 77.7939 95.6827 77.6912 95.972 77.4859C96.2613 77.2806 96.462 77.0052 96.574 76.6599L98.114 76.7579C97.918 77.4486 97.5307 78.0086 96.952 78.4379C96.3827 78.8579 95.6873 79.0679 94.866 79.0679ZM92.878 74.4899H96.658C96.6113 73.8272 96.42 73.3372 96.084 73.0199C95.7573 72.7026 95.3373 72.5439 94.824 72.5439C94.292 72.5439 93.8533 72.7119 93.508 73.0479C93.172 73.3746 92.962 73.8552 92.878 74.4899Z" fill="black"/>
<rect x="243.5" y="65.3999" width="60" height="17" rx="4" fill="#FBBC04"/>
<g clip-path="url(#clip3_1_2878)">
<g clip-path="url(#clip4_1_2878)">
<path d="M252 69.8999V75.9873L254.8 73.1877L255.5 73.9004L251.5 77.8999L247.5 73.9004L248.2 73.1877L251 75.9873V69.8999H252Z" fill="black"/>
</g>
</g>
<path d="M260.161 77.8999V72.4454H261.407V73.3544H261.464C261.563 73.0396 261.734 72.7969 261.975 72.6265C262.219 72.4536 262.497 72.3672 262.81 72.3672C262.881 72.3672 262.96 72.3708 263.048 72.3779C263.138 72.3826 263.212 72.3909 263.271 72.4027V73.5853C263.217 73.5663 263.13 73.5498 263.012 73.5356C262.896 73.519 262.784 73.5107 262.675 73.5107C262.44 73.5107 262.23 73.5616 262.043 73.6634C261.858 73.7628 261.712 73.9013 261.606 74.0789C261.499 74.2564 261.446 74.4612 261.446 74.6932V77.8999H260.161ZM266.016 78.0064C265.469 78.0064 264.996 77.8928 264.599 77.6655C264.203 77.4359 263.899 77.1116 263.686 76.6925C263.473 76.2711 263.366 75.7751 263.366 75.2046C263.366 74.6435 263.473 74.1511 263.686 73.7273C263.901 73.3012 264.202 72.9697 264.588 72.733C264.974 72.4939 265.427 72.3743 265.948 72.3743C266.284 72.3743 266.601 72.4288 266.9 72.5377C267.2 72.6442 267.466 72.8099 267.695 73.0348C267.927 73.2598 268.11 73.5462 268.242 73.8942C268.375 74.2399 268.441 74.6518 268.441 75.13V75.5242H263.97V74.6577H267.209C267.206 74.4115 267.153 74.1925 267.049 74.0008C266.945 73.8066 266.799 73.6539 266.612 73.5427C266.427 73.4314 266.212 73.3758 265.966 73.3758C265.703 73.3758 265.472 73.4397 265.273 73.5675C265.074 73.693 264.919 73.8587 264.808 74.0647C264.699 74.2683 264.644 74.492 264.641 74.7358V75.4922C264.641 75.8095 264.699 76.0817 264.815 76.309C264.931 76.5339 265.093 76.7067 265.302 76.8275C265.51 76.9458 265.754 77.005 266.033 77.005C266.22 77.005 266.39 76.979 266.541 76.9269C266.693 76.8724 266.824 76.7931 266.935 76.689C267.047 76.5848 267.131 76.4558 267.187 76.3019L268.388 76.4368C268.312 76.7541 268.168 77.0311 267.954 77.2678C267.744 77.5022 267.474 77.6845 267.145 77.8147C266.816 77.9425 266.439 78.0064 266.016 78.0064ZM271.608 78.0064C271.063 78.0064 270.596 77.8869 270.205 77.6478C269.817 77.4087 269.517 77.0784 269.307 76.657C269.098 76.2332 268.994 75.7455 268.994 75.1939C268.994 74.64 269.101 74.1511 269.314 73.7273C269.527 73.3012 269.827 72.9697 270.216 72.733C270.606 72.4939 271.068 72.3743 271.601 72.3743C272.043 72.3743 272.435 72.456 272.776 72.6194C273.119 72.7803 273.393 73.0088 273.596 73.3047C273.8 73.5983 273.916 73.9416 273.944 74.3346H272.716C272.666 74.0718 272.548 73.8528 272.361 73.6776C272.176 73.5 271.929 73.4113 271.618 73.4113C271.356 73.4113 271.125 73.4823 270.926 73.6243C270.727 73.764 270.572 73.9652 270.461 74.228C270.352 74.4908 270.297 74.8057 270.297 75.1726C270.297 75.5443 270.352 75.8639 270.461 76.1314C270.57 76.3966 270.722 76.6014 270.919 76.7458C271.118 76.8878 271.351 76.9589 271.618 76.9589C271.808 76.9589 271.977 76.9233 272.126 76.8523C272.278 76.7789 272.404 76.6736 272.506 76.5363C272.608 76.399 272.678 76.2321 272.716 76.0356H273.944C273.914 76.4214 273.8 76.7635 273.603 77.0618C273.407 77.3578 273.139 77.5898 272.801 77.7579C272.462 77.9236 272.065 78.0064 271.608 78.0064ZM277.115 78.0064C276.568 78.0064 276.096 77.8928 275.698 77.6655C275.302 77.4359 274.998 77.1116 274.785 76.6925C274.572 76.2711 274.466 75.7751 274.466 75.2046C274.466 74.6435 274.572 74.1511 274.785 73.7273C275.001 73.3012 275.301 72.9697 275.687 72.733C276.073 72.4939 276.526 72.3743 277.047 72.3743C277.383 72.3743 277.701 72.4288 277.999 72.5377C278.3 72.6442 278.565 72.8099 278.794 73.0348C279.026 73.2598 279.209 73.5462 279.341 73.8942C279.474 74.2399 279.54 74.6518 279.54 75.13V75.5242H275.069V74.6577H278.308C278.306 74.4115 278.252 74.1925 278.148 74.0008C278.044 73.8066 277.898 73.6539 277.711 73.5427C277.527 73.4314 277.311 73.3758 277.065 73.3758C276.802 73.3758 276.571 73.4397 276.373 73.5675C276.174 73.693 276.019 73.8587 275.907 74.0647C275.798 74.2683 275.743 74.492 275.74 74.7358V75.4922C275.74 75.8095 275.798 76.0817 275.914 76.309C276.03 76.5339 276.193 76.7067 276.401 76.8275C276.609 76.9458 276.853 77.005 277.132 77.005C277.32 77.005 277.489 76.979 277.64 76.9269C277.792 76.8724 277.923 76.7931 278.034 76.689C278.146 76.5848 278.23 76.4558 278.287 76.3019L279.487 76.4368C279.411 76.7541 279.267 77.0311 279.054 77.2678C278.843 77.5022 278.573 77.6845 278.244 77.8147C277.915 77.9425 277.539 78.0064 277.115 78.0064ZM280.328 77.8999V72.4454H281.613V77.8999H280.328ZM280.974 71.6712C280.77 71.6712 280.595 71.6037 280.448 71.4688C280.302 71.3315 280.228 71.1669 280.228 70.9752C280.228 70.7811 280.302 70.6165 280.448 70.4816C280.595 70.3443 280.77 70.2756 280.974 70.2756C281.18 70.2756 281.355 70.3443 281.5 70.4816C281.646 70.6165 281.72 70.7811 281.72 70.9752C281.72 71.1669 281.646 71.3315 281.5 71.4688C281.355 71.6037 281.18 71.6712 280.974 71.6712ZM287.507 72.4454L285.565 77.8999H284.144L282.202 72.4454H283.573L284.826 76.4972H284.883L286.14 72.4454H287.507ZM290.326 78.0064C289.779 78.0064 289.307 77.8928 288.909 77.6655C288.514 77.4359 288.21 77.1116 287.997 76.6925C287.783 76.2711 287.677 75.7751 287.677 75.2046C287.677 74.6435 287.783 74.1511 287.997 73.7273C288.212 73.3012 288.513 72.9697 288.899 72.733C289.284 72.4939 289.738 72.3743 290.259 72.3743C290.595 72.3743 290.912 72.4288 291.21 72.5377C291.511 72.6442 291.776 72.8099 292.006 73.0348C292.238 73.2598 292.42 73.5462 292.553 73.8942C292.685 74.2399 292.751 74.6518 292.751 75.13V75.5242H288.281V74.6577H291.519C291.517 74.4115 291.464 74.1925 291.359 74.0008C291.255 73.8066 291.11 73.6539 290.923 73.5427C290.738 73.4314 290.523 73.3758 290.276 73.3758C290.014 73.3758 289.783 73.4397 289.584 73.5675C289.385 73.693 289.23 73.8587 289.119 74.0647C289.01 74.2683 288.954 74.492 288.952 74.7358V75.4922C288.952 75.8095 289.01 76.0817 289.126 76.309C289.242 76.5339 289.404 76.7067 289.612 76.8275C289.821 76.9458 290.064 77.005 290.344 77.005C290.531 77.005 290.7 76.979 290.852 76.9269C291.003 76.8724 291.135 76.7931 291.246 76.689C291.357 76.5848 291.441 76.4558 291.498 76.3019L292.698 76.4368C292.622 76.7541 292.478 77.0311 292.265 77.2678C292.054 77.5022 291.784 77.6845 291.455 77.8147C291.126 77.9425 290.75 78.0064 290.326 78.0064ZM295.563 77.9958C295.135 77.9958 294.751 77.8857 294.413 77.6655C294.074 77.4454 293.807 77.1258 293.61 76.7067C293.414 76.2877 293.315 75.7787 293.315 75.1797C293.315 74.5737 293.415 74.0623 293.614 73.6456C293.815 73.2266 294.086 72.9106 294.427 72.6975C294.768 72.4821 295.148 72.3743 295.567 72.3743C295.886 72.3743 296.149 72.4288 296.355 72.5377C296.561 72.6442 296.724 72.7732 296.845 72.9248C296.966 73.0739 297.059 73.2148 297.126 73.3473H297.179V70.6272H298.468V77.8999H297.204V77.0405H297.126C297.059 77.1731 296.964 77.314 296.838 77.4631C296.713 77.6099 296.547 77.7354 296.341 77.8395C296.135 77.9437 295.876 77.9958 295.563 77.9958ZM295.922 76.9411C296.194 76.9411 296.426 76.8677 296.618 76.7209C296.81 76.5718 296.955 76.3646 297.055 76.0995C297.154 75.8343 297.204 75.5254 297.204 75.1726C297.204 74.8199 297.154 74.5133 297.055 74.2529C296.958 73.9925 296.813 73.7901 296.621 73.6456C296.432 73.5012 296.199 73.429 295.922 73.429C295.635 73.429 295.396 73.5036 295.205 73.6527C295.013 73.8019 294.868 74.0079 294.771 74.2706C294.674 74.5334 294.626 74.8341 294.626 75.1726C294.626 75.5135 294.674 75.8178 294.771 76.0853C294.871 76.3504 295.016 76.5599 295.208 76.7138C295.402 76.8653 295.64 76.9411 295.922 76.9411Z" fill="black"/>
<rect x="20" y="58.8999" width="88" height="30" rx="7.5" stroke="#EBEBEB"/>
</g>
<defs>
<clipPath id="clip0_1_2878">
<rect width="315" height="116" fill="white"/>
</clipPath>
<clipPath id="clip1_1_2878">
<rect width="8" height="8" fill="white" transform="translate(266.5 28.8999)"/>
</clipPath>
<clipPath id="clip2_1_2878">
<rect width="8" height="8" fill="white" transform="translate(266.5 28.8999)"/>
</clipPath>
<clipPath id="clip3_1_2878">
<rect width="8" height="8" fill="white" transform="matrix(-1 0 0 -1 255.5 77.8999)"/>
</clipPath>
<clipPath id="clip4_1_2878">
<rect width="8" height="8" fill="white" transform="matrix(-1 0 0 -1 255.5 77.8999)"/>
</clipPath>
</defs>
</svg>
